# Blender 4.5.0
# www.blender.org
mtllib Alien.mtl
o Alien_Blob.001_Cube.000
v 0.286517 1.174647 0.482629
v 0.349457 1.161202 0.397420
v 0.388757 1.153152 0.298458
v 0.401740 1.151044 0.192487
v 0.387519 1.155023 0.086730
v 0.347065 1.164819 -0.011608
v 0.283135 1.179763 -0.095824
v 0.200085 1.198838 -0.160179
v 0.103574 1.220740 -0.200288
v 0.091715 1.175813 0.589535
v 0.171939 1.119594 0.547822
v 0.240856 1.071442 0.481983
v 0.293533 1.034802 0.396629
v 0.326383 1.012171 0.297576
v 0.337165 1.005090 0.191574
v 0.325145 1.014043 0.085847
v 0.291142 1.038419 -0.012399
v 0.237474 1.076558 -0.096470
v 0.167797 1.125859 -0.160636
v 0.086861 1.182965 -0.200524
v 0.004963 1.236747 0.604640
v 0.061584 1.147471 0.589580
v 0.114182 1.064526 0.547672
v 0.159175 0.993564 0.481772
v 0.193496 0.939421 0.396370
v 0.214805 0.905787 0.297287
v 0.221651 0.894954 0.191275
v 0.213567 0.907659 0.085559
v 0.191104 0.943040 -0.012658
v 0.155793 0.998680 -0.096681
v 0.110040 1.070791 -0.160786
v 0.056964 1.154461 -0.200602
v 0.023054 1.132576 0.589674
v 0.039749 1.035750 0.547853
v 0.053911 0.952871 0.482028
v 0.064573 0.889582 0.396684
v 0.071011 0.850197 0.297637
v 0.072784 0.837404 0.191637
v 0.069773 0.852071 0.085908
v 0.062182 0.893200 -0.012345
v 0.050529 0.957987 -0.096426
v 0.035607 1.042017 -0.160605
v 0.018434 1.139564 -0.200508
v -0.018242 1.133559 0.589924
v -0.040029 1.037649 0.548336
v -0.058912 0.955555 0.482711
v -0.073606 0.892870 0.397520
v -0.083108 0.853866 0.298571
v -0.086771 0.841200 0.192603
v -0.084346 0.855738 0.086841
v -0.075998 0.896487 -0.011508
v -0.062294 0.960670 -0.095743
v -0.044171 1.043916 -0.160122
v -0.022862 1.140548 -0.200259
v -0.056018 1.150270 0.590293
v -0.113006 1.069933 0.549048
v -0.162117 1.001210 0.483718
v -0.200006 0.948785 0.398754
v -0.224089 0.916231 0.299946
v -0.232725 0.905766 0.194028
v -0.225327 0.918103 0.088217
v -0.202397 0.952403 -0.010274
v -0.165499 1.006326 -0.094735
v -0.117148 1.076199 -0.159409
v -0.060638 1.157259 -0.199890
v -0.084522 1.180165 0.590724
v -0.168072 1.127685 0.549881
v -0.239993 1.082885 0.484896
v -0.295383 1.048816 0.400196
v -0.330468 1.027802 0.301554
v -0.342857 1.021272 0.195693
v -0.331706 1.029674 0.089826
v -0.297774 1.052433 -0.008832
v -0.243375 1.088001 -0.093557
v -0.172214 1.133951 -0.158577
v -0.089142 1.187154 -0.199458
v -0.099415 1.218693 0.591151
v -0.196843 1.202116 0.550708
v -0.280682 1.188145 0.486065
v -0.345217 1.177733 0.401628
v -0.386051 1.171589 0.303151
v -0.400401 1.170132 0.197346
v -0.387289 1.173462 0.091422
v -0.347609 1.181351 -0.007400
v -0.284064 1.193261 -0.092388
v -0.200986 1.208381 -0.157750
v -0.104035 1.225682 -0.199030
v -0.098430 1.259987 0.591511
v -0.194941 1.281891 0.551402
v -0.277991 1.300966 0.487047
v -0.341922 1.315909 0.402831
v -0.382375 1.325705 0.304493
v -0.396596 1.329686 0.198735
v -0.383613 1.327578 0.092764
v -0.344313 1.319528 -0.006197
v -0.281373 1.306082 -0.091407
v -0.199083 1.288158 -0.157056
v -0.103050 1.266978 -0.198671
v 0.000180 1.243982 -0.213417
v -0.081717 1.297763 0.591747
v -0.162653 1.354868 0.551859
v -0.232330 1.404170 0.487693
v -0.285998 1.442310 0.403622
v -0.320001 1.466686 0.305375
v -0.332021 1.475639 0.199648
v -0.321239 1.468560 0.093647
v -0.288390 1.445926 -0.005406
v -0.235712 1.409287 -0.090760
v -0.166795 1.361135 -0.156599
v -0.086337 1.304752 -0.198435
v -0.051820 1.326270 0.591824
v -0.104897 1.409938 0.552008
v -0.150649 1.482049 0.487904
v -0.185960 1.537690 0.403880
v -0.208423 1.573070 0.305664
v -0.216507 1.585775 0.199947
v -0.209661 1.574942 0.093935
v -0.188352 1.541307 -0.005148
v -0.154032 1.487164 -0.090549
v -0.109039 1.416203 -0.156450
v -0.056440 1.333258 -0.198357
v -0.013291 1.341163 0.591731
v -0.030463 1.438712 0.551828
v -0.045385 1.522742 0.487649
v -0.057038 1.587529 0.403567
v -0.064629 1.628658 0.305315
v -0.067640 1.643325 0.199586
v -0.065867 1.630531 0.093586
v -0.059429 1.591148 -0.005461
v -0.048767 1.527859 -0.090805
v -0.034605 1.444977 -0.156630
v -0.017911 1.348152 -0.198451
v 0.028006 1.340181 0.591481
v 0.049315 1.436813 0.551344
v 0.067438 1.520059 0.486965
v 0.081141 1.584242 0.402730
v 0.089490 1.624991 0.304382
v 0.091915 1.639528 0.198619
v 0.088252 1.626864 0.092652
v 0.078750 1.587859 -0.006298
v 0.064056 1.525173 -0.091488
v 0.045172 1.443079 -0.157113
v 0.023386 1.347171 -0.198701
v 0.065781 1.323470 0.591112
v 0.122292 1.404531 0.550632
v 0.170644 1.474402 0.485958
v 0.207541 1.528325 0.401497
v 0.230471 1.562623 0.303006
v 0.237869 1.574961 0.197195
v 0.229233 1.564498 0.091276
v 0.205150 1.531943 -0.007531
v 0.167261 1.479519 -0.092496
v 0.118150 1.410797 -0.157826
v 0.061161 1.330458 -0.199070
v 0.094286 1.293576 0.590681
v 0.177358 1.346778 0.549799
v 0.248518 1.392727 0.484780
v 0.302918 1.428296 0.400055
v 0.336850 1.451054 0.301397
v 0.348002 1.459457 0.195530
v 0.335612 1.452927 0.089668
v 0.300527 1.431913 -0.008974
v 0.245136 1.397844 -0.093673
v 0.173216 1.353044 -0.158658
v 0.089666 1.300564 -0.199501
v 0.109179 1.255047 0.590253
v 0.206129 1.272347 0.548973
v 0.289208 1.287468 0.483611
v 0.352752 1.299378 0.398623
v 0.392433 1.307267 0.299800
v 0.405545 1.310595 0.193876
v 0.391195 1.309140 0.088071
v 0.350361 1.302995 -0.010405
v 0.285826 1.292583 -0.094842
v 0.201987 1.278613 -0.159485
v 0.104559 1.262035 -0.199929
v 0.108194 1.213751 0.589894
v 0.204227 1.192570 0.548278
v 0.019574 1.302333 0.596296
v -0.035862 1.301109 0.595426
v 0.049038 1.299596 0.594836
v -0.006778 1.303909 0.596336
v 0.016321 1.171342 0.595243
v 0.045272 1.173190 0.593919
v -0.009578 1.172084 0.595418
v -0.038579 1.174999 0.594395
vn 0.8518 -0.1943 0.4864
vn 0.7925 -0.5584 0.2453
vn 0.9451 -0.2134 0.2475
vn -0.0058 0.0088 -0.9999
vn 0.2617 -0.0513 -0.9638
vn 0.2184 -0.1490 -0.9644
vn 0.5047 -0.1194 0.8550
vn 0.2304 -0.1666 0.9587
vn 0.4238 -0.3021 0.8539
vn 0.8461 -0.1856 -0.4997
vn 0.5808 -0.4051 -0.7061
vn 0.6937 -0.1500 -0.7045
vn 0.9758 -0.2184 -0.0076
vn 0.8180 -0.5752 -0.0099
vn 0.5890 -0.4175 0.6920
vn 0.7019 -0.1623 0.6936
vn 0.4138 -0.2869 -0.8640
vn 0.4946 -0.1042 -0.8628
vn 0.9421 -0.2089 -0.2622
vn 0.7895 -0.5539 -0.2644
vn 0.7145 -0.5047 0.4845
vn 0.2725 -0.0686 0.9597
vn 0.0059 -0.0089 0.9999
vn 0.7087 -0.4960 -0.5017
vn 0.3789 -0.5976 -0.7066
vn 0.2692 -0.4248 -0.8643
vn 0.5356 -0.8444 -0.0106
vn 0.5164 -0.8143 -0.2651
vn 0.3871 -0.6100 0.6914
vn 0.4688 -0.7390 0.4838
vn 0.1411 -0.2228 -0.9646
vn 0.0765 -0.1185 0.9900
vn 0.4631 -0.7303 -0.5023
vn 0.5194 -0.8188 0.2446
vn 0.2792 -0.4400 0.8535
vn 0.0526 -0.2783 0.9590
vn 0.0929 -0.5120 0.8539
vn 0.1464 -0.8527 -0.5015
vn 0.1187 -0.6982 -0.7060
vn 0.1716 -0.9851 -0.0097
vn 0.1268 -0.7106 0.6921
vn 0.0829 -0.4968 -0.8639
vn 0.1645 -0.9503 -0.2642
vn 0.1522 -0.8614 0.4846
vn 0.0414 -0.2613 -0.9644
vn 0.1525 -0.2393 0.9589
vn 0.1675 -0.9548 0.2454
vn -0.1169 -0.4920 -0.8627
vn -0.0654 -0.2588 -0.9637
vn 0.0282 -0.1374 0.9901
vn -0.0542 -0.2758 0.9597
vn -0.2127 -0.9414 -0.2620
vn -0.1929 -0.8446 -0.4995
vn -0.2097 -0.9459 0.2477
vn -0.1068 -0.5072 0.8552
vn -0.1603 -0.6916 -0.7043
vn -0.2184 -0.9758 -0.0074
vn -0.1521 -0.7040 0.6938
vn -0.1871 -0.8533 0.4867
vn -0.4072 -0.5911 0.6963
vn -0.4154 -0.5787 -0.7018
vn -0.2996 -0.4112 -0.8609
vn -0.5752 -0.8180 -0.0039
vn -0.5577 -0.7887 -0.2586
vn -0.4975 -0.7160 0.4897
vn -0.1632 -0.2155 -0.9628
vn -0.0693 -0.1155 0.9909
vn -0.1519 -0.2326 0.9606
vn -0.5033 -0.7073 -0.4964
vn -0.5547 -0.7932 0.2511
vn -0.2895 -0.4264 0.8569
vn -0.2369 -0.1382 -0.9616
vn -0.4274 -0.2818 0.8590
vn -0.7375 -0.4616 -0.4929
vn -0.6079 -0.3768 -0.6989
vn -0.8445 -0.5356 0.0002
vn -0.5998 -0.3892 0.6992
vn -0.4374 -0.2666 -0.8588
vn -0.8181 -0.5157 -0.2546
vn -0.7318 -0.4703 0.4932
vn -0.2257 -0.1552 0.9618
vn -0.8151 -0.5202 0.2550
vn -0.8542 -0.1537 0.4968
vn -0.5094 -0.0803 -0.8568
vn -0.2755 -0.0385 -0.9605
vn -0.2642 -0.0555 0.9629
vn -0.8599 -0.1450 -0.4894
vn -0.9511 -0.1683 0.2589
vn -0.4994 -0.0955 0.8611
vn -0.7085 -0.1166 -0.6960
vn -0.9851 -0.1717 0.0042
vn -0.7003 -0.1290 0.7021
vn -0.9541 -0.1638 -0.2507
vn -0.4946 0.1042 0.8628
vn -0.6937 0.1500 0.7045
vn -0.7019 0.1623 -0.6936
vn -0.5047 0.1194 -0.8550
vn -0.9451 0.2134 -0.2475
vn -0.8461 0.1856 0.4997
vn -0.2729 0.0683 -0.9596
vn -0.2617 0.0513 0.9638
vn -0.8518 0.1943 -0.4864
vn -0.9421 0.2089 0.2622
vn -0.9758 0.2184 0.0076
vn -0.7087 0.4960 0.5017
vn -0.7895 0.5539 0.2644
vn -0.2297 0.1660 -0.9590
vn -0.2184 0.1490 0.9644
vn -0.4138 0.2869 0.8640
vn -0.5890 0.4175 -0.6920
vn -0.8180 0.5752 0.0099
vn -0.5808 0.4051 0.7061
vn -0.4238 0.3021 -0.8539
vn -0.7925 0.5584 -0.2453
vn -0.7145 0.5047 -0.4845
vn -0.3789 0.5976 0.7066
vn -0.4631 0.7303 0.5023
vn -0.1523 0.2398 -0.9588
vn -0.0641 0.1015 0.9928
vn -0.4688 0.7390 -0.4839
vn -0.5164 0.8143 0.2651
vn -0.1411 0.2228 0.9646
vn -0.2692 0.4248 0.8644
vn -0.3871 0.6100 -0.6914
vn -0.5356 0.8444 0.0106
vn -0.2792 0.4400 -0.8535
vn -0.5194 0.8188 -0.2446
vn -0.1716 0.9851 0.0097
vn -0.1187 0.6982 0.7060
vn -0.1268 0.7106 -0.6921
vn -0.0929 0.5120 -0.8539
vn -0.1675 0.9548 -0.2454
vn -0.1464 0.8527 0.5015
vn -0.0526 0.2783 -0.9590
vn -0.0414 0.2613 0.9644
vn -0.1522 0.8614 -0.4846
vn -0.1645 0.9503 0.2642
vn -0.0829 0.4968 0.8639
vn 0.1929 0.8446 0.4995
vn 0.2127 0.9414 0.2620
vn 0.0542 0.2758 -0.9597
vn 0.0654 0.2588 0.9637
vn 0.1169 0.4921 0.8627
vn 0.1521 0.7040 -0.6938
vn 0.2184 0.9758 0.0074
vn 0.1603 0.6916 0.7043
vn 0.1068 0.5072 -0.8552
vn 0.2097 0.9459 -0.2477
vn -0.0166 0.1198 0.9927
vn 0.1871 0.8533 -0.4867
vn 0.5547 0.7932 -0.2511
vn 0.5033 0.7073 0.4964
vn 0.2895 0.4264 -0.8569
vn 0.1519 0.2325 -0.9606
vn 0.0809 0.0980 0.9919
vn 0.1632 0.2155 0.9628
vn 0.4976 0.7160 -0.4897
vn 0.5577 0.7887 0.2586
vn 0.2995 0.4112 0.8609
vn 0.4072 0.5911 -0.6963
vn 0.5752 0.8180 0.0039
vn 0.4154 0.5787 0.7018
vn 0.8445 0.5356 -0.0002
vn 0.4374 0.2666 0.8588
vn 0.6079 0.3768 0.6989
vn 0.4274 0.2818 -0.8590
vn 0.8151 0.5202 -0.2550
vn 0.7375 0.4616 0.4929
vn 0.2257 0.1552 -0.9618
vn 0.2369 0.1382 0.9616
vn 0.7318 0.4703 -0.4932
vn 0.8181 0.5157 0.2547
vn 0.5998 0.3892 -0.6992
vn 0.9511 0.1683 -0.2589
vn 0.8542 0.1537 -0.4968
vn 0.8599 0.1450 0.4894
vn 0.9541 0.1638 0.2507
vn 0.2642 0.0555 -0.9629
vn 0.5094 0.0803 0.8568
vn 0.7003 0.1290 -0.7021
vn 0.9851 0.1717 -0.0042
vn 0.7085 0.1166 0.6960
vn 0.4994 0.0955 -0.8611
vn 0.2755 0.0385 0.9605
vn 0.0343 0.1186 0.9923
vn -0.0227 -0.1361 0.9904
vt 0.047456 0.982862
vt 0.016002 0.981857
s 1
usemtl Atlas
f 2/1/1 14/1/2 3/1/3
f 99/1/4 9/1/5 20/1/6
f 178/1/7 10/1/8 11/1/9
f 6/1/10 18/1/11 7/1/12
f 4/1/13 14/1/2 15/1/14
f 178/1/7 12/1/15 1/1/16
f 7/1/12 19/1/17 8/1/18
f 5/1/19 15/1/14 16/1/20
f 1/1/16 13/1/21 2/1/1
f 9/1/5 19/1/17 20/1/6
f 177/2/22 21/2/23 10/2/8
f 6/1/10 16/1/20 17/1/24
f 19/1/17 30/1/25 31/1/26
f 16/1/20 27/1/27 28/1/28
f 13/1/21 24/1/29 25/1/30
f 20/1/6 31/1/26 32/1/31
f 10/2/8 21/2/23 184/2/32
f 16/1/20 29/1/33 17/1/24
f 13/1/21 26/1/34 14/1/2
f 99/1/4 20/1/6 32/1/31
f 10/1/8 23/1/35 11/1/9
f 18/1/11 29/1/33 30/1/25
f 15/1/14 26/1/34 27/1/27
f 11/1/9 24/1/29 12/1/15
f 23/1/35 33/1/36 34/1/37
f 30/1/25 40/1/38 41/1/39
f 26/1/34 38/1/40 27/1/27
f 23/1/35 35/1/41 24/1/29
f 31/1/26 41/1/39 42/1/42
f 27/1/27 39/1/43 28/1/28
f 24/1/29 36/1/44 25/1/30
f 31/1/26 43/1/45 32/1/31
f 184/1/32 33/1/36 22/1/46
f 28/1/28 40/1/38 29/1/33
f 25/1/30 37/1/47 26/1/34
f 99/1/4 32/1/31 43/1/45
f 43/1/45 53/1/48 54/1/49
f 183/1/50 44/1/51 33/1/36
f 40/1/38 50/1/52 51/1/53
f 36/1/44 48/1/54 37/1/47
f 99/1/4 43/1/45 54/1/49
f 33/1/36 45/1/55 34/1/37
f 40/1/38 52/1/56 41/1/39
f 38/1/40 48/1/54 49/1/57
f 34/1/37 46/1/58 35/1/41
f 42/1/42 52/1/56 53/1/48
f 39/1/43 49/1/57 50/1/52
f 36/1/44 46/1/58 47/1/59
f 45/1/55 57/1/60 46/1/58
f 53/1/48 63/1/61 64/1/62
f 50/1/52 60/1/63 61/1/64
f 47/1/59 57/1/60 58/1/65
f 53/1/48 65/1/66 54/1/49
f 44/1/51 186/1/67 55/1/68
f 51/1/53 61/1/64 62/1/69
f 48/1/54 58/1/65 59/1/70
f 99/1/4 54/1/49 65/1/66
f 44/1/51 56/1/71 45/1/55
f 51/1/53 63/1/61 52/1/56
f 48/1/54 60/1/63 49/1/57
f 99/1/4 65/1/66 76/1/72
f 55/1/68 67/1/73 56/1/71
f 63/1/61 73/1/74 74/1/75
f 59/1/70 71/1/76 60/1/63
f 57/1/60 67/1/73 68/1/77
f 64/1/62 74/1/75 75/1/78
f 61/1/64 71/1/76 72/1/79
f 57/1/60 69/1/80 58/1/65
f 65/1/66 75/1/78 76/1/72
f 55/1/68 186/1/67 66/1/81
f 61/1/64 73/1/74 62/1/69
f 59/1/70 69/1/80 70/1/82
f 68/1/77 80/1/83 69/1/80
f 76/1/72 86/1/84 87/1/85
f 66/2/81 21/2/23 77/2/86
f 72/1/79 84/1/87 73/1/74
f 70/1/82 80/1/83 81/1/88
f 99/1/4 76/1/72 87/1/85
f 67/1/73 66/1/81 78/1/89
f 74/1/75 84/1/87 85/1/90
f 70/1/82 82/1/91 71/1/76
f 67/1/73 79/1/92 68/1/77
f 74/1/75 86/1/84 75/1/78
f 72/1/79 82/1/91 83/1/93
f 79/1/92 89/1/94 90/1/95
f 86/1/84 96/1/96 97/1/97
f 82/1/91 94/1/98 83/1/93
f 79/1/92 91/1/99 80/1/83
f 87/1/85 97/1/97 98/1/100
f 77/2/86 21/2/23 88/2/101
f 84/1/87 94/1/98 95/1/102
f 80/1/83 92/1/103 81/1/88
f 99/1/4 87/1/85 98/1/100
f 78/2/89 88/2/101 89/2/94
f 85/1/90 95/1/102 96/1/96
f 82/1/91 92/1/103 93/1/104
f 92/1/103 103/1/105 104/1/106
f 99/1/4 98/1/100 110/1/107
f 89/1/94 100/1/108 101/1/109
f 95/1/102 108/1/110 96/1/96
f 93/1/104 104/1/106 105/1/111
f 90/1/95 101/1/109 102/1/112
f 96/1/96 109/1/113 97/1/97
f 94/1/98 105/1/111 106/1/114
f 90/1/95 103/1/105 91/1/99
f 98/1/100 109/1/113 110/1/107
f 88/2/101 21/2/23 100/2/108
f 94/1/98 107/1/115 95/1/102
f 103/1/105 113/1/116 114/1/117
f 109/1/113 121/1/118 110/1/107
f 100/2/108 21/2/23 180/2/119
f 106/1/114 118/1/120 107/1/115
f 104/1/106 114/1/117 115/1/121
f 99/1/4 110/1/107 121/1/118
f 101/1/109 111/1/122 112/1/123
f 108/1/110 118/1/120 119/1/124
f 104/1/106 116/1/125 105/1/111
f 102/1/112 112/1/123 113/1/116
f 109/1/113 119/1/124 120/1/126
f 106/1/114 116/1/125 117/1/127
f 115/1/121 127/1/128 116/1/125
f 112/1/123 124/1/129 113/1/116
f 120/1/126 130/1/130 131/1/131
f 116/1/125 128/1/132 117/1/127
f 113/1/116 125/1/133 114/1/117
f 121/1/118 131/1/131 132/1/134
f 180/1/119 122/1/135 111/1/122
f 117/1/127 129/1/136 118/1/120
f 114/1/117 126/1/137 115/1/121
f 99/1/4 121/1/118 132/1/134
f 111/1/122 123/1/138 112/1/123
f 118/1/120 130/1/130 119/1/124
f 126/1/137 136/1/139 137/1/140
f 99/1/4 132/1/134 143/1/141
f 123/1/138 133/1/142 134/1/143
f 129/1/136 141/1/144 130/1/130
f 127/1/128 137/1/140 138/1/145
f 124/1/129 134/1/143 135/1/146
f 131/1/131 141/1/144 142/1/147
f 128/1/132 138/1/145 139/1/148
f 125/1/133 135/1/146 136/1/139
f 131/1/131 143/1/141 132/1/134
f 182/1/149 133/1/142 122/1/135
f 129/1/136 139/1/148 140/1/150
f 138/1/145 150/1/151 139/1/148
f 135/1/146 147/1/152 136/1/139
f 143/1/141 153/1/153 154/1/154
f 133/1/142 181/1/155 144/1/156
f 140/1/150 150/1/151 151/1/157
f 136/1/139 148/1/158 137/1/140
f 99/1/4 143/1/141 154/1/154
f 134/1/143 144/1/156 145/1/159
f 140/1/150 152/1/160 141/1/144
f 137/1/140 149/1/161 138/1/145
f 134/1/143 146/1/162 135/1/146
f 141/1/144 153/1/153 142/1/147
f 148/1/158 160/1/163 149/1/161
f 146/1/162 156/1/164 157/1/165
f 152/1/160 164/1/166 153/1/153
f 149/1/161 161/1/167 150/1/151
f 146/1/162 158/1/168 147/1/152
f 153/1/153 165/1/169 154/1/154
f 144/1/156 181/1/155 155/1/170
f 151/1/157 161/1/167 162/1/171
f 148/1/158 158/1/168 159/1/172
f 99/1/4 154/1/154 165/1/169
f 145/1/159 155/1/170 156/1/164
f 151/1/157 163/1/173 152/1/160
f 162/1/171 172/1/174 173/1/175
f 159/1/172 169/1/176 170/1/177
f 99/1/4 165/1/169 176/1/178
f 156/1/164 155/1/170 167/1/179
f 163/1/173 173/1/175 174/1/180
f 160/1/163 170/1/177 171/1/181
f 156/1/164 168/1/182 157/1/165
f 164/1/166 174/1/180 175/1/183
f 160/1/163 172/1/174 161/1/167
f 157/1/165 169/1/176 158/1/168
f 165/1/169 175/1/183 176/1/178
f 171/1/181 5/1/19 172/1/174
f 168/1/182 2/1/1 169/1/176
f 176/1/178 8/1/18 9/1/5
f 166/2/184 21/2/23 177/2/22
f 173/1/175 5/1/19 6/1/10
f 169/1/176 3/1/3 170/1/177
f 99/1/4 176/1/178 9/1/5
f 167/2/179 177/2/22 178/2/7
f 174/1/180 6/1/10 7/1/12
f 171/1/181 3/1/3 4/1/13
f 167/1/179 1/1/16 168/1/182
f 174/1/180 8/1/18 175/1/183
f 179/2/185 182/2/149 21/2/23
f 100/2/108 89/2/94 88/2/101
f 182/2/149 180/2/119 21/2/23
f 155/2/170 21/2/23 166/2/184
f 181/2/155 179/2/185 21/2/23
f 167/2/179 155/2/170 166/2/184
f 180/1/119 111/1/122 100/1/108
f 155/2/170 181/2/155 21/2/23
f 184/1/32 22/1/46 10/1/8
f 10/2/8 178/2/7 177/2/22
f 185/2/186 183/2/50 21/2/23
f 78/2/89 66/2/81 77/2/86
f 66/2/81 186/2/67 21/2/23
f 183/2/50 184/2/32 21/2/23
f 186/2/67 185/2/186 21/2/23
f 2/1/1 13/1/21 14/1/2
f 6/1/10 17/1/24 18/1/11
f 4/1/13 3/1/3 14/1/2
f 178/1/7 11/1/9 12/1/15
f 7/1/12 18/1/11 19/1/17
f 5/1/19 4/1/13 15/1/14
f 1/1/16 12/1/15 13/1/21
f 9/1/5 8/1/18 19/1/17
f 6/1/10 5/1/19 16/1/20
f 19/1/17 18/1/11 30/1/25
f 16/1/20 15/1/14 27/1/27
f 13/1/21 12/1/15 24/1/29
f 20/1/6 19/1/17 31/1/26
f 16/1/20 28/1/28 29/1/33
f 13/1/21 25/1/30 26/1/34
f 10/1/8 22/1/46 23/1/35
f 18/1/11 17/1/24 29/1/33
f 15/1/14 14/1/2 26/1/34
f 11/1/9 23/1/35 24/1/29
f 23/1/35 22/1/46 33/1/36
f 30/1/25 29/1/33 40/1/38
f 26/1/34 37/1/47 38/1/40
f 23/1/35 34/1/37 35/1/41
f 31/1/26 30/1/25 41/1/39
f 27/1/27 38/1/40 39/1/43
f 24/1/29 35/1/41 36/1/44
f 31/1/26 42/1/42 43/1/45
f 184/1/32 183/1/50 33/1/36
f 28/1/28 39/1/43 40/1/38
f 25/1/30 36/1/44 37/1/47
f 43/1/45 42/1/42 53/1/48
f 183/1/50 185/1/186 44/1/51
f 40/1/38 39/1/43 50/1/52
f 36/1/44 47/1/59 48/1/54
f 33/1/36 44/1/51 45/1/55
f 40/1/38 51/1/53 52/1/56
f 38/1/40 37/1/47 48/1/54
f 34/1/37 45/1/55 46/1/58
f 42/1/42 41/1/39 52/1/56
f 39/1/43 38/1/40 49/1/57
f 36/1/44 35/1/41 46/1/58
f 45/1/55 56/1/71 57/1/60
f 53/1/48 52/1/56 63/1/61
f 50/1/52 49/1/57 60/1/63
f 47/1/59 46/1/58 57/1/60
f 53/1/48 64/1/62 65/1/66
f 44/1/51 185/1/186 186/1/67
f 51/1/53 50/1/52 61/1/64
f 48/1/54 47/1/59 58/1/65
f 44/1/51 55/1/68 56/1/71
f 51/1/53 62/1/69 63/1/61
f 48/1/54 59/1/70 60/1/63
f 55/1/68 66/1/81 67/1/73
f 63/1/61 62/1/69 73/1/74
f 59/1/70 70/1/82 71/1/76
f 57/1/60 56/1/71 67/1/73
f 64/1/62 63/1/61 74/1/75
f 61/1/64 60/1/63 71/1/76
f 57/1/60 68/1/77 69/1/80
f 65/1/66 64/1/62 75/1/78
f 61/1/64 72/1/79 73/1/74
f 59/1/70 58/1/65 69/1/80
f 68/1/77 79/1/92 80/1/83
f 76/1/72 75/1/78 86/1/84
f 72/1/79 83/1/93 84/1/87
f 70/1/82 69/1/80 80/1/83
f 74/1/75 73/1/74 84/1/87
f 70/1/82 81/1/88 82/1/91
f 67/1/73 78/1/89 79/1/92
f 74/1/75 85/1/90 86/1/84
f 72/1/79 71/1/76 82/1/91
f 79/1/92 78/1/89 89/1/94
f 86/1/84 85/1/90 96/1/96
f 82/1/91 93/1/104 94/1/98
f 79/1/92 90/1/95 91/1/99
f 87/1/85 86/1/84 97/1/97
f 84/1/87 83/1/93 94/1/98
f 80/1/83 91/1/99 92/1/103
f 78/2/89 77/2/86 88/2/101
f 85/1/90 84/1/87 95/1/102
f 82/1/91 81/1/88 92/1/103
f 92/1/103 91/1/99 103/1/105
f 95/1/102 107/1/115 108/1/110
f 93/1/104 92/1/103 104/1/106
f 90/1/95 89/1/94 101/1/109
f 96/1/96 108/1/110 109/1/113
f 94/1/98 93/1/104 105/1/111
f 90/1/95 102/1/112 103/1/105
f 98/1/100 97/1/97 109/1/113
f 94/1/98 106/1/114 107/1/115
f 103/1/105 102/1/112 113/1/116
f 109/1/113 120/1/126 121/1/118
f 106/1/114 117/1/127 118/1/120
f 104/1/106 103/1/105 114/1/117
f 101/1/109 100/1/108 111/1/122
f 108/1/110 107/1/115 118/1/120
f 104/1/106 115/1/121 116/1/125
f 102/1/112 101/1/109 112/1/123
f 109/1/113 108/1/110 119/1/124
f 106/1/114 105/1/111 116/1/125
f 115/1/121 126/1/137 127/1/128
f 112/1/123 123/1/138 124/1/129
f 120/1/126 119/1/124 130/1/130
f 116/1/125 127/1/128 128/1/132
f 113/1/116 124/1/129 125/1/133
f 121/1/118 120/1/126 131/1/131
f 180/1/119 182/1/149 122/1/135
f 117/1/127 128/1/132 129/1/136
f 114/1/117 125/1/133 126/1/137
f 111/1/122 122/1/135 123/1/138
f 118/1/120 129/1/136 130/1/130
f 126/1/137 125/1/133 136/1/139
f 123/1/138 122/1/135 133/1/142
f 129/1/136 140/1/150 141/1/144
f 127/1/128 126/1/137 137/1/140
f 124/1/129 123/1/138 134/1/143
f 131/1/131 130/1/130 141/1/144
f 128/1/132 127/1/128 138/1/145
f 125/1/133 124/1/129 135/1/146
f 131/1/131 142/1/147 143/1/141
f 182/1/149 179/1/185 133/1/142
f 129/1/136 128/1/132 139/1/148
f 138/1/145 149/1/161 150/1/151
f 135/1/146 146/1/162 147/1/152
f 143/1/141 142/1/147 153/1/153
f 133/1/142 179/1/185 181/1/155
f 140/1/150 139/1/148 150/1/151
f 136/1/139 147/1/152 148/1/158
f 134/1/143 133/1/142 144/1/156
f 140/1/150 151/1/157 152/1/160
f 137/1/140 148/1/158 149/1/161
f 134/1/143 145/1/159 146/1/162
f 141/1/144 152/1/160 153/1/153
f 148/1/158 159/1/172 160/1/163
f 146/1/162 145/1/159 156/1/164
f 152/1/160 163/1/173 164/1/166
f 149/1/161 160/1/163 161/1/167
f 146/1/162 157/1/165 158/1/168
f 153/1/153 164/1/166 165/1/169
f 151/1/157 150/1/151 161/1/167
f 148/1/158 147/1/152 158/1/168
f 145/1/159 144/1/156 155/1/170
f 151/1/157 162/1/171 163/1/173
f 162/1/171 161/1/167 172/1/174
f 159/1/172 158/1/168 169/1/176
f 163/1/173 162/1/171 173/1/175
f 160/1/163 159/1/172 170/1/177
f 156/1/164 167/1/179 168/1/182
f 164/1/166 163/1/173 174/1/180
f 160/1/163 171/1/181 172/1/174
f 157/1/165 168/1/182 169/1/176
f 165/1/169 164/1/166 175/1/183
f 171/1/181 4/1/13 5/1/19
f 168/1/182 1/1/16 2/1/1
f 176/1/178 175/1/183 8/1/18
f 173/1/175 172/1/174 5/1/19
f 169/1/176 2/1/1 3/1/3
f 167/2/179 166/2/184 177/2/22
f 174/1/180 173/1/175 6/1/10
f 171/1/181 170/1/177 3/1/3
f 167/1/179 178/1/7 1/1/16
f 174/1/180 7/1/12 8/1/18
o Alien_Blob_Cube.144
v 0.880558 1.623770 -0.757081
v 0.170330 1.670469 -1.072970
v 0.447566 0.086815 -0.027484
v 0.389115 0.467836 -1.093267
v 0.045615 0.027262 0.185350
v 0.836626 0.434916 -0.589060
v 0.658772 0.440278 -0.868605
v 0.844406 0.610160 -0.801426
v 0.742094 2.332787 -0.078809
v 0.761003 1.963785 -0.469720
v -0.002613 2.123521 -0.658774
v -0.019027 2.157989 -0.105927
v 0.761415 2.115342 0.390878
v 1.064572 2.396752 -0.226501
v 1.102875 2.672678 0.576465
v 1.115842 2.091858 0.233801
v 0.667405 2.236039 0.205607
v 1.180790 2.128664 -0.070152
v 0.586142 3.243971 0.544594
v 0.549072 2.998875 0.533673
v 1.279363 2.531051 -0.022525
v 0.914048 2.753002 0.191715
v 1.238765 2.437323 0.355393
v 0.897894 2.667299 0.423728
v 1.133828 3.049683 0.475881
v 0.853367 2.892412 0.320434
v 1.116304 3.116027 0.142399
v 1.094493 2.943223 0.057003
v 0.994071 3.055334 0.598698
v 0.888426 2.934474 0.545664
v 1.300320 1.086817 -0.221947
v 0.706571 2.976871 0.329785
v 0.517540 3.290219 0.144953
v 0.618983 3.200919 0.074147
v 0.178718 2.891771 0.192274
v 0.281463 2.894045 0.107760
v 0.428375 2.851022 0.458353
v 0.396609 3.074115 0.577080
v 0.248646 2.946439 0.458928
v 0.429141 2.874425 0.315023
v 0.515819 2.583108 0.439535
v 0.473739 2.717791 0.302282
v 0.438035 2.550486 0.264726
v 0.420820 2.644395 0.191554
v 0.715597 2.606586 0.276174
v 0.692601 2.664770 0.395631
v 0.729373 2.752466 0.291381
v 0.719323 2.769150 0.368397
v 1.535138 1.140987 -0.157285
v 1.329454 1.410601 -0.133297
v 1.769297 1.312981 0.041838
v 1.305152 1.266652 -0.270065
v 1.535833 1.320731 0.024784
v 1.935553 0.898502 0.115178
v 1.748415 1.062533 -0.125878
v 1.765476 0.719003 0.130863
v 1.882902 1.027973 -0.165875
v 1.871975 1.026136 0.122369
v 1.489589 0.640664 0.129818
v 1.718322 0.814036 0.021551
v 1.694345 0.596729 0.112598
v 1.763888 0.733781 -0.158188
v 1.310119 0.812223 -0.030634
v 1.522917 0.770567 0.032641
v 1.442520 0.622738 -0.061463
v 1.538543 0.712269 -0.124124
v 1.412583 0.984756 0.011498
v 1.415103 0.972563 0.056657
v 0.306129 1.376321 0.147022
v 0.327833 1.139109 0.180673
v 0.168673 0.867917 0.519468
v 0.369164 1.785618 0.292086
v 0.594909 1.952274 -0.729825
v 0.063110 0.511578 -1.224866
v 0.645947 1.646910 -0.907522
v 0.598267 0.938548 -1.089652
v 0.261428 0.749392 -1.242151
v 0.866294 1.728244 -0.247689
v 0.400329 1.980860 0.132512
v 0.614585 1.651532 0.163640
v 0.494146 2.088687 -0.242624
v 0.955551 0.769490 -0.339283
v 0.988247 1.341567 -0.331481
v 1.011425 1.141800 -0.565889
v 0.940909 0.992556 -0.116236
v 0.320297 0.183286 -0.810609
v 0.365766 0.112694 -0.605179
v 0.411629 0.059810 -0.225325
v 0.259746 1.090607 0.146831
v 0.257973 1.596097 0.437067
v 0.281111 0.900321 0.507837
v 0.030456 0.789443 0.673650
v 0.395223 1.052393 0.421788
v 0.384923 1.440511 0.376912
v -0.880891 1.620548 -0.755290
v -0.047782 1.687713 -1.101110
v -0.502581 0.116026 -0.136982
v -0.298565 0.463407 -1.135621
v -0.688427 0.292009 -0.539140
v -0.416962 0.212086 0.186430
v -0.873501 0.576350 -0.722912
v -0.705094 2.277415 -0.026381
v -0.768353 1.943573 -0.471539
v -0.025417 2.064378 0.178079
v -0.006765 1.788156 0.565263
v -0.693399 1.783685 -0.821882
v -1.082707 2.364699 -0.230740
v -1.127089 2.649332 0.578061
v -1.128048 2.069425 0.248342
v -0.662987 2.141365 0.260224
v -1.203623 2.105592 -0.054246
v -0.638927 3.228096 0.545202
v -0.573150 2.944856 0.461266
v -1.339251 2.674442 0.201039
v -0.947241 2.720614 0.156517
v -1.251101 2.408068 0.374117
v -0.920590 2.627919 0.421965
v -1.151911 2.994580 0.544877
v -0.885330 2.879318 0.300921
v -1.151512 3.092843 0.149828
v -1.123629 2.915105 0.055111
v -0.981263 3.047157 0.600701
v -0.987387 1.333798 -0.332649
v -1.297394 1.079134 -0.221739
v -0.705045 2.994168 0.230141
v -0.554154 3.274911 0.151147
v -0.675061 3.188554 0.073925
v -0.478859 3.100071 0.584863
v -0.213005 2.885773 0.198633
v -0.277296 2.929696 0.103791
v -0.425687 2.851566 0.506538
v -0.322355 2.933206 0.521020
v -0.470897 2.823485 0.371432
v -0.537907 2.696112 0.375726
v -0.478803 2.611115 0.455639
v -0.465275 2.538211 0.267970
v -0.438650 2.635384 0.189303
v -0.746404 2.601182 0.292874
v -0.660136 2.531902 0.251200
v -0.707623 2.640276 0.406426
v -0.758527 2.718030 0.283348
v -0.747761 2.754125 0.358750
v -1.518347 1.134639 -0.054278
v -1.522791 1.409011 -0.087238
v -1.303752 1.255806 -0.269771
v -1.530858 1.305955 0.024528
v -1.931792 0.887901 0.116406
v -1.892456 1.005816 -0.159064
v -1.739865 1.058689 -0.001220
v -1.752259 0.751020 0.116528
v -1.789351 0.776186 -0.160828
v -1.866640 1.012021 0.121777
v -1.774439 0.926098 0.019929
v -1.498877 0.711422 0.109215
v -1.707168 0.797178 -0.111551
v -1.687683 0.585602 0.112650
v -1.314010 0.840624 0.099081
v -1.511717 0.759252 -0.078985
v -1.328617 0.715155 -0.048506
v -1.499259 0.680213 -0.123437
v -1.416185 0.982494 0.037143
v -0.007757 0.627114 0.648461
v -0.174263 0.826590 0.608396
v -0.104507 0.977212 0.201660
v -0.015708 1.945705 -0.927513
v -0.286735 1.846090 0.280291
v -0.545372 1.992758 -0.679841
v -0.347574 0.063146 0.075010
v -0.672595 1.069904 -1.045955
v -0.868724 1.709124 -0.250127
v -0.414885 2.021223 0.031942
v -0.612056 1.632108 0.165477
v -0.392171 1.788736 0.294058
v -0.501126 2.075448 -0.235396
v -0.952154 0.766125 -0.344146
v -1.014128 1.143691 -0.558582
v -0.935435 0.989247 -0.115330
v -0.063618 0.322179 -1.046237
v -0.215695 0.022345 -0.070575
v -0.302383 1.114225 0.149982
v -0.253855 1.606256 0.452311
v -0.381828 1.008823 0.429079
v -0.382890 1.445802 0.385761
v 0.676046 0.619394 -1.002681
v 0.649757 0.293313 -0.110140
v -0.005252 0.140806 0.346996
v 0.001068 0.747919 -1.275976
v 0.854211 1.272061 -0.906256
v 0.134353 0.697417 0.610876
v 0.880441 1.829669 -0.398594
v 1.054652 2.203891 0.421722
v 1.252525 2.867291 0.106030
v 1.247371 2.749839 0.442251
v 0.959258 2.591167 0.521751
v 0.932148 2.512368 -0.132213
v 0.958040 2.930825 0.103004
v 0.917413 3.237977 0.473543
v 0.835758 3.296198 0.145169
v 0.965994 1.218145 -0.173096
v 1.239293 1.354582 -0.271631
v 1.011109 0.905428 -0.515877
v 0.322557 3.171233 0.470628
v 0.224541 3.126892 0.156922
v 0.636772 3.081730 0.109506
v 0.350907 2.728010 0.485310
v 0.280745 2.661911 0.239603
v 0.591030 2.627851 0.241527
v 0.608103 2.535269 0.278430
v 0.541999 2.672532 0.387576
v 1.416074 1.404904 -0.021490
v 1.400105 1.186642 -0.046165
v 1.589426 1.395034 -0.152983
v 1.914501 1.148816 0.094330
v 1.881357 1.179514 -0.138552
v 1.789030 1.029078 0.032175
v 1.851716 0.689262 0.115052
v 1.782659 0.868445 -0.139127
v 1.794021 0.666361 -0.118723
v 1.319245 0.840128 0.102370
v 1.392694 0.816209 -0.083360
v 0.426411 0.222152 0.182361
v -0.006441 2.175557 -0.468455
v 0.632443 2.073742 -0.417844
v 1.155120 2.209836 -0.228871
v 0.440516 1.662222 0.318893
v 0.422379 2.055486 -0.042962
v 0.778328 1.676522 -0.047148
v 0.911234 0.798725 -0.158036
v 0.999008 1.331896 -0.500543
v -0.040086 1.527188 0.187677
v -0.669279 0.548210 -0.983434
v -0.857036 1.284917 -0.898057
v -0.762687 0.371297 -0.291822
v -0.662298 2.059719 -0.408801
v -0.883363 1.806918 -0.399783
v -1.057949 2.155472 0.414036
v -0.786017 2.090574 0.395301
v -1.273553 2.718837 0.453481
v -0.981739 2.550806 0.518016
v -1.022735 2.775289 0.049894
v -1.300972 2.712083 0.046921
v -0.920586 2.980019 0.110560
v -0.954660 3.211006 0.485656
v -0.890925 3.274549 0.151212
v -0.826621 2.925662 0.465106
v -1.262253 1.098361 -0.074861
v -0.963091 1.206582 -0.169993
v -1.238503 1.346913 -0.270781
v -1.011825 0.904726 -0.509210
v -0.368202 3.158900 0.481585
v -0.265730 3.127620 0.162236
v -0.603634 3.021684 0.560839
v -0.672800 3.066329 0.108465
v -0.338201 2.711124 0.436025
v -0.305364 2.656478 0.244802
v -0.382829 2.877006 0.141577
v -0.619509 2.614189 0.242852
v -0.592922 2.572986 0.428607
v -0.591584 2.659793 0.388852
v -1.404276 1.397575 -0.026716
v -1.518257 1.155778 -0.186228
v -1.703571 1.350089 -0.148423
v -1.909035 1.138661 -0.106068
v -1.880715 1.175606 0.100831
v -1.755450 1.069604 -0.148723
v -1.844499 0.676428 0.115502
v -1.508624 0.591784 -0.064988
v -1.787004 0.653462 -0.118321
v -1.472276 0.613481 0.118245
v -0.240891 0.734896 -1.247005
v -1.180810 2.201153 -0.217773
v -0.513239 1.735342 0.327796
v -0.774664 1.654869 -0.040631
v -0.902070 0.793127 -0.155980
v -0.993963 1.329768 -0.500286
v -0.349220 0.128368 -0.693923
v -0.299685 1.359715 0.137867
v 0.038409 1.689054 0.565291
v 1.434009 0.839945 0.032541
v 0.168803 2.001259 0.186455
v -0.942629 2.888945 0.551203
v -1.429390 0.828443 0.033994
v -1.357784 0.862739 -0.063443
vn 0.6033 -0.3005 -0.7387
vn 0.2811 -0.0534 -0.9582
vn 0.4685 0.0449 -0.8823
vn 0.8433 0.0110 -0.5374
vn 0.8209 -0.3236 -0.4705
vn 0.7101 0.1029 -0.6966
vn 0.7859 0.3601 -0.5027
vn 0.6977 -0.4495 0.5579
vn 0.3175 -0.0962 0.9434
vn 0.0850 0.2742 0.9579
vn 0.6792 -0.3188 0.6611
vn 0.8435 -0.2935 0.4498
vn 0.5532 0.7973 0.2416
vn 0.9683 -0.1960 0.1547
vn 0.8627 0.3892 -0.3230
vn 0.0323 -0.7149 0.6985
vn -0.1728 0.1256 0.9769
vn -0.1595 0.7541 0.6371
vn 0.3551 -0.5341 -0.7672
vn 0.5618 -0.6458 -0.5170
vn 0.0969 -0.9229 0.3726
vn -0.1267 -0.9916 -0.0269
vn 0.3548 -0.9327 -0.0651
vn 0.7939 -0.5904 -0.1454
vn 0.7933 -0.5292 0.3011
vn 0.5193 -0.8149 0.2575
vn 0.8309 -0.5472 0.1005
vn 0.8775 -0.3045 -0.3706
vn 0.5364 0.5319 -0.6552
vn 0.9276 0.0737 -0.3663
vn 0.4002 0.7140 -0.5745
vn 0.0670 0.8617 -0.5030
vn -0.1936 0.9772 -0.0871
vn -0.7324 0.6494 -0.2045
vn -0.2550 0.9432 0.2130
vn -0.8031 0.4990 0.3256
vn -0.4586 0.5547 -0.6942
vn 0.2415 0.4066 -0.8811
vn 0.7603 -0.0690 -0.6459
vn -0.0203 0.9813 0.1914
vn -0.0111 0.9933 -0.1151
vn -0.0465 0.4324 0.9005
vn 0.0977 0.5017 0.8595
vn 0.2766 0.7811 0.5598
vn -0.4146 0.0819 0.9063
vn 0.4450 0.0113 0.8954
vn 0.4145 -0.4470 0.7927
vn 0.1600 0.3528 -0.9219
vn 0.8543 0.3548 -0.3800
vn 0.9159 0.0746 -0.3944
vn -0.5449 -0.0759 0.8350
vn 0.2867 -0.1301 0.9491
vn 0.7623 -0.5579 0.3281
vn -0.2776 0.7782 0.5633
vn 0.9058 -0.4176 -0.0715
vn 0.0824 -0.7496 0.6567
vn -0.1315 -0.9824 -0.1325
vn -0.4549 -0.4386 0.7751
vn 0.8957 0.0760 0.4380
vn 0.8870 -0.2685 0.3757
vn -0.9654 0.1671 -0.2003
vn -0.9545 0.0341 0.2964
vn -0.5981 -0.2026 -0.7753
vn 0.2750 0.2431 0.9302
vn 0.7700 0.4795 0.4210
vn -0.8223 -0.5561 -0.1210
vn 0.6365 0.6379 -0.4335
vn 0.3536 0.8436 0.4042
vn -0.0479 0.2306 -0.9719
vn 0.2357 0.8596 -0.4534
vn 0.6669 -0.6596 -0.3466
vn 0.4713 0.0533 -0.8803
vn 0.2732 0.7462 -0.6070
vn 0.2815 0.4184 0.8635
vn -0.1505 0.9885 -0.0152
vn 0.8622 -0.4140 -0.2918
vn 0.0094 -0.5803 -0.8143
vn -0.1039 0.7546 0.6479
vn -0.2497 0.8703 -0.4245
vn -0.6447 0.6330 0.4285
vn -0.1418 -0.2633 -0.9542
vn -0.7499 0.4827 -0.4524
vn -0.3182 0.0554 0.9464
vn -0.8491 -0.0415 0.5265
vn -0.9495 -0.1622 -0.2685
vn -0.3225 -0.4367 0.8398
vn -0.7297 -0.6444 -0.2289
vn 0.8139 -0.2699 0.5145
vn 0.1458 -0.2033 -0.9682
vn 0.2792 0.8201 0.4994
vn 0.7257 0.5723 -0.3820
vn 0.1946 0.5221 -0.8304
vn 0.0264 -0.5493 0.8352
vn -0.3293 -0.9135 -0.2389
vn 0.7788 -0.4966 -0.3832
vn 0.3208 -0.9060 -0.2760
vn 0.5113 0.7063 -0.4896
vn 0.4286 0.8275 0.3628
vn 0.6039 -0.2463 0.7580
vn -0.2193 -0.9532 -0.2081
vn 0.3154 0.8251 -0.4687
vn 0.7079 0.3896 0.5892
vn 0.7328 0.3994 -0.5509
vn 0.3909 0.7497 0.5340
vn 0.8340 -0.1343 0.5352
vn 0.4884 -0.6749 -0.5532
vn 0.5996 -0.0944 -0.7947
vn -0.8286 -0.3074 0.4680
vn -0.1480 0.0714 0.9864
vn -0.5475 -0.7897 -0.2766
vn -0.0989 0.1232 0.9874
vn 0.1957 0.9197 0.3404
vn -0.3488 -0.4222 0.8368
vn 0.1675 -0.8413 0.5140
vn -0.6492 0.6870 0.3263
vn -0.6946 0.2977 -0.6549
vn 0.8286 0.4576 0.3224
vn -0.6342 0.1312 0.7620
vn -0.1773 0.1840 -0.9668
vn -0.4874 -0.7684 -0.4147
vn 0.6672 -0.5239 0.5294
vn 0.1127 -0.2075 -0.9717
vn -0.9233 -0.0333 -0.3827
vn 0.1897 0.9292 -0.3170
vn -0.0459 0.3553 -0.9336
vn 0.3007 0.7411 0.6002
vn 0.0012 -0.6598 0.7514
vn 0.5344 -0.2193 0.8163
vn -0.0558 -0.3684 0.9280
vn -0.7761 0.2619 0.5736
vn -0.1381 -0.1760 0.9747
vn -0.5402 -0.3205 0.7781
vn 0.5110 0.3438 0.7878
vn -0.3366 0.4791 0.8106
vn -0.1643 0.9160 0.3659
vn 0.2302 0.3784 -0.8965
vn -0.0118 0.7014 -0.7127
vn -0.0512 0.8721 0.4867
vn -0.0016 0.9118 -0.4106
vn 0.5912 -0.4983 0.6342
vn 0.0731 -0.4709 -0.8791
vn 0.4124 0.3774 -0.8292
vn -0.0423 -0.7677 -0.6394
vn 0.2527 -0.8390 -0.4818
vn 0.2962 -0.9175 -0.2653
vn 0.0401 -0.6933 0.7195
vn 0.5523 -0.2691 0.7890
vn 0.1381 -0.0948 0.9859
vn -0.0156 0.8967 0.4424
vn -0.2696 -0.0746 -0.9601
vn -0.6025 -0.4180 -0.6799
vn -0.4978 0.0647 -0.8649
vn -0.8465 -0.4082 -0.3417
vn -0.8414 0.0133 -0.5403
vn -0.7181 0.1129 -0.6868
vn -0.8022 0.3463 -0.4864
vn -0.3218 -0.0947 0.9421
vn -0.6989 -0.4416 0.5626
vn -0.2060 0.3216 0.9242
vn -0.6828 -0.3126 0.6604
vn -0.5423 0.8017 0.2515
vn -0.8369 -0.3048 0.4547
vn -0.9651 -0.2125 0.1529
vn -0.8699 0.3932 -0.2977
vn -0.2756 0.4143 0.8674
vn 0.1797 0.7616 0.6227
vn 0.1595 0.1048 0.9816
vn -0.4216 -0.8415 0.3380
vn -0.6208 -0.4793 0.6204
vn -0.5799 -0.8068 0.1127
vn -0.2735 -0.8920 -0.3599
vn -0.6577 -0.7257 -0.2020
vn -0.8327 -0.5478 0.0809
vn -0.8217 -0.5393 0.1840
vn -0.5501 0.5185 -0.6546
vn -0.3461 0.7945 -0.4989
vn -0.4869 0.5250 -0.6981
vn 0.1365 0.9888 -0.0599
vn -0.0532 0.8469 -0.5291
vn 0.7746 0.6286 -0.0700
vn 0.2190 0.8960 0.3862
vn -0.9323 0.0614 -0.3565
vn -0.7831 -0.0646 -0.6186
vn -0.2641 0.4019 -0.8768
vn -0.3567 0.6466 0.6743
vn 0.0346 0.4730 0.8804
vn 0.7264 0.4989 0.4727
vn 0.3427 0.0163 0.9393
vn -0.1794 -0.1679 0.9693
vn -0.8150 0.2614 -0.5172
vn -0.1299 0.3346 -0.9334
vn 0.6473 0.3381 -0.6832
vn 0.5566 -0.0525 0.8291
vn -0.2537 -0.1595 0.9540
vn -0.3936 -0.4659 0.7925
vn -0.7430 -0.5731 0.3456
vn -0.9022 -0.4246 -0.0759
vn 0.0698 0.7816 0.6199
vn 0.2569 0.1783 0.9498
vn 0.6397 0.6286 0.4423
vn -0.0000 -0.5496 0.8355
vn 0.3346 -0.9389 0.0804
vn -0.3794 -0.8981 0.2224
vn -0.9975 0.0695 0.0127
vn -0.8550 -0.3301 0.3999
vn 0.9195 0.2902 -0.2652
vn -0.8743 0.0550 0.4823
vn 0.9464 0.0841 0.3119
vn -0.6924 0.3913 0.6062
vn -0.1560 0.2209 0.9627
vn -0.3800 0.8210 0.4261
vn 0.8178 -0.5536 -0.1573
vn 0.4854 -0.5340 -0.6923
vn 0.0320 -0.9426 -0.3323
vn -0.6817 0.6176 -0.3923
vn -0.2731 0.8598 -0.4314
vn 0.0317 0.2589 -0.9654
vn 0.5194 -0.3881 0.7613
vn -0.6060 -0.7098 -0.3590
vn -0.4524 0.0343 -0.8912
vn -0.2047 -0.7203 0.6628
vn -0.0518 -0.5232 -0.8506
vn -0.4642 -0.3495 -0.8139
vn 0.2361 0.8815 -0.4089
vn 0.7439 0.5412 -0.3920
vn 0.4356 -0.1112 -0.8932
vn 0.6657 -0.0666 0.7433
vn 0.9765 -0.1281 -0.1731
vn 0.6900 -0.4658 0.5540
vn 0.7416 -0.6265 -0.2396
vn -0.1419 -0.2247 -0.9640
vn -0.3089 -0.3387 0.8887
vn -0.9853 -0.0488 -0.1636
vn -0.7428 0.6539 0.1436
vn -0.1623 0.4738 -0.8656
vn 0.0505 -0.5049 0.8617
vn 0.3237 -0.9246 -0.2010
vn -0.1924 -0.5262 0.8283
vn -0.3968 -0.7774 -0.4882
vn -0.1248 0.8202 0.5583
vn -0.4992 -0.1631 0.8510
vn -0.8432 -0.5039 -0.1873
vn -0.5908 0.5684 -0.5726
vn -0.4206 0.8599 0.2894
vn 0.1191 -0.9527 -0.2797
vn 0.1401 -0.8446 0.5167
vn -0.2981 0.9147 0.2729
vn -0.4557 0.7832 -0.4230
vn -0.8498 0.3567 -0.3881
vn -0.5557 0.4865 0.6741
vn -0.8016 -0.1504 0.5786
vn -0.6510 -0.0725 -0.7556
vn -0.4816 -0.6524 -0.5852
vn -0.6280 -0.5072 0.5902
vn 0.6041 -0.7948 -0.0570
vn 0.1897 0.0347 0.9812
vn 0.7641 -0.5466 0.3428
vn 0.2877 0.3119 0.9055
vn -0.1705 -0.7771 0.6059
vn -0.1381 0.4754 0.8688
vn 0.9384 0.1116 0.3271
vn -0.0787 -0.0216 -0.9967
vn 0.3654 0.8358 -0.4098
vn 0.3385 -0.6240 0.7043
vn 0.6715 0.2762 0.6877
vn -0.1391 0.8647 -0.4827
vn 0.2246 -0.1500 -0.9628
vn 0.8398 -0.3804 -0.3874
vn 0.3390 0.5882 -0.7342
vn -0.3161 0.9421 0.1117
vn -0.7564 0.5789 0.3045
vn 0.2390 -0.8768 -0.4172
vn 0.5696 0.3294 0.7531
vn 0.0064 -0.2176 0.9760
vn -0.3789 0.3905 0.8390
vn 0.1055 0.7487 0.6545
vn -0.2550 -0.2931 0.9215
vn -0.3031 -0.5383 -0.7864
vn -0.0790 0.3843 -0.9198
vn 0.1821 -0.3551 0.9169
vn -0.0016 -0.0119 -0.9999
vn 0.1876 -0.4043 0.8952
vn -0.8729 -0.3147 -0.3728
vn -0.2457 0.9480 0.2023
vt 0.078722 0.984322
vt 0.078722 0.984322
vt 0.078722 0.984322
vt 0.078722 0.984322
vt 0.078722 0.984322
vt 0.110024 0.984747
vt 0.110024 0.984747
vt 0.110024 0.984747
vt 0.110024 0.984747
vt 0.110024 0.984747
vt 0.110024 0.984747
vt 0.110024 0.984747
vt 0.110024 0.984747
vt 0.110024 0.984747
vt 0.078722 0.984322
vt 0.078722 0.984322
vt 0.078722 0.984322
vt 0.078722 0.984322
s 1
usemtl Atlas
f 370/3/187 263/4/188 262/5/189
f 270/3/190 194/4/191 374/4/192
f 187/6/193 270/3/190 374/4/192
f 414/4/194 271/4/195 279/5/196
f 271/4/195 266/6/197 279/5/196
f 413/6/198 269/7/199 264/6/200
f 269/7/199 415/3/201 264/6/200
f 271/8/195 397/8/202 239/9/203
f 239/9/203 396/10/204 271/8/195
f 190/3/205 263/4/188 370/3/187
f 370/3/187 193/5/206 190/3/205
f 191/4/207 365/4/208 274/4/209
f 192/3/210 371/3/211 189/4/212
f 193/5/206 370/3/187 194/4/191
f 194/4/191 192/3/210 193/5/206
f 268/3/213 414/4/194 371/3/211
f 371/3/211 192/3/210 268/3/213
f 194/4/191 387/4/214 192/3/210
f 196/6/215 376/6/216 187/6/193
f 187/6/193 259/6/217 196/6/215
f 409/11/218 267/11/219 195/12/220
f 195/12/220 412/11/221 203/11/222
f 195/12/220 381/12/223 409/11/218
f 196/11/215 381/12/223 200/11/224
f 200/11/224 410/10/225 196/11/215
f 198/6/226 412/6/221 267/4/219
f 267/4/219 408/4/227 198/6/226
f 291/6/228 258/3/229 466/4/230
f 199/9/231 411/11/232 377/13/233
f 381/12/223 214/10/234 200/11/224
f 200/11/224 378/14/235 207/11/236
f 380/15/237 199/9/231 201/11/238
f 377/13/233 266/11/197 202/12/239
f 203/11/222 265/13/240 199/9/231
f 202/12/239 264/11/200 204/10/241
f 204/10/241 376/11/216 410/10/225
f 206/9/242 218/14/243 216/10/244
f 207/11/236 202/12/239 204/10/241
f 207/11/236 379/13/245 209/9/246
f 381/12/223 195/12/220 208/12/247
f 208/12/247 203/11/222 210/10/248
f 208/12/247 382/10/249 381/12/223
f 377/13/233 202/12/239 209/9/246
f 209/9/246 201/11/238 377/13/233
f 210/10/248 199/9/231 380/15/237
f 215/13/250 379/13/245 211/11/251
f 212/12/252 382/10/249 208/12/247
f 218/14/243 382/10/249 212/12/252
f 211/11/251 378/14/235 213/9/253
f 213/9/253 383/8/254 211/11/251
f 382/10/249 220/11/255 214/10/234
f 214/10/234 384/12/256 213/9/253
f 216/10/244 201/11/238 215/13/250
f 217/11/257 270/11/190 238/10/258
f 238/10/258 415/11/201 386/11/259
f 269/12/199 385/11/260 396/10/204
f 396/10/204 236/11/261 269/12/199
f 217/11/257 414/11/194 268/11/213
f 226/16/262 390/11/263 218/14/243
f 205/14/264 384/12/256 219/12/265
f 219/12/265 388/11/266 205/14/264
f 390/11/263 222/12/267 220/11/255
f 220/11/255 389/11/268 219/12/265
f 205/14/264 224/9/269 215/13/250
f 225/9/270 389/11/268 221/11/271
f 221/11/271 391/9/272 225/9/270
f 222/12/267 392/8/273 221/11/271
f 223/8/274 226/16/262 206/9/242
f 391/9/272 223/8/274 224/9/269
f 224/9/269 388/11/266 225/9/270
f 225/9/270 391/9/272 224/9/269
f 226/16/262 230/12/275 222/12/267
f 395/16/276 228/10/277 223/8/274
f 228/10/277 395/16/276 393/11/278
f 393/11/278 230/12/275 228/10/277
f 227/15/279 392/8/273 229/11/280
f 230/12/275 393/11/278 231/8/281
f 230/12/275 394/12/282 229/11/280
f 231/8/281 393/11/278 233/13/283
f 234/10/284 395/16/276 227/15/279
f 227/15/279 232/15/285 234/10/284
f 232/15/285 227/15/279 231/8/281
f 393/11/278 234/10/284 233/13/283
f 232/15/285 231/8/281 234/10/284
f 231/8/281 233/13/283 234/10/284
f 235/16/286 397/8/202 217/11/257
f 396/10/204 398/13/287 236/11/261
f 399/11/288 400/15/289 237/11/290
f 238/10/258 386/11/259 398/13/287
f 240/11/291 404/11/292 243/8/293
f 240/11/291 400/15/289 399/11/288
f 238/10/258 400/15/289 243/8/293
f 243/8/293 235/16/286 238/10/258
f 239/9/203 397/8/202 401/12/294
f 401/12/294 244/9/295 239/9/203
f 239/9/203 399/11/288 237/11/290
f 241/8/296 397/8/202 235/16/286
f 242/11/297 250/13/298 245/12/299
f 245/12/299 247/10/300 242/11/297
f 244/9/295 246/12/301 242/11/297
f 242/11/297 240/11/291 244/9/295
f 241/8/296 403/11/302 401/12/294
f 403/11/302 246/12/301 401/12/294
f 245/12/299 465/11/303 405/15/304
f 246/12/301 403/11/302 252/12/305
f 246/12/301 252/12/305 250/13/298
f 247/10/300 245/12/299 251/14/306
f 247/10/300 251/14/306 404/11/292
f 404/11/292 402/11/307 247/10/300
f 404/11/292 252/12/305 248/13/308
f 249/14/309 405/15/304 253/13/310
f 250/13/298 406/8/311 465/11/303
f 251/14/306 405/15/304 249/14/309
f 251/14/306 406/8/311 252/12/305
f 465/11/303 253/13/310 254/14/312
f 372/4/313 375/6/314 348/3/315
f 256/6/316 280/3/317 255/3/318
f 277/4/319 279/5/196 256/6/316
f 256/6/316 275/3/320 277/4/319
f 277/4/319 275/3/320 257/3/321
f 259/6/217 188/4/322 351/4/323
f 258/3/229 291/6/228 411/3/232
f 258/3/229 265/6/240 466/4/230
f 265/6/240 412/6/221 466/4/230
f 466/4/230 412/6/221 290/4/324
f 259/6/217 351/4/323 197/6/325
f 197/6/325 409/17/218 259/6/217
f 407/6/326 191/4/207 189/4/212
f 260/4/327 263/4/188 190/3/205
f 261/3/328 374/4/192 262/5/189
f 262/5/189 188/4/322 261/3/328
f 364/6/329 260/4/327 272/4/330
f 365/4/208 273/4/331 274/4/209
f 272/4/330 192/3/210 273/4/331
f 256/6/316 255/3/318 275/3/320
f 416/4/332 463/6/333 255/3/318
f 278/4/334 375/6/314 277/4/319
f 277/4/319 257/3/321 278/4/335
f 280/3/317 279/5/196 411/3/232
f 456/6/336 417/3/337 355/6/338
f 287/3/339 362/18/340 418/4/341
f 362/18/340 281/6/342 418/4/341
f 363/7/343 460/3/344 368/4/345
f 358/3/346 363/7/343 368/4/345
f 309/6/347 459/4/348 356/4/349
f 461/6/350 309/6/347 356/4/349
f 363/13/343 433/11/351 446/14/352
f 446/14/352 332/11/353 363/13/343
f 354/3/354 286/6/355 283/3/356
f 191/4/207 372/4/313 354/3/354
f 354/3/354 365/4/208 191/4/207
f 462/3/357 285/4/358 417/3/337
f 285/4/358 287/3/339 417/3/337
f 361/3/359 287/3/339 419/3/360
f 419/3/360 460/3/344 361/3/359
f 287/3/339 418/4/341 417/3/337
f 289/4/361 353/3/362 292/6/363
f 292/6/363 281/6/342 289/4/361
f 360/11/364 420/11/365 288/11/366
f 288/11/366 357/10/367 360/11/364
f 289/11/361 421/11/368 457/14/369
f 457/14/369 293/11/370 289/11/361
f 408/4/227 360/3/364 198/6/226
f 291/6/228 290/4/324 352/3/371
f 353/3/362 351/4/323 292/6/363
f 359/8/372 296/8/373 423/8/374
f 423/8/374 458/11/375 359/8/372
f 293/11/370 457/14/369 427/10/376
f 293/11/370 427/10/376 307/11/377
f 307/11/377 426/9/378 293/11/370
f 423/8/374 425/9/379 294/11/380
f 294/11/380 422/15/381 423/8/374
f 358/11/346 422/15/381 295/12/382
f 295/12/382 459/11/348 358/11/346
f 357/10/367 288/11/366 296/8/373
f 296/8/373 359/8/372 357/10/367
f 356/11/349 295/12/382 297/12/383
f 297/12/383 421/11/368 356/11/349
f 298/13/384 314/9/385 436/12/386
f 438/12/387 431/16/388 299/9/389
f 300/9/390 295/12/382 302/10/391
f 427/10/376 297/12/383 300/9/390
f 288/11/366 426/9/378 301/11/392
f 295/12/382 422/15/381 302/10/391
f 302/10/391 294/11/380 424/12/393
f 303/11/394 423/8/374 296/8/373
f 304/12/395 308/11/396 429/11/397
f 305/13/398 426/9/378 428/11/399
f 428/11/399 311/16/400 305/13/398
f 300/9/390 304/12/395 306/11/401
f 306/11/401 429/11/397 430/11/402
f 306/11/401 427/10/376 300/9/390
f 307/11/377 430/11/402 313/11/403
f 313/11/403 428/11/399 307/11/377
f 294/11/380 467/15/404 308/11/396
f 467/15/404 303/11/394 305/13/398
f 305/13/398 431/16/388 467/15/404
f 362/11/340 310/9/405 331/10/406
f 331/10/406 461/11/350 362/11/340
f 310/9/405 460/11/344 432/11/407
f 439/12/408 442/9/409 311/16/400
f 430/11/402 298/13/384 312/14/410
f 312/14/410 436/12/386 437/11/411
f 313/11/403 437/11/411 316/12/412
f 316/12/412 439/12/408 313/11/403
f 308/11/396 438/12/387 314/9/385
f 437/11/411 318/10/413 315/8/414
f 315/8/414 440/13/415 441/10/416
f 316/12/412 441/10/416 323/13/417
f 323/13/417 442/9/409 316/12/412
f 317/16/418 299/9/389 319/12/419
f 319/12/419 323/13/417 320/10/420
f 323/13/417 443/15/421 320/10/420
f 441/10/416 321/10/422 322/10/423
f 322/10/423 444/11/424 325/15/425
f 317/16/418 320/10/420 321/10/422
f 321/10/422 445/13/426 444/11/424
f 321/10/422 318/10/413 317/16/418
f 325/15/425 326/8/427 324/12/428
f 325/15/425 324/12/428 327/16/429
f 328/12/430 443/15/421 327/16/429
f 327/16/429 324/12/428 328/12/430
f 324/12/428 326/8/427 328/12/430
f 447/12/431 310/9/405 329/11/432
f 330/9/433 446/14/352 309/11/347
f 309/11/347 448/13/434 330/9/433
f 448/13/434 446/14/352 330/9/433
f 449/11/435 450/11/436 448/13/434
f 333/11/437 450/11/436 449/11/435
f 333/11/437 449/11/435 334/11/438
f 333/11/437 454/11/439 452/11/440
f 448/13/434 331/10/406 334/11/438
f 334/11/438 447/12/431 451/11/441
f 334/11/438 449/11/435 448/13/434
f 332/11/353 450/11/436 338/12/442
f 338/12/442 335/10/443 332/11/353
f 451/11/441 329/11/432 335/10/443
f 336/15/444 452/11/440 342/11/445
f 342/11/445 340/8/446 336/15/444
f 333/11/437 336/15/444 338/12/442
f 338/12/442 336/15/444 339/10/447
f 337/14/448 335/10/443 339/10/447
f 341/13/449 337/14/448 339/10/447
f 455/8/450 343/14/451 340/8/446
f 336/15/444 344/11/452 341/13/449
f 452/11/440 454/11/439 342/11/445
f 337/14/448 344/11/452 346/12/453
f 346/12/453 454/11/439 337/14/448
f 345/12/454 469/14/455 343/14/451
f 343/14/451 469/14/455 347/16/456
f 340/8/446 468/8/457 344/11/452
f 455/8/450 453/10/458 345/12/454
f 345/12/454 343/14/451 455/8/450
f 344/11/452 469/14/455 346/12/453
f 469/14/455 345/12/454 346/12/453
f 347/16/456 468/8/457 343/14/451
f 286/6/355 372/4/313 348/3/315
f 366/6/459 369/4/460 368/4/345
f 349/4/461 257/3/321 350/4/462
f 368/4/345 350/4/462 366/6/459
f 359/19/372 367/6/463 352/3/371
f 360/3/364 408/4/227 420/4/365
f 420/4/365 197/6/325 353/3/362
f 456/6/336 260/4/327 284/4/464
f 418/4/341 292/6/363 355/6/338
f 292/6/363 282/4/465 355/6/338
f 364/6/329 272/4/330 462/3/357
f 462/3/357 417/3/337 284/4/464
f 283/3/356 462/3/357 365/4/208
f 285/4/358 462/3/357 283/3/356
f 350/4/462 275/3/320 366/6/459
f 464/4/466 291/6/228 367/6/463
f 348/3/315 278/4/334 349/4/461
f 262/5/189 374/4/192 370/3/187
f 270/3/190 387/4/214 194/4/191
f 187/6/193 415/3/201 270/3/190
f 271/4/195 385/5/260 266/6/197
f 187/6/193 376/6/216 415/3/201
f 263/4/188 373/4/467 282/4/465
f 413/6/198 385/5/260 269/7/199
f 415/3/201 376/6/216 264/6/200
f 266/6/197 411/3/232 279/5/196
f 266/6/197 385/5/260 413/6/198
f 188/4/322 263/4/188 282/4/465
f 271/8/195 396/10/204 385/11/260
f 271/8/195 414/11/194 397/8/202
f 371/3/211 407/6/326 189/4/212
f 192/3/210 189/4/212 274/4/209
f 192/3/210 387/4/214 268/3/213
f 407/6/326 371/3/211 414/4/194
f 414/4/194 279/5/196 407/6/326
f 194/4/191 370/3/187 374/4/192
f 259/6/217 409/17/218 196/6/215
f 195/12/220 267/11/219 412/11/221
f 196/11/215 410/10/225 376/11/216
f 196/11/215 409/11/218 381/12/223
f 290/4/324 412/6/221 198/6/226
f 466/4/230 290/4/324 291/6/228
f 259/6/217 187/6/193 261/3/328
f 199/9/231 265/13/240 258/11/229
f 199/9/231 258/11/229 411/11/232
f 200/11/224 207/11/236 410/10/225
f 381/12/223 382/10/249 214/10/234
f 200/11/224 214/10/234 378/14/235
f 201/11/238 199/9/231 377/13/233
f 377/13/233 411/11/232 266/11/197
f 202/12/239 266/11/197 413/11/198
f 203/11/222 412/11/221 265/13/240
f 202/12/239 413/11/198 264/11/200
f 204/10/241 264/11/200 376/11/216
f 205/14/264 215/13/250 383/8/254
f 205/14/264 388/11/266 224/9/269
f 206/9/242 226/16/262 218/14/243
f 207/11/236 209/9/246 202/12/239
f 204/10/241 410/10/225 207/11/236
f 207/11/236 378/14/235 379/13/245
f 208/12/247 195/12/220 203/11/222
f 209/9/246 379/13/245 201/11/238
f 210/10/248 203/11/222 199/9/231
f 215/13/250 201/11/238 379/13/245
f 211/11/251 383/8/254 215/13/250
f 208/12/247 210/10/248 212/12/252
f 218/14/243 390/11/263 382/10/249
f 211/11/251 379/13/245 378/14/235
f 213/9/253 384/12/256 383/8/254
f 213/9/253 378/14/235 214/10/234
f 382/10/249 390/11/263 220/11/255
f 214/10/234 220/11/255 384/12/256
f 216/10/244 380/15/237 201/11/238
f 216/10/244 212/12/252 210/10/248
f 210/10/248 380/15/237 216/10/244
f 216/10/244 218/14/243 212/12/252
f 217/11/257 387/11/214 270/11/190
f 238/10/258 270/11/190 415/11/201
f 386/11/259 415/11/201 269/12/199
f 269/12/199 236/11/261 386/11/259
f 217/11/257 397/8/202 414/11/194
f 268/11/213 387/11/214 217/11/257
f 226/16/262 222/12/267 390/11/263
f 205/14/264 383/8/254 384/12/256
f 219/12/265 389/11/268 388/11/266
f 219/12/265 384/12/256 220/11/255
f 220/11/255 222/12/267 389/11/268
f 206/9/242 216/10/244 215/13/250
f 215/13/250 224/9/269 206/9/242
f 225/9/270 388/11/266 389/11/268
f 221/11/271 392/8/273 391/9/272
f 221/11/271 389/11/268 222/12/267
f 222/12/267 230/12/275 392/8/273
f 223/8/274 228/10/277 226/16/262
f 224/9/269 223/8/274 206/9/242
f 226/16/262 228/10/277 230/12/275
f 227/15/279 391/9/272 392/8/273
f 229/11/280 394/12/282 227/15/279
f 229/11/280 392/8/273 230/12/275
f 230/12/275 231/8/281 394/12/282
f 395/16/276 223/8/274 391/9/272
f 391/9/272 227/15/279 395/16/276
f 231/8/281 227/15/279 394/12/282
f 393/11/278 395/16/276 234/10/284
f 398/13/287 386/11/259 236/11/261
f 237/11/290 398/13/287 396/10/204
f 237/11/290 400/15/289 398/13/287
f 235/16/286 217/11/257 238/10/258
f 240/11/291 402/11/307 404/11/292
f 240/11/291 243/8/293 400/15/289
f 238/10/258 398/13/287 400/15/289
f 243/8/293 241/8/296 235/16/286
f 239/9/203 244/9/295 399/11/288
f 237/11/290 396/10/204 239/9/203
f 241/8/296 401/12/294 397/8/202
f 242/11/297 246/12/301 250/13/298
f 242/11/297 247/10/300 402/11/307
f 243/8/293 404/11/292 248/13/308
f 243/8/293 248/13/308 403/11/302
f 243/8/293 403/11/302 241/8/296
f 244/9/295 401/12/294 246/12/301
f 242/11/297 402/11/307 240/11/291
f 240/11/291 399/11/288 244/9/295
f 245/12/299 250/13/298 465/11/303
f 404/11/292 251/14/306 252/12/305
f 252/12/305 403/11/302 248/13/308
f 250/13/298 252/12/305 406/8/311
f 251/14/306 245/12/299 405/15/304
f 251/14/306 249/14/309 406/8/311
f 253/13/310 405/15/304 254/14/312
f 406/8/311 249/14/309 253/13/310
f 254/14/312 405/15/304 465/11/303
f 465/11/303 406/8/311 253/13/310
f 375/6/314 372/4/313 407/6/326
f 407/6/326 279/5/196 375/6/314
f 256/6/316 279/5/196 280/3/317
f 257/3/321 275/3/320 350/4/462
f 351/4/323 188/4/322 282/4/465
f 259/6/217 261/3/328 188/4/322
f 267/4/219 409/17/218 408/4/227
f 197/6/325 408/4/227 409/17/218
f 407/6/326 372/4/313 191/4/207
f 189/4/212 191/4/207 274/4/209
f 260/4/327 373/4/467 263/4/188
f 262/5/189 263/4/188 188/4/322
f 261/3/328 187/6/193 374/4/192
f 272/4/330 260/4/327 190/3/205
f 272/4/330 190/3/205 193/5/206
f 273/4/331 192/3/210 274/4/209
f 272/4/330 193/5/206 192/3/210
f 275/3/320 255/3/318 463/6/333
f 276/6/468 255/3/318 280/3/317
f 276/6/468 464/4/466 416/4/332
f 416/4/332 255/3/318 276/6/468
f 464/4/466 276/6/468 291/6/228
f 276/6/468 280/3/317 411/3/232
f 411/3/232 291/6/228 276/6/468
f 277/4/319 375/6/314 279/5/196
f 278/4/334 348/3/315 375/6/314
f 417/3/337 418/4/341 355/6/338
f 287/3/339 435/3/469 362/18/340
f 362/18/340 461/6/350 281/6/342
f 368/4/345 369/4/460 358/3/346
f 358/3/346 433/20/351 363/7/343
f 461/6/350 421/4/368 281/6/342
f 282/4/465 373/4/467 456/6/336
f 309/6/347 433/20/351 459/4/348
f 356/4/349 421/4/368 461/6/350
f 459/4/348 433/20/351 358/3/346
f 363/13/343 332/11/353 432/11/407
f 432/11/407 460/11/344 363/13/343
f 283/3/356 286/6/355 419/3/360
f 284/4/464 417/3/337 456/6/336
f 419/3/360 287/3/339 285/4/358
f 285/4/358 283/3/356 419/3/360
f 361/3/359 435/3/469 287/3/339
f 286/6/355 460/3/344 419/3/360
f 286/6/355 368/4/345 460/3/344
f 289/4/361 281/6/342 421/4/368
f 289/4/361 420/4/365 353/3/362
f 289/11/361 293/11/370 420/11/365
f 423/8/374 422/15/381 458/11/375
f 426/9/378 420/11/365 293/11/370
f 358/11/346 458/11/375 422/15/381
f 356/11/349 459/11/348 295/12/382
f 297/12/383 457/14/369 421/11/368
f 429/11/397 308/11/396 298/13/384
f 438/12/387 467/15/404 431/16/388
f 300/9/390 297/12/383 295/12/382
f 300/9/390 302/10/391 424/12/393
f 427/10/376 457/14/369 297/12/383
f 288/11/366 420/11/365 426/9/378
f 301/11/392 303/11/394 288/11/366
f 302/10/391 422/15/381 294/11/380
f 296/8/373 288/11/366 303/11/394
f 303/11/394 425/9/379 423/8/374
f 424/12/393 294/11/380 304/12/395
f 305/13/398 301/11/392 426/9/378
f 428/11/399 439/12/408 311/16/400
f 305/13/398 311/16/400 431/16/388
f 305/13/398 303/11/394 301/11/392
f 300/9/390 424/12/393 304/12/395
f 306/11/401 304/12/395 429/11/397
f 307/11/377 427/10/376 306/11/401
f 307/11/377 306/11/401 430/11/402
f 313/11/403 439/12/408 428/11/399
f 307/11/377 428/11/399 426/9/378
f 294/11/380 425/9/379 467/15/404
f 308/11/396 304/12/395 294/11/380
f 467/15/404 425/9/379 303/11/394
f 362/11/340 435/11/469 310/9/405
f 331/10/406 434/11/470 461/11/350
f 309/11/347 461/11/350 434/11/470
f 309/11/347 446/14/352 433/11/351
f 310/9/405 361/11/359 460/11/344
f 310/9/405 435/11/469 361/11/359
f 311/16/400 442/9/409 299/9/389
f 299/9/389 431/16/388 311/16/400
f 430/11/402 429/11/397 298/13/384
f 312/14/410 298/13/384 436/12/386
f 313/11/403 430/11/402 312/14/410
f 313/11/403 312/14/410 437/11/411
f 316/12/412 442/9/409 439/12/408
f 308/11/396 467/15/404 438/12/387
f 314/9/385 298/13/384 308/11/396
f 437/11/411 436/12/386 318/10/413
f 315/8/414 318/10/413 440/13/415
f 316/12/412 437/11/411 315/8/414
f 316/12/412 315/8/414 441/10/416
f 317/16/418 438/12/387 299/9/389
f 317/16/418 314/9/385 438/12/387
f 317/16/418 318/10/413 314/9/385
f 436/12/386 314/9/385 318/10/413
f 319/12/419 442/9/409 323/13/417
f 319/12/419 299/9/389 442/9/409
f 320/10/420 317/16/418 319/12/419
f 440/13/415 318/10/413 321/10/422
f 320/10/420 443/15/421 445/13/426
f 441/10/416 440/13/415 321/10/422
f 322/10/423 321/10/422 444/11/424
f 323/13/417 441/10/416 322/10/423
f 323/13/417 322/10/423 325/15/425
f 323/13/417 325/15/425 443/15/421
f 321/10/422 320/10/420 445/13/426
f 325/15/425 444/11/424 326/8/427
f 325/15/425 327/16/429 443/15/421
f 326/8/427 444/11/424 445/13/426
f 326/8/427 445/13/426 328/12/430
f 328/12/430 445/13/426 443/15/421
f 329/11/432 310/9/405 432/11/407
f 309/11/347 434/11/470 448/13/434
f 448/13/434 450/11/436 446/14/352
f 331/10/406 448/13/434 434/11/470
f 331/10/406 310/9/405 447/12/431
f 329/11/432 432/11/407 332/11/353
f 333/11/437 334/11/438 454/11/439
f 334/11/438 331/10/406 447/12/431
f 332/11/353 335/10/443 329/11/432
f 332/11/353 446/14/352 450/11/436
f 451/11/441 447/12/431 329/11/432
f 342/11/445 455/8/450 340/8/446
f 337/14/448 334/11/438 451/11/441
f 337/14/448 454/11/439 334/11/438
f 338/12/442 339/10/447 335/10/443
f 338/12/442 450/11/436 333/11/437
f 333/11/437 452/11/440 336/15/444
f 337/14/448 451/11/441 335/10/443
f 339/10/447 336/15/444 341/13/449
f 340/8/446 343/14/451 468/8/457
f 336/15/444 340/8/446 344/11/452
f 342/11/445 454/11/439 453/10/458
f 342/11/445 453/10/458 455/8/450
f 337/14/448 341/13/449 344/11/452
f 346/12/453 453/10/458 454/11/439
f 344/11/452 468/8/457 469/14/455
f 346/12/453 345/12/454 453/10/458
f 347/16/456 469/14/455 468/8/457
f 348/3/315 349/4/461 286/6/355
f 349/4/461 368/4/345 286/6/355
f 366/6/459 463/6/333 369/4/460
f 368/4/345 349/4/461 350/4/462
f 282/4/465 292/6/363 351/4/323
f 359/19/372 369/4/460 367/6/463
f 352/3/371 367/6/463 291/6/228
f 357/4/367 359/19/372 352/3/371
f 357/4/367 352/3/371 290/4/324
f 357/4/367 290/4/324 198/6/226
f 357/4/367 198/6/226 360/3/364
f 420/4/365 408/4/227 197/6/325
f 353/3/362 197/6/325 351/4/323
f 354/3/354 283/3/356 365/4/208
f 354/3/354 372/4/313 286/6/355
f 456/6/336 373/4/467 260/4/327
f 418/4/341 281/6/342 292/6/363
f 282/4/465 456/6/336 355/6/338
f 358/3/346 369/4/460 458/4/375
f 458/4/375 369/4/460 359/19/372
f 284/4/464 260/4/327 364/6/329
f 364/6/329 462/3/357 284/4/464
f 462/3/357 272/4/330 273/4/331
f 462/3/357 273/4/331 365/4/208
f 366/6/459 275/3/320 463/6/333
f 367/6/463 369/4/460 463/6/333
f 367/6/463 463/6/333 416/4/332
f 416/4/332 464/4/466 367/6/463
f 349/4/461 278/4/335 257/3/321
