# Blender 5.0.0
# www.blender.org
mtllib WoodFence.mtl
o Prop_WoodenFence_Single
v -0.926451 0.797152 0.059910
v -1.031451 0.792887 0.059910
v -0.926451 0.797152 -0.059910
v -1.031451 0.792887 -0.059910
v -0.893646 -0.028253 0.059910
v -0.998646 -0.028253 0.059910
v -0.893646 -0.028253 -0.059910
v -0.998646 -0.028253 -0.059910
v 1.032649 0.806146 0.055159
v 1.032649 0.806829 -0.049925
v 0.912867 0.809173 0.055179
v 0.912867 0.809857 -0.049906
v 1.012230 -0.028253 0.049906
v 1.012230 -0.028253 -0.055179
v 0.892448 -0.028253 0.049925
v 0.892448 -0.028253 -0.055159
v -0.993108 0.726363 -0.005784
v -0.993108 0.577617 -0.013879
v 0.993108 0.726363 -0.005783
v 0.993108 0.577617 -0.013878
v 0.993108 0.723818 0.040979
v -0.993108 0.723818 0.040978
v -0.993108 0.575072 0.032882
v 0.993108 0.575072 0.032883
v 0.995887 0.401130 -0.010797
v 0.985418 0.549475 -0.019459
v -0.985418 0.261773 -0.002659
v -0.995887 0.410117 -0.011321
v -0.985418 0.264502 0.044092
v 0.995887 0.403860 0.035954
v 0.985418 0.552205 0.027292
v -0.995887 0.412847 0.035430
vn -0.0406 0.9992 -0.0000
vn -0.0000 -1.0000 -0.0000
vn -0.0000 -0.0000 -1.0000
vn -0.9992 -0.0399 -0.0000
vn 0.9992 0.0397 -0.0000
vn -0.0000 -0.0000 1.0000
vn 0.0253 0.9997 0.0065
vn -0.9997 0.0244 0.0001
vn -0.9997 0.0244 -0.0000
vn -0.9997 0.0244 0.0002
vn -0.0000 0.0063 -1.0000
vn -0.0002 0.0063 -1.0000
vn -0.0000 -0.0063 1.0000
vn 0.0001 -0.0063 1.0000
vn 0.9997 -0.0245 -0.0001
vn 0.9997 -0.0244 -0.0000
vn -0.0000 0.0543 -0.9985
vn -0.0000 -0.0543 0.9985
vn -0.0000 0.9985 0.0543
vn -0.0000 -0.9985 -0.0543
vn -0.0000 -0.0583 -0.9983
vn -0.0000 0.0583 0.9983
vn 0.0703 -0.9958 0.0582
vn 0.0703 -0.9958 0.0581
vn -0.0703 0.9958 -0.0582
vn 0.0002 -0.0063 1.0000
vn 0.9997 -0.0245 -0.0002
vt 0.490323 0.213019
vt 0.332501 0.373570
vt 0.332501 0.213019
vt 0.490323 0.373570
vt 0.538759 0.882737
vt 0.000000 0.996169
vt 0.538759 0.996169
vt 1.000000 0.757548
vt 0.461241 0.867594
vt 1.000000 0.867594
vt 0.461241 0.757548
vt 0.000000 0.882737
vt 1.000000 0.692703
vt 0.000000 0.745718
vt 0.000000 0.692703
vt 0.000000 0.693592
vt 1.000000 0.741805
vt 0.000000 0.741805
vt 1.000000 0.693592
vt 1.000000 0.745718
s 1
usemtl MI_WoodTrim.006
f 3/1/1 2/2/1 1/3/1
f 5/3/2 8/4/2 7/1/2
f 3/5/3 8/6/3 4/7/3
f 6/8/4 4/9/4 8/10/4
f 1/11/5 7/10/5 3/9/5
f 6/12/6 1/7/6 2/5/6
f 10/2/7 11/1/7 9/3/7
f 16/4/2 13/3/2 15/1/2
f 12/7/8 15/12/9 11/5/10
f 12/9/11 14/8/12 16/10/12
f 11/9/13 13/8/14 9/11/13
f 10/5/15 13/6/16 14/12/16
f 19/13/17 18/14/17 17/15/17
f 23/14/18 21/13/18 22/15/18
f 22/16/19 19/17/19 17/18/19
f 20/19/20 23/18/20 18/16/20
f 25/15/21 28/20/21 26/14/21
f 30/15/22 32/20/22 29/13/22
f 30/16/23 27/17/24 25/18/23
f 32/17/25 26/16/25 28/19/25
f 3/1/1 4/4/1 2/2/1
f 5/3/2 6/2/2 8/4/2
f 3/5/3 7/12/3 8/6/3
f 6/8/4 2/11/4 4/9/4
f 1/11/5 5/8/5 7/10/5
f 6/12/6 5/6/6 1/7/6
f 10/2/7 12/4/7 11/1/7
f 16/4/2 14/2/2 13/3/2
f 12/7/8 16/6/9 15/12/9
f 12/9/11 10/11/11 14/8/12
f 11/9/13 15/10/26 13/8/14
f 10/5/15 9/7/27 13/6/16
f 19/13/17 20/20/17 18/14/17
f 23/14/18 24/20/18 21/13/18
f 22/16/19 21/19/19 19/17/19
f 20/19/20 24/17/20 23/18/20
f 25/15/21 27/13/21 28/20/21
f 30/15/22 31/14/22 32/20/22
f 30/16/23 29/19/24 27/17/24
f 32/17/25 31/18/25 26/16/25
