# Blender 5.1.2
# www.blender.org
mtllib Staff.mtl
o Staff_Cylinder
v -0.015618 0.969089 0.031962
v 0.091184 1.050678 0.109557
v -0.056411 1.050678 0.157514
v -0.147632 1.050678 0.031962
v -0.056411 1.050678 -0.093591
v 0.091184 1.050678 -0.045634
v 0.025176 1.182694 0.157514
v -0.122419 1.182694 0.109557
v -0.122419 1.182694 -0.045634
v 0.025176 1.182694 -0.093591
v 0.116397 1.182693 0.031962
v -0.015618 1.264282 0.031962
v -0.039595 0.991132 0.105759
v 0.047159 0.991132 0.077571
v 0.023181 1.039089 0.151369
v 0.109935 1.039089 0.031962
v 0.047159 0.991132 -0.013647
v -0.093213 0.991132 0.031962
v -0.117192 1.039089 0.105759
v -0.039595 0.991132 -0.041836
v -0.117192 1.039089 -0.041836
v 0.023181 1.039089 -0.087446
v 0.124755 1.116686 0.077571
v 0.124755 1.116686 -0.013647
v -0.015618 1.116686 0.179558
v 0.071138 1.116686 0.151370
v -0.155990 1.116686 0.077571
v -0.102373 1.116686 0.151370
v -0.102373 1.116686 -0.087446
v -0.155990 1.116686 -0.013647
v 0.071138 1.116686 -0.087446
v -0.015618 1.116686 -0.115635
v 0.085957 1.194283 0.105759
v -0.054416 1.194283 0.151369
v -0.141170 1.194282 0.031962
v -0.054416 1.194283 -0.087446
v 0.085957 1.194282 -0.041836
v 0.008360 1.242239 0.105759
v 0.061978 1.242239 0.031962
v -0.078394 1.242239 0.077571
v -0.078394 1.242239 -0.013647
v 0.008360 1.242239 -0.041836
v -0.015249 0.909982 0.128544
v 0.052522 0.937117 0.100657
v 0.053215 0.877104 0.090105
v -0.013508 0.886737 0.036493
v -0.011526 0.876195 0.117992
v -0.077023 0.875280 0.091928
v -0.013960 0.886737 0.036493
v -0.079990 0.937117 0.100657
v -0.106051 0.937488 0.035154
v -0.160576 1.040815 0.109632
v -0.212442 1.037377 0.097494
v -0.184246 1.259049 0.069777
v -0.213505 1.067328 0.022140
v -0.104907 0.874896 0.027181
v -0.041235 0.761907 0.029475
v -0.078846 0.875267 -0.038322
v -0.054494 0.761724 -0.001312
v -0.212357 1.035283 -0.052344
v -0.078167 0.937104 -0.029594
v -0.184499 1.257728 -0.026327
v -0.160490 1.038721 -0.040206
v -0.141050 1.249180 -0.018541
v -0.161638 1.070766 0.034279
v -0.140796 1.250501 0.077562
v -0.137033 1.269360 0.029232
v -0.078251 1.361558 -0.001290
v -0.077645 1.362022 0.053242
v -0.068934 1.368595 0.025818
v -0.092833 1.382040 0.048825
v -0.084122 1.388613 0.021400
v -0.093439 1.381576 -0.005708
v -0.180482 1.277908 0.021446
v -0.012670 0.909964 -0.055658
v 0.051392 0.877091 -0.040145
v 0.050699 0.937104 -0.029594
v -0.013363 0.876177 -0.066209
v -0.042102 0.761900 -0.032459
v 0.019825 0.762768 -0.033326
v -0.011318 0.762333 -0.045719
v -0.005744 0.502433 -0.043298
v 0.025041 0.502866 -0.056558
v -0.000585 0.024241 -0.017520
v 0.022899 0.024569 -0.008174
v 0.056184 0.503301 -0.044165
v 0.033085 0.762951 -0.002538
v 0.069443 0.503483 -0.013378
v 0.057051 0.503307 0.017769
v 0.032896 0.024707 0.015040
v 0.014139 -0.521954 -0.008278
v 0.001327 -0.522137 0.023924
v 0.023552 0.024573 0.038526
v 0.026267 0.502874 0.031029
v 0.000340 0.024247 0.048525
v -0.004877 0.502439 0.018636
v -0.023144 0.023919 0.039180
v -0.030500 -0.522584 0.037633
v 0.014504 -0.999898 0.035656
v -0.010922 -1.000254 0.025538
v -0.062698 -0.523034 0.024820
v -0.021747 -1.000403 0.000403
v -0.076406 -0.523223 -0.007010
v -0.033141 0.023782 0.015965
v -0.018136 0.502257 -0.012152
v -0.023797 0.023915 -0.007521
v -0.031767 -0.522593 -0.052921
v -0.063594 -0.523040 -0.039211
v -0.011629 -1.000259 -0.025026
v 0.013503 -0.999905 -0.035852
v 0.000431 -0.522143 -0.040108
v 0.038929 -0.999550 -0.025734
v 0.049754 -0.999401 -0.000598
v 0.039637 -0.999545 0.024830
v -0.010092 0.762342 0.041868
v 0.020692 0.762774 0.028608
v 0.079276 0.877476 0.024602
v 0.186037 1.067327 0.022140
v 0.184889 1.035283 -0.052344
v 0.184974 1.037377 0.097494
v 0.133108 1.040815 0.109632
v 0.156778 1.259049 0.069777
v 0.113328 1.250501 0.077562
v 0.050177 1.362022 0.053242
v 0.153014 1.277908 0.021446
v 0.065365 1.382040 0.048825
v 0.041466 1.368595 0.025818
v 0.056654 1.388613 0.021400
v 0.050783 1.361558 -0.001290
v 0.065971 1.381576 -0.005708
v 0.113582 1.249180 -0.018541
v 0.157031 1.257728 -0.026327
v 0.133022 1.038721 -0.040206
v 0.078584 0.937488 0.035154
v 0.134170 1.070766 0.034279
v 0.109565 1.269360 0.029232
vn 0.1024 -0.9435 0.3151
vn 0.7002 -0.6617 0.2680
vn -0.2680 -0.9435 0.1947
vn -0.2680 -0.9435 -0.1947
vn 0.1024 -0.9435 -0.3151
vn 0.9050 -0.3304 0.2680
vn 0.0247 -0.3304 0.9435
vn -0.8897 -0.3304 0.3151
vn -0.5746 -0.3304 -0.7488
vn 0.5346 -0.3304 -0.7779
vn 0.8026 -0.1256 0.5831
vn -0.3066 -0.1256 0.9435
vn -0.9921 -0.1256 -0.0000
vn -0.3066 -0.1256 -0.9435
vn 0.8026 -0.1256 -0.5831
vn 0.4089 0.6617 0.6284
vn -0.4713 0.6617 0.5831
vn -0.7002 0.6617 -0.2680
vn 0.0385 0.6617 -0.7488
vn 0.7240 0.6617 -0.1947
vn 0.2680 0.9435 -0.1947
vn 0.4911 0.7947 -0.3568
vn 0.4089 0.6617 -0.6284
vn -0.1024 0.9435 -0.3151
vn -0.1876 0.7947 -0.5773
vn -0.4713 0.6617 -0.5831
vn -0.3313 0.9435 -0.0000
vn -0.6071 0.7947 -0.0000
vn -0.7002 0.6617 0.2680
vn -0.1024 0.9435 0.3151
vn -0.1876 0.7947 0.5773
vn 0.0385 0.6617 0.7488
vn 0.2680 0.9435 0.1947
vn 0.4911 0.7947 0.3568
vn 0.7240 0.6617 0.1947
vn 0.8897 0.3304 -0.3151
vn 0.7947 0.1876 -0.5773
vn 0.5746 0.3304 -0.7488
vn -0.0247 0.3304 -0.9435
vn -0.3035 0.1876 -0.9342
vn -0.5346 0.3304 -0.7779
vn -0.9050 0.3304 -0.2680
vn -0.9822 0.1876 -0.0000
vn -0.9050 0.3304 0.2680
vn -0.5346 0.3304 0.7779
vn -0.3035 0.1876 0.9342
vn -0.0247 0.3304 0.9435
vn 0.5746 0.3304 0.7488
vn 0.7947 0.1876 0.5773
vn 0.8897 0.3304 0.3151
vn 0.3066 0.1256 -0.9435
vn 0.3035 -0.1876 -0.9342
vn 0.0247 -0.3304 -0.9435
vn -0.8026 0.1256 -0.5831
vn -0.7947 -0.1876 -0.5773
vn -0.8897 -0.3304 -0.3151
vn -0.8026 0.1256 0.5831
vn -0.7947 -0.1876 0.5773
vn -0.5746 -0.3304 0.7488
vn 0.3066 0.1256 0.9435
vn 0.3035 -0.1876 0.9342
vn 0.5346 -0.3304 0.7779
vn 0.9921 0.1256 -0.0000
vn 0.9822 -0.1876 -0.0000
vn 0.9050 -0.3304 -0.2680
vn 0.4713 -0.6617 -0.5831
vn 0.1876 -0.7947 -0.5773
vn -0.0385 -0.6617 -0.7488
vn -0.4089 -0.6617 -0.6284
vn -0.4911 -0.7947 -0.3568
vn -0.7240 -0.6617 -0.1947
vn -0.7240 -0.6617 0.1947
vn -0.4911 -0.7947 0.3568
vn -0.4089 -0.6617 0.6284
vn 0.7002 -0.6617 -0.2680
vn 0.6071 -0.7947 -0.0000
vn 0.3313 -0.9435 -0.0000
vn -0.0385 -0.6617 0.7488
vn 0.1876 -0.7947 0.5774
vn 0.4713 -0.6617 0.5831
vn -0.4604 0.8639 -0.2045
vn -0.4576 0.8645 -0.2078
vn -0.4412 0.8681 -0.2276
vn 0.4056 -0.1985 0.8922
vn 0.4166 -0.1754 0.8920
vn 0.4275 -0.1518 0.8912
vn 0.3873 -0.2357 0.8913
vn -0.3902 -0.2426 0.8882
vn -0.4158 -0.1968 0.8879
vn -0.3472 -0.3142 0.8836
vn -0.4424 -0.1461 0.8848
vn 0.4647 0.8628 -0.1992
vn 0.4661 0.8624 -0.1974
vn 0.4541 0.8653 -0.2122
vn 0.4764 0.8596 -0.1847
vn 0.8221 0.5472 -0.1573
vn 0.8898 0.4561 0.0187
vn 0.7428 0.6025 -0.2921
vn -0.1411 -0.1555 0.9777
vn -0.2059 -0.2420 0.9482
vn -0.1887 -0.2191 0.9573
vn -0.1330 -0.1448 0.9805
vn -0.2239 0.1515 0.9628
vn -0.1577 0.1608 0.9743
vn -0.2347 0.1499 0.9604
vn -0.9885 0.1513 -0.0018
vn -0.9890 0.1368 0.0568
vn -0.9887 0.1342 0.0673
vn -0.8485 -0.5206 -0.0947
vn -0.8544 -0.4869 -0.1815
vn -0.7676 -0.6026 0.2185
vn -0.7230 -0.6148 0.3150
vn -0.8176 -0.4535 0.3548
vn -0.7682 -0.6104 -0.1932
vn -0.8498 -0.5161 0.1072
vn -0.7220 -0.6279 -0.2908
vn -0.8843 -0.3049 -0.3536
vn -0.8567 -0.4784 0.1926
vn 0.2315 0.0926 -0.9684
vn 0.2550 0.1264 -0.9586
vn 0.2589 0.1322 -0.9568
vn 0.2182 0.0852 -0.9722
vn -0.9889 0.1351 -0.0611
vn -0.9885 0.1511 0.0020
vn -0.9886 0.1322 -0.0721
vn 0.1963 0.0834 -0.9770
vn 0.8873 0.4607 -0.0221
vn 0.8117 0.5600 0.1659
vn 0.7233 0.6181 0.3078
vn 0.9129 0.3798 -0.1493
vn 0.1916 0.0830 -0.9780
vn 0.9928 -0.1189 -0.0146
vn 0.9938 -0.1012 0.0455
vn 0.9936 -0.0977 0.0573
vn 0.9918 -0.1237 -0.0312
vn 0.9137 0.3820 0.1390
vn 0.9935 -0.1047 -0.0435
vn 0.9929 -0.1185 0.0141
vn 0.9933 -0.1020 -0.0546
vn 0.9921 -0.1222 0.0296
vn 0.8281 -0.5547 -0.0808
vn 0.8150 -0.5639 -0.1337
vn 0.8539 -0.5098 0.1046
vn 0.8552 -0.4993 0.1390
vn 0.8493 -0.5182 -0.1008
vn 0.8302 -0.5521 0.0773
vn 0.8497 -0.5102 -0.1329
vn 0.8199 -0.5583 0.1266
vn 0.6995 0.6121 0.3689
vn 0.7718 0.4985 -0.3947
vn -0.7592 0.6496 -0.0400
vn -0.7518 0.6543 -0.0820
vn -0.7755 0.6134 0.1497
vn -0.7762 0.6095 -0.1611
vn -0.7513 0.6540 0.0885
vn -0.7594 0.6492 0.0443
vn -0.7754 0.6064 0.1762
vn -0.9878 0.1549 -0.0165
vn -0.9878 0.1550 0.0176
vn -0.7759 0.6019 -0.1890
vn 0.2533 0.0027 -0.9674
vn 0.1902 0.0267 -0.9814
vn 0.1820 0.0298 -0.9828
vn 0.2732 -0.0050 -0.9619
vn -0.0453 0.2039 0.9779
vn -0.0328 0.1915 0.9809
vn -0.1053 0.2630 0.9590
vn -0.1170 0.2744 0.9545
vn -0.1429 0.1628 0.9763
vn -0.3545 0.2223 -0.9082
vn -0.3366 0.1801 -0.9243
vn -0.3172 0.1360 -0.9386
vn 0.4588 0.8629 0.2119
vn 0.4603 0.8625 0.2101
vn 0.4709 0.8597 0.1977
vn 0.4479 0.8655 0.2244
vn 0.3262 0.1997 -0.9240
vn 0.3560 0.2719 -0.8941
vn 0.3387 0.2295 -0.9125
vn 0.3126 0.1680 -0.9349
vn -0.4639 0.8616 0.2059
vn -0.4647 0.8614 0.2050
vn -0.4575 0.8632 0.2134
vn -0.3791 0.2829 -0.8810
vn -0.3847 -0.1711 -0.9070
vn -0.3866 -0.1705 -0.9064
vn -0.3840 -0.1714 -0.9073
vn -0.3878 -0.1700 -0.9059
vn 0.3682 -0.1579 -0.9162
vn 0.3670 -0.1584 -0.9166
vn 0.3700 -0.1572 -0.9156
vn 0.3707 -0.1570 -0.9154
vn -0.3953 -0.0170 -0.9184
vn 0.3671 0.0901 -0.9258
vn 0.3692 -0.0952 -0.9245
vn -0.3944 -0.0537 -0.9174
vn 0.9086 0.1437 -0.3922
vn 0.9147 -0.0932 -0.3934
vn 0.9147 -0.0932 -0.3933
vn 0.9229 0.1140 0.3678
vn 0.9229 0.1140 0.3679
vn 0.9281 -0.0489 0.3690
vn 0.9282 -0.0483 0.3690
vn 0.9282 -0.0476 0.3690
vn 0.9184 -0.0146 -0.3954
vn 0.3954 0.0146 0.9184
vn 0.3955 0.0122 0.9184
vn 0.3954 0.0122 0.9184
vn 0.3958 -0.0406 0.9174
vn 0.3958 -0.0406 0.9175
vn -0.3698 0.0539 0.9275
vn -0.3698 0.0023 0.9291
vn -0.3690 -0.0386 0.9286
vn 0.3950 0.0334 0.9181
vn -0.9138 -0.0985 0.3941
vn -0.9172 0.0540 0.3947
vn -0.9171 0.0560 0.3946
vn -0.9172 0.0539 0.3947
vn -0.9292 0.0074 -0.3696
vn -0.9291 0.0074 -0.3696
vn -0.9173 0.0520 0.3947
vn -0.9257 0.0887 -0.3678
vn -0.3953 0.0818 -0.9149
vn -0.3938 -0.0701 -0.9165
vn -0.9231 -0.1115 -0.3679
vn 0.3697 0.0018 -0.9291
vn 0.9165 0.0620 -0.3951
vn 0.9264 0.0750 0.3690
vn 0.3690 0.0391 -0.9286
vn -0.9229 -0.1140 -0.3678
vn -0.9086 -0.1437 0.3921
vn -0.9086 -0.1437 0.3922
vn -0.3671 -0.0901 0.9258
vn -0.3067 -0.5317 0.7894
vn 0.3443 -0.5188 0.7825
vn 0.3953 0.0170 0.9184
vn 0.8442 -0.4195 0.3335
vn 0.8856 -0.2672 -0.3798
vn 0.7642 -0.6115 -0.2052
vn 0.7162 -0.6279 -0.3047
vn 0.8493 -0.5175 0.1043
vn 0.7754 -0.6010 0.1940
vn 0.8500 -0.5179 -0.0965
vn 0.7331 -0.6160 0.2882
vn 0.8564 -0.4839 -0.1803
vn 0.8563 -0.4790 0.1929
vn 0.1577 -0.1777 0.9714
vn 0.1515 -0.1695 0.9738
vn 0.1926 -0.2244 0.9553
vn 0.2059 -0.2420 0.9482
vn 0.2239 0.1515 0.9628
vn 0.2347 0.1499 0.9604
vn 0.1577 0.1608 0.9743
vn 0.9890 0.1368 0.0568
vn 0.9885 0.1513 -0.0018
vn 0.9887 0.1342 0.0673
vn 0.9878 0.1549 -0.0165
vn 0.1429 0.1628 0.9763
vn 0.1053 0.2630 0.9590
vn 0.0453 0.2039 0.9779
vn 0.1170 0.2744 0.9545
vn 0.0329 0.1915 0.9809
vn 0.7755 0.6134 0.1497
vn 0.7592 0.6496 -0.0400
vn 0.7754 0.6064 0.1762
vn -0.6995 0.6121 0.3689
vn 0.7518 0.6543 -0.0820
vn -0.7718 0.4985 -0.3947
vn 0.7762 0.6095 -0.1611
vn 0.7594 0.6492 0.0443
vn 0.7513 0.6540 0.0885
vn -0.1902 0.0267 -0.9814
vn -0.2732 -0.0050 -0.9619
vn -0.2533 0.0027 -0.9674
vn -0.1820 0.0298 -0.9828
vn 0.7759 0.6019 -0.1890
vn -0.2181 0.0855 -0.9722
vn -0.1916 0.0830 -0.9780
vn -0.1963 0.0834 -0.9770
vn 0.9889 0.1351 -0.0611
vn 0.9886 0.1322 -0.0721
vn 0.9885 0.1511 0.0020
vn 0.9878 0.1550 0.0176
vn -0.2216 0.0859 -0.9713
vn -0.8117 0.5600 0.1659
vn -0.9129 0.3798 -0.1493
vn -0.8873 0.4607 -0.0221
vn -0.7233 0.6181 0.3078
vn -0.2736 0.1540 -0.9494
vn -0.2222 0.0785 -0.9718
vn -0.2377 0.1010 -0.9661
vn -0.9938 -0.1012 0.0455
vn -0.9928 -0.1189 -0.0146
vn -0.9936 -0.0977 0.0573
vn -0.9918 -0.1237 -0.0312
vn -0.8221 0.5472 -0.1573
vn -0.8898 0.4561 0.0187
vn -0.9137 0.3820 0.1389
vn -0.9935 -0.1047 -0.0435
vn -0.9933 -0.1020 -0.0546
vn -0.9929 -0.1185 0.0141
vn -0.9921 -0.1222 0.0296
vn -0.8493 -0.5182 -0.1008
vn -0.8497 -0.5102 -0.1329
vn -0.8302 -0.5521 0.0773
vn -0.8539 -0.5098 0.1046
vn -0.8281 -0.5547 -0.0808
vn -0.8552 -0.4993 0.1390
vn -0.8150 -0.5639 -0.1337
vn -0.8199 -0.5583 0.1266
vn -0.4709 0.8597 0.1977
vn -0.7428 0.6025 -0.2921
vn -0.4764 0.8596 -0.1847
vn -0.2797 0.1631 -0.9461
s 1
usemtl Wood.005
f 44//81 46//82 43//83
f 43//84 45//85 44//86
f 43//84 47//87 45//85
f 43//88 48//89 47//90
f 43//88 50//91 48//89
f 49//92 50//93 43//94
f 49//92 51//95 50//93
f 51//96 52//97 50//98
f 50//99 52//100 53//101
f 50//99 53//101 48//102
f 52//103 54//104 53//105
f 54//106 55//107 53//108
f 53//109 55//110 56//111
f 53//109 56//111 48//112
f 56//113 57//113 48//113
f 56//113 59//113 57//113
f 56//114 60//115 58//116
f 58//117 59//117 56//117
f 56//114 55//118 60//115
f 60//119 61//120 58//121
f 60//119 63//122 61//120
f 55//123 62//124 60//125
f 62//126 63//122 60//119
f 63//127 51//128 61//129
f 63//127 65//130 51//128
f 62//126 64//131 63//122
f 64//132 65//133 63//134
f 64//132 67//135 65//133
f 51//96 65//136 52//97
f 65//137 66//138 52//139
f 65//137 67//140 66//138
f 68//141 70//142 67//143
f 68//141 67//143 64//144
f 67//145 69//146 66//147
f 67//145 70//148 69//146
f 70//149 71//149 69//149
f 70//149 72//149 71//149
f 68//150 72//150 70//150
f 68//150 73//150 72//150
f 71//151 72//152 74//153
f 74//154 72//155 73//156
f 71//151 74//153 54//157
f 54//106 74//158 55//107
f 55//123 74//159 62//124
f 74//154 73//156 62//160
f 73//161 64//162 62//163
f 73//161 68//164 64//162
f 69//165 71//166 54//167
f 69//165 54//167 66//168
f 52//103 66//169 54//104
f 75//170 58//171 61//172
f 49//173 61//174 51//175
f 49//173 75//176 61//174
f 76//177 78//178 75//179
f 76//177 75//179 77//180
f 46//181 77//182 75//183
f 75//170 78//184 58//171
f 78//185 79//186 58//187
f 78//185 81//188 79//186
f 80//189 81//190 78//191
f 80//189 78//191 76//192
f 81//193 82//193 79//193
f 81//193 83//193 82//193
f 80//194 83//194 81//194
f 80//194 86//194 83//194
f 85//195 84//195 83//195
f 84//196 82//196 83//196
f 85//195 83//195 86//195
f 87//197 88//197 86//197
f 87//197 86//197 80//197
f 88//198 85//199 86//198
f 88//198 90//199 85//199
f 89//200 88//200 87//201
f 89//202 90//203 88//202
f 89//202 93//203 90//203
f 92//204 91//204 90//203
f 91//205 85//205 90//205
f 92//204 90//203 93//203
f 94//206 95//207 93//208
f 94//206 93//208 89//206
f 95//209 92//210 93//209
f 96//211 97//211 95//211
f 96//211 95//211 94//211
f 97//212 98//212 95//212
f 95//209 98//210 92//210
f 100//213 99//213 98//213
f 99//214 92//214 98//214
f 100//213 98//213 101//213
f 97//212 101//212 98//212
f 102//215 100//215 101//215
f 102//215 101//215 103//215
f 104//216 103//217 101//217
f 104//216 101//217 97//218
f 106//219 104//219 105//220
f 104//216 96//221 105//221
f 104//216 97//218 96//221
f 106//222 103//222 104//222
f 84//196 106//196 82//196
f 106//219 105//220 82//220
f 106//222 108//222 103//222
f 107//223 108//223 106//223
f 107//223 106//223 84//223
f 107//224 109//224 108//224
f 108//225 109//225 102//225
f 108//225 102//225 103//225
f 107//224 110//224 109//224
f 111//226 112//226 110//226
f 111//226 110//226 107//226
f 91//227 113//227 112//227
f 91//227 112//227 111//227
f 114//228 113//228 91//228
f 99//214 114//214 92//214
f 114//228 91//228 92//228
f 91//205 111//205 85//205
f 111//229 107//229 84//229
f 111//229 84//229 85//229
f 79//230 105//230 59//230
f 105//231 57//232 59//232
f 105//231 96//231 57//232
f 79//230 82//230 105//230
f 96//233 115//233 57//233
f 96//233 94//233 115//233
f 48//234 57//234 115//234
f 48//234 115//234 47//234
f 115//235 45//235 47//235
f 115//235 116//235 45//235
f 94//206 116//236 115//236
f 116//237 117//237 45//237
f 116//237 87//237 117//237
f 94//206 89//206 116//236
f 89//200 87//201 116//201
f 87//238 76//238 117//238
f 117//239 76//240 119//241
f 117//242 120//243 45//244
f 117//242 118//245 120//243
f 117//239 119//241 118//246
f 44//247 45//248 120//249
f 44//247 120//249 121//250
f 121//251 120//252 122//253
f 118//254 122//255 120//256
f 118//254 125//257 122//255
f 121//251 122//253 123//258
f 122//259 124//260 123//261
f 122//259 126//262 124//260
f 125//263 126//264 122//265
f 126//266 127//266 124//266
f 126//266 128//266 127//266
f 125//263 128//267 126//264
f 128//268 129//268 127//268
f 128//268 130//268 129//268
f 125//269 130//270 128//271
f 131//272 129//273 130//274
f 131//272 130//274 132//275
f 125//269 132//276 130//270
f 133//277 131//278 132//279
f 118//280 119//281 132//282
f 118//280 132//282 125//283
f 133//277 132//279 119//284
f 134//285 135//286 133//287
f 134//285 133//287 77//288
f 77//289 133//290 119//291
f 135//292 131//293 133//294
f 135//292 136//295 131//293
f 134//296 121//297 135//298
f 135//299 121//300 123//301
f 135//299 123//301 136//302
f 136//303 123//304 124//305
f 136//306 129//307 131//308
f 136//306 127//309 129//307
f 136//303 124//305 127//310
f 46//181 134//311 77//182
f 134//296 44//312 121//297
f 44//81 134//313 46//82
f 77//289 119//291 76//314
f 87//238 80//238 76//238
f 58//117 79//117 59//117
usemtl Gem.003
f 1//1 14//1 13//1
f 2//2 14//2 16//2
f 1//3 13//3 18//3
f 1//4 18//4 20//4
f 1//5 20//5 17//5
f 2//6 16//6 23//6
f 3//7 15//7 25//7
f 4//8 19//8 27//8
f 5//9 21//9 29//9
f 6//10 22//10 31//10
f 2//11 23//11 26//11
f 3//12 25//12 28//12
f 4//13 27//13 30//13
f 5//14 29//14 32//14
f 6//15 31//15 24//15
f 7//16 33//16 38//16
f 8//17 34//17 40//17
f 9//18 35//18 41//18
f 10//19 36//19 42//19
f 11//20 37//20 39//20
f 39//21 42//21 12//21
f 39//22 37//22 42//22
f 37//23 10//23 42//23
f 42//24 41//24 12//24
f 42//25 36//25 41//25
f 36//26 9//26 41//26
f 41//27 40//27 12//27
f 41//28 35//28 40//28
f 35//29 8//29 40//29
f 40//30 38//30 12//30
f 40//31 34//31 38//31
f 34//32 7//32 38//32
f 38//33 39//33 12//33
f 38//34 33//34 39//34
f 33//35 11//35 39//35
f 24//36 37//36 11//36
f 24//37 31//37 37//37
f 31//38 10//38 37//38
f 32//39 36//39 10//39
f 32//40 29//40 36//40
f 29//41 9//41 36//41
f 30//42 35//42 9//42
f 30//43 27//43 35//43
f 27//44 8//44 35//44
f 28//45 34//45 8//45
f 28//46 25//46 34//46
f 25//47 7//47 34//47
f 26//48 33//48 7//48
f 26//49 23//49 33//49
f 23//50 11//50 33//50
f 31//51 32//51 10//51
f 31//52 22//52 32//52
f 22//53 5//53 32//53
f 29//54 30//54 9//54
f 29//55 21//55 30//55
f 21//56 4//56 30//56
f 27//57 28//57 8//57
f 27//58 19//58 28//58
f 19//59 3//59 28//59
f 25//60 26//60 7//60
f 25//61 15//61 26//61
f 15//62 2//62 26//62
f 23//63 24//63 11//63
f 23//64 16//64 24//64
f 16//65 6//65 24//65
f 17//66 22//66 6//66
f 17//67 20//67 22//67
f 20//68 5//68 22//68
f 20//69 21//69 5//69
f 20//70 18//70 21//70
f 18//71 4//71 21//71
f 18//72 19//72 4//72
f 18//73 13//73 19//73
f 13//74 3//74 19//74
f 16//75 17//75 6//75
f 16//76 14//76 17//76
f 14//77 1//77 17//77
f 13//78 15//78 3//78
f 13//79 14//79 15//79
f 14//80 2//80 15//80
