# Blender 4.5.0
# www.blender.org
mtllib GreenSpikyBlob.mtl
o GreenSpiky_Blob.002_Sphere.001
v 0.496674 1.607863 1.666054
v 0.602962 1.533955 1.543008
v 0.669718 1.459027 1.395262
v 0.692393 1.388187 1.232882
v 0.669443 1.326261 1.066937
v 0.602431 1.277469 0.908733
v 0.495924 1.245137 0.769053
v 0.357180 1.231468 0.657416
v 0.195654 1.237394 0.581429
v 0.169931 1.673666 1.830510
v 0.305659 1.561939 1.802066
v 0.422513 1.446960 1.731182
v 0.512133 1.336890 1.622773
v 0.568412 1.239230 1.484228
v 0.587514 1.160635 1.324987
v 0.568137 1.106463 1.155902
v 0.511602 1.080403 0.988498
v 0.421763 1.084233 0.834180
v 0.304740 1.117692 0.703468
v 0.168509 1.178499 0.605267
v 0.023416 1.775482 1.814822
v 0.120142 1.629218 1.848741
v 0.210240 1.475442 1.837123
v 0.287570 1.324634 1.780760
v 0.346862 1.187072 1.683494
v 0.384076 1.072130 1.551953
v 0.396675 0.987641 1.395102
v 0.383801 0.939363 1.223628
v 0.346331 0.930586 1.049219
v 0.286819 0.961908 0.883759
v 0.209321 1.031195 0.738525
v 0.119117 1.133725 0.623414
v 0.056020 1.605380 1.858434
v 0.086367 1.429392 1.855848
v 0.112388 1.259510 1.807242
v 0.132308 1.107311 1.715927
v 0.144772 0.983168 1.588128
v 0.148930 0.895540 1.432552
v 0.144497 0.850401 1.259802
v 0.131778 0.850825 1.081651
v 0.111637 0.896783 0.910240
v 0.085448 0.985145 0.757250
v 0.054995 1.109887 0.633107
v -0.013067 1.606109 1.858197
v -0.047100 1.430799 1.855390
v -0.076363 1.261500 1.806595
v -0.098863 1.109748 1.715135
v -0.113066 0.985887 1.587244
v -0.118004 0.898356 1.431637
v -0.113341 0.853120 1.258918
v -0.099394 0.853263 1.080859
v -0.077114 0.898774 0.909593
v -0.048019 0.986553 0.756793
v -0.014092 1.110616 0.632870
v -0.076603 1.631292 1.848066
v -0.169842 1.479450 1.835820
v -0.249947 1.330304 1.778917
v -0.311459 1.194015 1.681237
v -0.350186 1.079874 1.549436
v -0.363489 0.995658 1.392496
v -0.350461 0.947107 1.221111
v -0.311990 0.937529 1.046962
v -0.250698 0.967577 0.881917
v -0.170761 1.035204 0.737223
v -0.077628 1.135799 0.622740
v -0.124915 1.677098 1.829584
v -0.263174 1.567938 1.800116
v -0.381938 1.455444 1.728425
v -0.473114 1.347280 1.619395
v -0.530489 1.250819 1.480461
v -0.550152 1.172634 1.321087
v -0.530763 1.118052 1.152136
v -0.473645 1.090795 0.985120
v -0.382689 1.092718 0.831423
v -0.264093 1.123691 0.701518
v -0.125940 1.181605 0.604258
v -0.150647 1.736549 1.805565
v -0.312885 1.682791 1.753713
v -0.452240 1.617872 1.662802
v -0.559217 1.546212 1.539025
v -0.626524 1.472698 1.390818
v -0.649575 1.402339 1.228282
v -0.626799 1.339931 1.062493
v -0.559747 1.289726 0.904749
v -0.452991 1.255144 0.765801
v -0.313804 1.238544 0.655116
v -0.151673 1.241057 0.580239
v -0.149883 1.800599 1.779664
v -0.311409 1.806525 1.703677
v -0.450152 1.792856 1.592040
v -0.556660 1.760523 1.452360
v -0.623671 1.711732 1.294156
v -0.646622 1.649806 1.128211
v -0.623946 1.578965 0.965831
v -0.557190 1.504038 0.818085
v -0.450903 1.430130 0.695039
v -0.312328 1.362278 0.605080
v -0.150908 1.305106 0.554338
v 0.022355 1.262510 0.546271
v -0.122738 1.859493 1.755826
v -0.258969 1.920300 1.657625
v -0.375992 1.953758 1.526913
v -0.465831 1.957588 1.372596
v -0.522366 1.931530 1.205191
v -0.541743 1.877357 1.036106
v -0.522641 1.798763 0.876865
v -0.466362 1.701103 0.738320
v -0.376742 1.591032 0.629912
v -0.259888 1.476053 0.559028
v -0.123764 1.364001 0.530500
v -0.073345 1.904268 1.737679
v -0.163549 2.006797 1.622568
v -0.241048 2.076084 1.477334
v -0.300560 2.107406 1.311874
v -0.338030 2.098629 1.137465
v -0.350903 2.050352 0.965992
v -0.338304 1.965863 0.809140
v -0.301091 1.850921 0.677599
v -0.241799 1.713358 0.580334
v -0.164469 1.562551 0.523970
v -0.074371 1.408775 0.512352
v -0.009225 1.928104 1.727986
v -0.039677 2.052848 1.603843
v -0.065866 2.141208 1.450853
v -0.086007 2.187167 1.279442
v -0.098726 2.187591 1.101291
v -0.103158 2.142452 0.928541
v -0.099001 2.054824 0.772965
v -0.086537 1.930681 0.645166
v -0.066617 1.778483 0.553852
v -0.040596 1.608601 0.505245
v -0.010250 1.432611 0.502660
v 0.059863 1.927376 1.728224
v 0.093790 2.051439 1.604301
v 0.122885 2.139218 1.451500
v 0.145165 2.184730 1.280234
v 0.159112 2.184872 1.102175
v 0.163775 2.139636 0.929457
v 0.158837 2.052106 0.773849
v 0.144634 1.928244 0.645959
v 0.122134 1.776493 0.554498
v 0.092871 1.607193 0.505703
v 0.058838 1.431883 0.502896
v 0.123399 1.902192 1.738354
v 0.216532 2.002789 1.623871
v 0.296469 2.070415 1.479177
v 0.357761 2.100463 1.314131
v 0.396233 2.090886 1.139983
v 0.409260 2.042334 0.968598
v 0.395958 1.958119 0.811657
v 0.357230 1.843977 0.679856
v 0.295718 1.707689 0.582176
v 0.215613 1.558542 0.525273
v 0.122374 1.406699 0.513027
v 0.171711 1.856388 1.756836
v 0.309864 1.914301 1.659575
v 0.428459 1.945274 1.529670
v 0.519416 1.947198 1.375973
v 0.576534 1.919939 1.208958
v 0.595923 1.865359 1.040006
v 0.576260 1.787172 0.880633
v 0.518885 1.690712 0.741697
v 0.427709 1.582548 0.632670
v 0.308945 1.470054 0.560978
v 0.170686 1.360895 0.531509
v 0.197444 1.796936 1.780855
v 0.359575 1.799447 1.705978
v 0.498762 1.782847 1.595293
v 0.605519 1.748266 1.456344
v 0.672570 1.698061 1.298599
v 0.695346 1.635653 1.132810
v 0.672295 1.565295 0.970275
v 0.604988 1.491780 0.822068
v 0.498011 1.420121 0.698292
v 0.358656 1.355201 0.607380
v 0.196418 1.301442 0.555529
v 0.196679 1.732887 1.806756
v 0.358099 1.675714 1.756013
v 0.046526 1.871795 1.759912
v -0.046152 1.868073 1.759360
v 0.095874 1.867310 1.759405
v 0.002421 1.873652 1.758968
v 0.043887 1.668683 1.842204
v 0.092276 1.671354 1.838969
v 0.000554 1.669344 1.842003
v -0.048002 1.672525 1.838560
vn 0.8517 0.0185 0.5237
vn 0.7982 -0.4109 0.4404
vn 0.9465 -0.0893 0.3102
vn -0.0008 -0.3749 -0.9271
vn 0.2673 -0.4129 -0.8707
vn 0.2253 -0.5040 -0.8338
vn 0.5017 0.2241 0.8355
vn 0.2275 0.2165 0.9494
vn 0.4232 0.0538 0.9044
vn 0.6992 -0.3988 -0.5934
vn 0.7176 -0.6405 -0.2735
vn 0.5896 -0.6366 -0.4971
vn 0.8253 -0.5238 0.2111
vn 0.9786 -0.1912 0.0765
vn 0.5907 -0.1125 0.7990
vn 0.7003 0.1254 0.7028
vn 0.5004 -0.4199 -0.7572
vn 0.4219 -0.5902 -0.6882
vn 0.7978 -0.6020 -0.0321
vn 0.9461 -0.2804 -0.1623
vn 0.7183 -0.2708 0.6408
vn 0.2684 0.3079 0.9128
vn 0.0009 0.3748 0.9271
vn 0.8509 -0.3512 -0.3906
vn 0.2791 -0.7197 -0.6358
vn 0.5281 -0.8465 0.0670
vn 0.3912 -0.2933 0.8723
vn 0.4757 -0.4908 0.7300
vn 0.1489 -0.5733 -0.8057
vn 0.0729 0.2708 0.9599
vn 0.4749 -0.8605 -0.1843
vn 0.5285 -0.6555 0.5395
vn 0.2804 -0.0756 0.9569
vn 0.3901 -0.8174 -0.4238
vn 0.5463 -0.7766 0.3136
vn 0.1506 0.1483 0.9774
vn 0.0950 -0.1446 0.9849
vn 0.1599 -0.9776 -0.1367
vn 0.1312 -0.9137 -0.3847
vn 0.1783 -0.7856 0.5924
vn 0.1842 -0.9113 0.3683
vn 0.1323 -0.3895 0.9115
vn 0.0937 -0.7886 -0.6077
vn 0.1779 -0.9767 0.1199
vn 0.1607 -0.6079 0.7776
vn 0.0497 -0.6101 -0.7907
vn 0.0512 0.1110 0.9925
vn -0.1061 -0.7865 -0.6084
vn -0.0572 -0.6090 -0.7911
vn 0.0248 0.2527 0.9672
vn -0.0557 0.1121 0.9921
vn -0.1795 -0.9740 -0.1379
vn -0.1788 -0.6043 0.7764
vn -0.1989 -0.7816 0.5911
vn -0.1048 -0.1425 0.9842
vn -0.1478 -0.9107 -0.3857
vn -0.2059 -0.9071 0.3670
vn -0.1467 -0.3866 0.9105
vn -0.1993 -0.9727 0.1186
vn -0.4033 -0.2849 0.8696
vn -0.2898 -0.7137 -0.6377
vn -0.5463 -0.8352 0.0633
vn -0.4909 -0.4806 0.7266
vn -0.1554 -0.5701 -0.8068
vn -0.0729 0.2718 0.9596
vn -0.1539 0.1510 0.9765
vn -0.4917 -0.8503 -0.1876
vn -0.5459 -0.6441 0.5358
vn -0.2885 -0.0696 0.9549
vn -0.4044 -0.8090 -0.4266
vn -0.5647 -0.7649 0.3098
vn -0.2302 -0.4992 -0.8354
vn -0.4282 0.0628 0.9015
vn -0.7290 -0.6253 -0.2784
vn -0.5994 -0.6241 -0.5012
vn -0.8097 -0.3940 0.4349
vn -0.8376 -0.5063 0.2054
vn -0.5984 -0.0999 0.7950
vn -0.4295 -0.5812 -0.6911
vn -0.8101 -0.5851 -0.0376
vn -0.7283 -0.2556 0.6358
vn -0.2287 0.2219 0.9479
vn -0.8547 0.0365 0.5178
vn -0.2700 -0.4073 -0.8725
vn -0.2685 0.3138 0.9107
vn -0.9506 -0.2604 -0.1688
vn -0.8555 -0.3332 -0.3964
vn -0.9502 -0.0693 0.3037
vn -0.5026 0.2347 0.8321
vn -0.7034 -0.3840 -0.5982
vn -0.9829 -0.1705 0.0698
vn -0.7023 0.1402 0.6980
vn -0.5039 -0.4093 -0.7606
vn -0.5004 0.4199 0.7572
vn -0.6992 0.3988 0.5934
vn -0.5017 -0.2241 -0.8355
vn -0.9465 0.0893 -0.3102
vn -0.8509 0.3512 0.3906
vn -0.2688 -0.3082 -0.9126
vn -0.2673 0.4129 0.8707
vn -0.8517 -0.0185 -0.5237
vn -0.9461 0.2804 0.1623
vn -0.7003 -0.1254 -0.7028
vn -0.9786 0.1912 -0.0765
vn -0.7176 0.6405 0.2735
vn -0.7978 0.6020 0.0321
vn -0.2268 -0.2171 -0.9494
vn -0.2253 0.5040 0.8338
vn -0.4219 0.5902 0.6882
vn -0.5907 0.1125 -0.7990
vn -0.8253 0.5238 -0.2111
vn -0.5896 0.6366 0.4971
vn -0.4232 -0.0538 -0.9044
vn -0.7982 0.4109 -0.4404
vn -0.7183 0.2708 -0.6408
vn -0.3901 0.8174 0.4238
vn -0.4749 0.8605 0.1843
vn -0.2804 0.0756 -0.9569
vn -0.1504 -0.1478 -0.9775
vn -0.0705 0.4731 0.8782
vn -0.4757 0.4908 -0.7300
vn -0.5281 0.8465 -0.0670
vn -0.2791 0.7197 0.6358
vn -0.3912 0.2933 -0.8723
vn -0.5463 0.7766 -0.3136
vn -0.5285 0.6555 -0.5395
vn -0.1779 0.9767 -0.1199
vn -0.1842 0.9113 -0.3683
vn -0.1312 0.9137 0.3847
vn -0.1323 0.3895 -0.9115
vn -0.0950 0.1446 -0.9849
vn -0.1783 0.7856 -0.5924
vn -0.1599 0.9776 0.1367
vn -0.0512 -0.1110 -0.9925
vn -0.0497 0.6101 0.7907
vn -0.1489 0.5733 0.8057
vn -0.1607 0.6079 -0.7776
vn -0.0937 0.7886 0.6077
vn 0.1795 0.9740 0.1379
vn 0.1993 0.9727 -0.1186
vn 0.0557 -0.1121 -0.9921
vn 0.1061 0.7865 0.6084
vn 0.1467 0.3866 -0.9105
vn 0.2059 0.9071 -0.3670
vn 0.1478 0.9107 0.3857
vn 0.1048 0.1425 -0.9842
vn 0.1989 0.7816 -0.5911
vn -0.0233 0.4906 0.8711
vn 0.0571 0.6090 0.7911
vn 0.1788 0.6043 -0.7764
vn 0.5459 0.6441 -0.5358
vn 0.4917 0.8503 0.1876
vn 0.2885 0.0696 -0.9549
vn 0.1539 -0.1510 -0.9765
vn 0.0745 0.4715 0.8787
vn 0.1554 0.5701 0.8068
vn 0.4909 0.4806 -0.7266
vn 0.5463 0.8352 -0.0633
vn 0.2898 0.7137 0.6377
vn 0.4033 0.2849 -0.8696
vn 0.5647 0.7649 -0.3098
vn 0.4044 0.8090 0.4266
vn 0.8376 0.5063 -0.2054
vn 0.4295 0.5812 0.6911
vn 0.5994 0.6241 0.5012
vn 0.4282 -0.0628 -0.9015
vn 0.8097 0.3940 -0.4349
vn 0.7290 0.6253 0.2784
vn 0.2287 -0.2219 -0.9479
vn 0.2302 0.4992 0.8354
vn 0.7283 0.2556 -0.6358
vn 0.8101 0.5851 0.0376
vn 0.5984 0.0999 -0.7950
vn 0.8547 -0.0365 -0.5178
vn 0.8555 0.3332 0.3964
vn 0.9506 0.2604 0.1688
vn 0.2685 -0.3138 -0.9107
vn 0.5039 0.4093 0.7606
vn 0.7023 -0.1401 -0.6980
vn 0.9829 0.1705 -0.0698
vn 0.7034 0.3840 0.5982
vn 0.5026 -0.2347 -0.8321
vn 0.9502 0.0693 -0.3037
vn 0.2700 0.4073 0.8725
vn 0.0276 0.4901 0.8712
vn -0.0261 0.2533 0.9670
vt 0.046866 0.516235
vt 0.015128 0.516235
s 1
usemtl Atlas.001
f 2/1/1 14/1/2 3/1/3
f 99/1/4 9/1/5 20/1/6
f 178/1/7 10/1/8 11/1/9
f 7/1/10 17/1/11 18/1/12
f 3/1/3 15/1/13 4/1/14
f 178/1/7 12/1/15 1/1/16
f 8/1/17 18/1/12 19/1/18
f 4/1/14 16/1/19 5/1/20
f 1/1/16 13/1/21 2/1/1
f 9/1/5 19/1/18 20/1/6
f 177/2/22 21/2/23 10/2/8
f 6/1/24 16/1/19 17/1/11
f 18/1/12 31/1/25 19/1/18
f 15/1/13 28/1/26 16/1/19
f 13/1/21 24/1/27 25/1/28
f 19/1/18 32/1/29 20/1/6
f 10/2/8 21/2/23 184/2/30
f 17/1/11 28/1/26 29/1/31
f 14/1/2 25/1/28 26/1/32
f 99/1/4 20/1/6 32/1/29
f 10/1/8 23/1/33 11/1/9
f 17/1/11 30/1/34 18/1/12
f 15/1/13 26/1/32 27/1/35
f 12/1/15 23/1/33 24/1/27
f 22/1/36 34/1/37 23/1/33
f 30/1/34 40/1/38 41/1/39
f 27/1/35 37/1/40 38/1/41
f 23/1/33 35/1/42 24/1/27
f 30/1/34 42/1/43 31/1/25
f 28/1/26 38/1/41 39/1/44
f 24/1/27 36/1/45 25/1/28
f 32/1/29 42/1/43 43/1/46
f 184/1/30 33/1/47 22/1/36
f 29/1/31 39/1/44 40/1/38
f 25/1/28 37/1/40 26/1/32
f 99/1/4 32/1/29 43/1/46
f 43/1/46 53/1/48 54/1/49
f 183/1/50 44/1/51 33/1/47
f 39/1/44 51/1/52 40/1/38
f 37/1/40 47/1/53 48/1/54
f 99/1/4 43/1/46 54/1/49
f 33/1/47 45/1/55 34/1/37
f 41/1/39 51/1/52 52/1/56
f 37/1/40 49/1/57 38/1/41
f 35/1/42 45/1/55 46/1/58
f 41/1/39 53/1/48 42/1/43
f 39/1/44 49/1/57 50/1/59
f 36/1/45 46/1/58 47/1/53
f 45/1/55 57/1/60 46/1/58
f 52/1/56 64/1/61 53/1/48
f 49/1/57 61/1/62 50/1/59
f 46/1/58 58/1/63 47/1/53
f 53/1/48 65/1/64 54/1/49
f 44/1/51 186/1/65 55/1/66
f 50/1/59 62/1/67 51/1/52
f 48/1/54 58/1/63 59/1/68
f 99/1/4 54/1/49 65/1/64
f 45/1/55 55/1/66 56/1/69
f 51/1/52 63/1/70 52/1/56
f 48/1/54 60/1/71 49/1/57
f 99/1/4 65/1/64 76/1/72
f 55/1/66 67/1/73 56/1/69
f 63/1/70 73/1/74 74/1/75
f 60/1/71 70/1/76 71/1/77
f 57/1/60 67/1/73 68/1/78
f 63/1/70 75/1/79 64/1/61
f 60/1/71 72/1/80 61/1/62
f 57/1/60 69/1/81 58/1/63
f 65/1/64 75/1/79 76/1/72
f 55/1/66 186/1/65 66/1/82
f 62/1/67 72/1/80 73/1/74
f 59/1/68 69/1/81 70/1/76
f 68/1/78 80/1/83 69/1/81
f 75/1/79 87/1/84 76/1/72
f 66/2/82 21/2/23 77/2/85
f 73/1/74 83/1/86 84/1/87
f 69/1/81 81/1/88 70/1/76
f 99/1/4 76/1/72 87/1/84
f 67/1/73 66/1/82 78/1/89
f 73/1/74 85/1/90 74/1/75
f 71/1/77 81/1/88 82/1/91
f 68/1/78 78/1/89 79/1/92
f 74/1/75 86/1/93 75/1/79
f 72/1/80 82/1/91 83/1/86
f 79/1/92 89/1/94 90/1/95
f 85/1/90 97/1/96 86/1/93
f 82/1/91 94/1/97 83/1/86
f 79/1/92 91/1/98 80/1/83
f 87/1/84 97/1/96 98/1/99
f 77/2/85 21/2/23 88/2/100
f 83/1/86 95/1/101 84/1/87
f 81/1/88 91/1/98 92/1/102
f 99/1/4 87/1/84 98/1/99
f 78/2/89 88/2/100 89/2/94
f 84/1/87 96/1/103 85/1/90
f 81/1/88 93/1/104 82/1/91
f 92/1/102 103/1/105 104/1/106
f 99/1/4 98/1/99 110/1/107
f 89/1/94 100/1/108 101/1/109
f 95/1/101 108/1/110 96/1/103
f 92/1/102 105/1/111 93/1/104
f 89/1/94 102/1/112 90/1/95
f 97/1/96 108/1/110 109/1/113
f 94/1/97 105/1/111 106/1/114
f 90/1/95 103/1/105 91/1/98
f 97/1/96 110/1/107 98/1/99
f 88/2/100 21/2/23 100/2/108
f 95/1/101 106/1/114 107/1/115
f 103/1/105 113/1/116 114/1/117
f 110/1/107 120/1/118 121/1/119
f 100/2/108 21/2/23 180/2/120
f 106/1/114 118/1/121 107/1/115
f 104/1/106 114/1/117 115/1/122
f 99/1/4 110/1/107 121/1/119
f 100/1/108 112/1/123 101/1/109
f 107/1/115 119/1/124 108/1/110
f 105/1/111 115/1/122 116/1/125
f 101/1/109 113/1/116 102/1/112
f 108/1/110 120/1/118 109/1/113
f 105/1/111 117/1/126 106/1/114
f 116/1/125 126/1/127 127/1/128
f 112/1/123 124/1/129 113/1/116
f 120/1/118 130/1/130 131/1/131
f 117/1/126 127/1/128 128/1/132
f 113/1/116 125/1/133 114/1/117
f 121/1/119 131/1/131 132/1/134
f 180/1/120 122/1/135 111/1/136
f 118/1/121 128/1/132 129/1/137
f 114/1/117 126/1/127 115/1/122
f 99/1/4 121/1/119 132/1/134
f 112/1/123 122/1/135 123/1/138
f 118/1/121 130/1/130 119/1/124
f 126/1/127 136/1/139 137/1/140
f 99/1/4 132/1/134 143/1/141
f 122/1/135 134/1/142 123/1/138
f 129/1/137 141/1/143 130/1/130
f 126/1/127 138/1/144 127/1/128
f 123/1/138 135/1/145 124/1/129
f 131/1/131 141/1/143 142/1/146
f 127/1/128 139/1/147 128/1/132
f 125/1/133 135/1/145 136/1/139
f 131/1/131 143/1/141 132/1/134
f 182/1/148 133/1/149 122/1/135
f 128/1/132 140/1/150 129/1/137
f 138/1/144 150/1/151 139/1/147
f 135/1/145 147/1/152 136/1/139
f 143/1/141 153/1/153 154/1/154
f 133/1/149 181/1/155 144/1/156
f 140/1/150 150/1/151 151/1/157
f 137/1/140 147/1/152 148/1/158
f 99/1/4 143/1/141 154/1/154
f 134/1/142 144/1/156 145/1/159
f 141/1/143 151/1/157 152/1/160
f 137/1/140 149/1/161 138/1/144
f 135/1/145 145/1/159 146/1/162
f 142/1/146 152/1/160 153/1/153
f 148/1/158 160/1/163 149/1/161
f 146/1/162 156/1/164 157/1/165
f 152/1/160 164/1/166 153/1/153
f 150/1/151 160/1/163 161/1/167
f 146/1/162 158/1/168 147/1/152
f 153/1/153 165/1/169 154/1/154
f 144/1/156 181/1/155 155/1/170
f 150/1/151 162/1/171 151/1/157
f 148/1/158 158/1/168 159/1/172
f 99/1/4 154/1/154 165/1/169
f 144/1/156 156/1/164 145/1/159
f 152/1/160 162/1/171 163/1/173
f 161/1/167 173/1/174 162/1/171
f 159/1/172 169/1/175 170/1/176
f 99/1/4 165/1/169 176/1/177
f 156/1/164 155/1/170 167/1/178
f 163/1/173 173/1/174 174/1/179
f 159/1/172 171/1/180 160/1/163
f 156/1/164 168/1/181 157/1/165
f 164/1/166 174/1/179 175/1/182
f 161/1/167 171/1/180 172/1/183
f 158/1/168 168/1/181 169/1/175
f 165/1/169 175/1/182 176/1/177
f 172/1/183 4/1/14 5/1/20
f 169/1/175 1/1/16 2/1/1
f 175/1/182 9/1/5 176/1/177
f 166/2/184 21/2/23 177/2/22
f 173/1/174 5/1/20 6/1/24
f 169/1/175 3/1/3 170/1/176
f 99/1/4 176/1/177 9/1/5
f 167/2/178 177/2/22 178/2/7
f 173/1/174 7/1/10 174/1/179
f 170/1/176 4/1/14 171/1/180
f 168/1/181 178/1/7 1/1/16
f 174/1/179 8/1/17 175/1/182
f 179/2/185 182/2/148 21/2/23
f 100/2/108 89/2/94 88/2/100
f 182/2/148 180/2/120 21/2/23
f 155/2/170 21/2/23 166/2/184
f 181/2/155 179/2/185 21/2/23
f 167/2/178 155/2/170 166/2/184
f 180/1/120 111/1/136 100/1/108
f 155/2/170 181/2/155 21/2/23
f 184/1/30 22/1/36 10/1/8
f 10/2/8 178/2/7 177/2/22
f 185/2/186 183/2/50 21/2/23
f 78/2/89 66/2/82 77/2/85
f 66/2/82 186/2/65 21/2/23
f 183/2/50 184/2/30 21/2/23
f 186/2/65 185/2/186 21/2/23
f 2/1/1 13/1/21 14/1/2
f 7/1/10 6/1/24 17/1/11
f 3/1/3 14/1/2 15/1/13
f 178/1/7 11/1/9 12/1/15
f 8/1/17 7/1/10 18/1/12
f 4/1/14 15/1/13 16/1/19
f 1/1/16 12/1/15 13/1/21
f 9/1/5 8/1/17 19/1/18
f 6/1/24 5/1/20 16/1/19
f 18/1/12 30/1/34 31/1/25
f 15/1/13 27/1/35 28/1/26
f 13/1/21 12/1/15 24/1/27
f 19/1/18 31/1/25 32/1/29
f 17/1/11 16/1/19 28/1/26
f 14/1/2 13/1/21 25/1/28
f 10/1/8 22/1/36 23/1/33
f 17/1/11 29/1/31 30/1/34
f 15/1/13 14/1/2 26/1/32
f 12/1/15 11/1/9 23/1/33
f 22/1/36 33/1/47 34/1/37
f 30/1/34 29/1/31 40/1/38
f 27/1/35 26/1/32 37/1/40
f 23/1/33 34/1/37 35/1/42
f 30/1/34 41/1/39 42/1/43
f 28/1/26 27/1/35 38/1/41
f 24/1/27 35/1/42 36/1/45
f 32/1/29 31/1/25 42/1/43
f 184/1/30 183/1/50 33/1/47
f 29/1/31 28/1/26 39/1/44
f 25/1/28 36/1/45 37/1/40
f 43/1/46 42/1/43 53/1/48
f 183/1/50 185/1/186 44/1/51
f 39/1/44 50/1/59 51/1/52
f 37/1/40 36/1/45 47/1/53
f 33/1/47 44/1/51 45/1/55
f 41/1/39 40/1/38 51/1/52
f 37/1/40 48/1/54 49/1/57
f 35/1/42 34/1/37 45/1/55
f 41/1/39 52/1/56 53/1/48
f 39/1/44 38/1/41 49/1/57
f 36/1/45 35/1/42 46/1/58
f 45/1/55 56/1/69 57/1/60
f 52/1/56 63/1/70 64/1/61
f 49/1/57 60/1/71 61/1/62
f 46/1/58 57/1/60 58/1/63
f 53/1/48 64/1/61 65/1/64
f 44/1/51 185/1/186 186/1/65
f 50/1/59 61/1/62 62/1/67
f 48/1/54 47/1/53 58/1/63
f 45/1/55 44/1/51 55/1/66
f 51/1/52 62/1/67 63/1/70
f 48/1/54 59/1/68 60/1/71
f 55/1/66 66/1/82 67/1/73
f 63/1/70 62/1/67 73/1/74
f 60/1/71 59/1/68 70/1/76
f 57/1/60 56/1/69 67/1/73
f 63/1/70 74/1/75 75/1/79
f 60/1/71 71/1/77 72/1/80
f 57/1/60 68/1/78 69/1/81
f 65/1/64 64/1/61 75/1/79
f 62/1/67 61/1/62 72/1/80
f 59/1/68 58/1/63 69/1/81
f 68/1/78 79/1/92 80/1/83
f 75/1/79 86/1/93 87/1/84
f 73/1/74 72/1/80 83/1/86
f 69/1/81 80/1/83 81/1/88
f 73/1/74 84/1/87 85/1/90
f 71/1/77 70/1/76 81/1/88
f 68/1/78 67/1/73 78/1/89
f 74/1/75 85/1/90 86/1/93
f 72/1/80 71/1/77 82/1/91
f 79/1/92 78/1/89 89/1/94
f 85/1/90 96/1/103 97/1/96
f 82/1/91 93/1/104 94/1/97
f 79/1/92 90/1/95 91/1/98
f 87/1/84 86/1/93 97/1/96
f 83/1/86 94/1/97 95/1/101
f 81/1/88 80/1/83 91/1/98
f 78/2/89 77/2/85 88/2/100
f 84/1/87 95/1/101 96/1/103
f 81/1/88 92/1/102 93/1/104
f 92/1/102 91/1/98 103/1/105
f 95/1/101 107/1/115 108/1/110
f 92/1/102 104/1/106 105/1/111
f 89/1/94 101/1/109 102/1/112
f 97/1/96 96/1/103 108/1/110
f 94/1/97 93/1/104 105/1/111
f 90/1/95 102/1/112 103/1/105
f 97/1/96 109/1/113 110/1/107
f 95/1/101 94/1/97 106/1/114
f 103/1/105 102/1/112 113/1/116
f 110/1/107 109/1/113 120/1/118
f 106/1/114 117/1/126 118/1/121
f 104/1/106 103/1/105 114/1/117
f 100/1/108 111/1/136 112/1/123
f 107/1/115 118/1/121 119/1/124
f 105/1/111 104/1/106 115/1/122
f 101/1/109 112/1/123 113/1/116
f 108/1/110 119/1/124 120/1/118
f 105/1/111 116/1/125 117/1/126
f 116/1/125 115/1/122 126/1/127
f 112/1/123 123/1/138 124/1/129
f 120/1/118 119/1/124 130/1/130
f 117/1/126 116/1/125 127/1/128
f 113/1/116 124/1/129 125/1/133
f 121/1/119 120/1/118 131/1/131
f 180/1/120 182/1/148 122/1/135
f 118/1/121 117/1/126 128/1/132
f 114/1/117 125/1/133 126/1/127
f 112/1/123 111/1/136 122/1/135
f 118/1/121 129/1/137 130/1/130
f 126/1/127 125/1/133 136/1/139
f 122/1/135 133/1/149 134/1/142
f 129/1/137 140/1/150 141/1/143
f 126/1/127 137/1/140 138/1/144
f 123/1/138 134/1/142 135/1/145
f 131/1/131 130/1/130 141/1/143
f 127/1/128 138/1/144 139/1/147
f 125/1/133 124/1/129 135/1/145
f 131/1/131 142/1/146 143/1/141
f 182/1/148 179/1/185 133/1/149
f 128/1/132 139/1/147 140/1/150
f 138/1/144 149/1/161 150/1/151
f 135/1/145 146/1/162 147/1/152
f 143/1/141 142/1/146 153/1/153
f 133/1/149 179/1/185 181/1/155
f 140/1/150 139/1/147 150/1/151
f 137/1/140 136/1/139 147/1/152
f 134/1/142 133/1/149 144/1/156
f 141/1/143 140/1/150 151/1/157
f 137/1/140 148/1/158 149/1/161
f 135/1/145 134/1/142 145/1/159
f 142/1/146 141/1/143 152/1/160
f 148/1/158 159/1/172 160/1/163
f 146/1/162 145/1/159 156/1/164
f 152/1/160 163/1/173 164/1/166
f 150/1/151 149/1/161 160/1/163
f 146/1/162 157/1/165 158/1/168
f 153/1/153 164/1/166 165/1/169
f 150/1/151 161/1/167 162/1/171
f 148/1/158 147/1/152 158/1/168
f 144/1/156 155/1/170 156/1/164
f 152/1/160 151/1/157 162/1/171
f 161/1/167 172/1/183 173/1/174
f 159/1/172 158/1/168 169/1/175
f 163/1/173 162/1/171 173/1/174
f 159/1/172 170/1/176 171/1/180
f 156/1/164 167/1/178 168/1/181
f 164/1/166 163/1/173 174/1/179
f 161/1/167 160/1/163 171/1/180
f 158/1/168 157/1/165 168/1/181
f 165/1/169 164/1/166 175/1/182
f 172/1/183 171/1/180 4/1/14
f 169/1/175 168/1/181 1/1/16
f 175/1/182 8/1/17 9/1/5
f 173/1/174 172/1/183 5/1/20
f 169/1/175 2/1/1 3/1/3
f 167/2/178 166/2/184 177/2/22
f 173/1/174 6/1/24 7/1/10
f 170/1/176 3/1/3 4/1/14
f 168/1/181 167/1/178 178/1/7
f 174/1/179 7/1/10 8/1/17
o GreenSpiky_Blob_Sphere.000
v 0.510462 2.427615 -0.977815
v 0.686583 1.272128 -1.524482
v 0.741702 0.792584 -1.323931
v 1.207805 1.341021 -1.258986
v 1.137056 1.008198 -1.203924
v 1.697185 1.236097 -0.147776
v 1.451584 1.531096 -0.847258
v 1.603940 0.829002 -0.061275
v 1.524859 1.109799 -0.788037
v 1.148868 2.375951 0.001709
v 1.119635 1.679585 -1.177837
v 1.012912 2.084174 0.903828
v 1.628636 1.035886 0.652755
v 1.326886 1.565005 1.198160
v 1.351441 1.150930 1.273519
v 0.700875 1.726717 1.401240
v 1.007063 1.586959 1.432778
v 0.853944 1.063988 1.585139
v 0.504977 2.341681 1.112402
v 0.564125 1.162442 1.680244
v 0.643670 0.322753 -0.813870
v 1.129843 0.581269 -0.803209
v 0.639884 0.511886 1.325365
v 0.861555 0.247228 0.678831
v 1.103469 0.679838 1.175740
v 0.167960 2.855193 -0.478317
v 0.687675 2.771850 0.042977
v 0.461063 2.712835 0.659201
v 1.303570 0.457104 -0.188640
v 0.672963 0.103806 -0.079701
v 0.670690 2.566758 -0.720294
v 0.299717 1.079374 1.362520
v 0.620011 1.675507 -1.439736
v 1.002630 2.452189 -0.396368
v 1.568979 1.487809 0.685192
v 1.399466 0.560821 0.429480
v 0.509378 1.329944 1.271293
v 0.379076 1.750012 1.038505
v 0.464909 2.116687 1.229655
v 0.932136 2.497073 0.515847
v -0.002296 1.765144 -1.567949
v -0.599931 2.376349 -0.975329
v -0.680332 1.277891 -1.527397
v -0.591940 0.742668 -1.344847
v -0.897069 1.601779 -1.375100
v -1.097634 0.912041 -1.178642
v -1.611407 1.421039 -0.425222
v -1.297944 1.578457 -1.095258
v -1.685577 1.011488 -0.095674
v -1.527178 1.105962 -0.780913
v -1.238886 2.231192 -0.014823
v -1.009278 2.530948 -0.232676
v -1.566996 1.501772 0.671346
v -1.631420 1.039150 0.647560
v -1.328603 1.567278 1.195211
v -1.352765 1.151607 1.274004
v -0.703193 1.729373 1.401634
v -1.008232 1.593845 1.430546
v -0.009889 0.904489 1.804189
v -0.861771 1.066782 1.583536
v 0.003769 2.570608 1.086189
v -0.480700 2.449970 1.027195
v -0.647068 0.321040 -0.808980
v -1.196139 0.567999 -0.692117
v -0.678666 0.189280 0.677780
v -0.613536 0.511830 1.338652
v -1.256368 0.480341 0.612338
v -1.104081 0.674613 1.168372
v -0.502219 2.829128 -0.129271
v -0.448930 2.697548 -0.650406
v -0.453798 2.771727 0.557298
v -0.933141 2.551252 0.382935
v -1.319189 0.450917 -0.030611
v -0.674055 0.103972 -0.073450
v -0.843793 2.494479 -0.621099
v -0.406739 1.171750 1.326669
v -0.189473 1.905191 0.955926
v 0.007205 2.558359 -1.024930
v -0.002564 1.266513 -1.680743
v 0.014188 0.618674 -1.402352
v -1.205046 1.240802 -1.244580
v 0.005356 2.303366 1.154582
v -0.000443 0.228631 -0.920138
v -0.000759 0.057252 0.737548
v 0.011372 0.423548 1.441643
v 0.010896 2.926793 0.316263
v 0.000301 -0.055732 -0.073458
v -0.049064 0.945161 1.475972
v -0.510038 1.566112 1.150229
v -0.614903 1.240067 1.655385
v -0.460665 2.122129 1.230352
v -0.827854 2.426225 0.754756
v 0.962016 2.829866 0.471936
v 0.962211 2.834380 0.697595
v 1.198475 3.639438 0.370273
v 0.803691 2.977630 0.465842
v 0.414844 2.411772 0.613635
v 0.774086 2.236557 0.613578
v 1.260217 3.615488 0.374388
v 0.846356 3.044796 0.677336
v 1.124510 3.817134 -0.928774
v 0.890829 2.889027 -0.625450
v 0.708113 3.066384 -0.628644
v 1.123776 3.762585 -0.977576
v 1.074548 3.799686 -0.972179
v 0.734378 2.255555 -0.121544
v 0.699345 3.305821 0.092602
v 0.668218 3.162931 -0.106915
v 0.468061 3.306675 -0.110237
v 0.817874 4.090485 -0.426202
v 0.797479 4.141755 -0.375421
v 0.761656 4.108696 -0.417244
v 0.504300 3.367756 0.090245
v 1.423374 2.276762 0.453979
v 1.124788 1.821686 0.326134
v 1.256583 2.327217 0.339673
v 1.607358 2.719017 0.209297
v 1.363026 2.411608 0.449018
v 1.596126 2.752318 0.235521
v 1.321353 2.648615 -0.341593
v 1.491345 2.530328 -0.415246
v 1.375787 2.427279 -0.587454
v 1.221594 2.633412 -0.533196
v 1.631232 3.302670 -0.940432
v 1.597275 3.358694 -0.902193
v 1.078040 2.432091 -1.232894
v 1.142848 2.513476 -1.035777
v 1.322374 3.057200 -1.738700
v 0.916477 2.601735 -1.247180
v 1.378516 3.021399 -1.742454
v 1.049368 2.725808 -1.113130
v 0.596035 2.746830 -1.228260
v 0.649003 2.821128 -1.024821
v 0.718169 3.447073 -1.679361
v 0.407185 2.885055 -1.227596
v 0.779623 3.422441 -1.686261
v 0.518586 3.019115 -1.083609
v 1.559353 2.068906 -1.253813
v 1.394608 1.930978 -1.366755
v 1.273204 2.130190 -1.334079
v 1.685598 2.489774 -1.886692
v 1.481977 2.261273 -1.304185
v 1.652888 2.535625 -1.872272
v 0.805732 1.690919 -1.575243
v 0.734845 1.519564 -1.715111
v 0.554464 1.665037 -1.751138
v 0.953882 2.050668 -2.296710
v 0.947160 2.115046 -2.267197
v 0.906304 2.083548 -2.299117
v 0.622721 1.776289 -1.586645
v 0.692495 2.455734 -1.576264
v 0.598225 2.252556 -1.659177
v 0.411081 2.399282 -1.665075
v 0.796225 2.884375 -2.141400
v 0.538322 2.529664 -1.515127
v 0.748016 2.915833 -2.137308
v 1.533853 1.598005 0.534593
v 1.367458 1.643341 0.449863
v 1.742970 1.967259 0.327738
v 1.441184 1.654819 0.585399
v 1.735699 2.000202 0.351880
v 0.443606 2.380525 0.793656
v 0.731649 2.239988 0.793631
v 0.749708 2.229820 0.452448
v 0.424528 2.388273 0.452477
v 0.438135 2.443340 -0.103600
v 0.588312 2.388920 -0.086050
v 0.803907 3.195935 -0.443767
v 0.666908 2.144633 -0.447591
v 0.379216 2.435283 -0.254056
v 0.341597 2.357990 -0.422839
v 0.506095 2.257720 -0.474295
v 0.407509 2.588261 0.406883
v 0.555698 2.483123 0.363477
v 0.520512 2.379664 0.039118
v 0.250859 2.619840 0.386045
v 0.193316 2.604618 0.215576
v 0.181313 2.529999 0.057601
v 1.012996 1.922110 0.590093
v 1.178347 1.802281 0.542980
v 0.957182 1.946018 0.365768
v 1.160110 1.916207 -0.016746
v 1.256675 1.771219 -0.099923
v 1.115472 1.709893 -0.393590
v 1.013816 2.004904 0.011721
v 0.835600 1.975417 -0.272409
v 0.965146 1.855560 -0.371584
v 0.877161 1.994778 -0.776063
v 0.652471 2.269774 -0.602855
v 0.905013 2.068919 -0.624040
v 0.573576 2.235664 -0.751241
v 0.797934 1.920981 -0.912652
v 0.508820 2.149932 -0.889674
v 0.482911 2.242511 -0.809838
v 0.216773 2.456539 -0.613341
v 0.500130 2.307095 -0.652119
v 0.142493 2.421544 -0.763864
v 0.415386 2.167567 -0.952068
v 0.091325 2.337694 -0.908895
v 1.071599 1.783833 -0.674465
v 1.266054 1.540275 -0.762604
v 1.077595 1.452442 -1.032241
v 0.853946 1.730846 -0.932540
v 0.319085 1.385177 -1.071446
v 0.594077 1.216032 -1.066032
v 0.511322 1.022391 -1.334490
v 0.196435 1.215105 -1.341638
v 0.196973 1.994791 -1.043107
v 0.475231 1.834521 -1.071495
v 0.391205 1.689060 -1.368694
v 0.072872 1.871775 -1.337310
v 1.077237 1.299797 0.695755
v 1.218315 1.171989 0.641518
v 1.171169 1.199324 0.428629
v 1.018353 1.334351 0.479397
v 0.596285 2.328018 0.824264
v 0.594282 2.323796 0.426190
v 0.720283 2.207163 -0.295156
v 0.562427 2.442580 0.196937
v 0.351799 2.466649 0.017246
v 1.176414 1.807653 0.414083
v 0.954502 1.966804 0.488204
v 1.210212 1.743763 -0.258141
v 0.921571 2.017764 -0.129371
v 0.799689 2.195190 -0.597804
v 0.651567 2.036417 -0.933150
v 0.374823 2.409583 -0.615010
v 0.250861 2.256031 -0.962239
v 1.705574 2.541179 -1.851567
v 1.197395 1.681067 -0.705823
v 1.194553 1.492396 -0.910172
v 0.960863 1.783886 -0.805173
v 0.958154 1.596835 -1.013117
v 0.473999 1.330338 -1.056355
v 0.577847 1.121598 -1.207771
v 0.248213 1.323514 -1.214747
v 0.352586 1.115707 -1.369924
v 0.789779 2.939177 -2.106298
v 0.353164 1.942224 -1.040125
v 0.458105 1.766068 -1.227454
v 0.124802 1.957683 -1.193973
v 0.230268 1.783006 -1.384875
v 1.208894 1.172889 0.456624
v 1.039662 1.338524 0.585458
v -0.978656 2.994407 0.687724
v -0.962869 2.915898 0.465844
v -0.748134 2.943933 0.471938
v -1.214116 3.632610 0.354741
v -0.833406 3.096407 0.653625
v -1.160636 3.653439 0.353976
v -0.582232 2.409318 -0.077121
v -0.920674 3.046396 -0.434781
v -0.872692 2.914100 -0.625719
v -1.077543 3.846248 -0.935174
v -0.659861 3.033378 -0.612695
v -1.081923 3.792818 -0.977021
v -0.835421 3.380543 -0.568294
v -1.030762 3.826247 -0.973893
v -0.447578 3.322821 0.122804
v -0.635897 3.186020 -0.107062
v -0.663936 3.306590 0.090394
v -0.730409 4.167604 -0.373089
v -0.411844 3.266499 -0.096938
v -0.752753 4.112359 -0.424239
v -0.698438 4.136306 -0.421629
v -1.003725 1.949260 0.618683
v -1.428459 2.307117 0.443624
v -1.363488 2.271936 0.303773
v -0.946780 1.967206 0.386964
v -0.959051 1.981038 0.486727
v -1.609709 2.750756 0.219075
v -1.575825 2.779149 0.233758
v -1.321286 2.648427 -0.341471
v -1.497156 2.577550 -0.428401
v -1.359417 2.414342 -0.581837
v -1.194222 2.586018 -0.513681
v -1.633935 3.305737 -0.939961
v -1.589563 3.356270 -0.911368
v -1.210876 2.700924 -1.205582
v -1.087308 2.495434 -1.261888
v -0.869596 2.583796 -1.208777
v -1.338664 3.039229 -1.749845
v -1.035796 2.745908 -1.095957
v -1.290788 3.071192 -1.745099
v -0.674769 3.023307 -1.181050
v -0.586013 2.799710 -1.253959
v -0.369812 2.867203 -1.200212
v -0.729324 3.424630 -1.695011
v -0.496988 3.025962 -1.067316
v -0.676688 3.446753 -1.687348
v -1.378615 2.138639 -1.124295
v -1.398437 1.971601 -1.393024
v -1.535210 2.017541 -1.218215
v -1.251010 2.110256 -1.302161
v -1.687649 2.492217 -1.887889
v -1.650608 2.533508 -1.870979
v -0.849135 1.774434 -1.716888
v -0.746526 1.552593 -1.747885
v -0.520428 1.625511 -1.707985
v -0.955315 2.053429 -2.298084
v -0.669020 1.816254 -1.616299
v -0.904553 2.081002 -2.297756
v -0.673996 2.457678 -1.529133
v -0.608852 2.291566 -1.685075
v -0.391856 2.373975 -1.638435
v -0.790767 2.895445 -2.142281
v -0.523850 2.555356 -1.559013
v -0.739282 2.920606 -2.136399
v -1.518695 1.590560 0.560407
v -1.461505 1.560881 0.417685
v -1.030913 1.328552 0.491073
v -1.755724 1.988130 0.345508
v -1.445372 1.685312 0.564430
v -1.716334 1.997842 0.336782
v -0.440017 2.390921 0.793705
v -0.731169 2.258304 0.793694
v -0.749414 2.248627 0.452485
v -0.420637 2.398389 0.452463
v -0.432337 2.454695 -0.103595
v -0.721612 2.276526 -0.131095
v -0.669115 2.163962 -0.447779
v -0.373699 2.445218 -0.253977
v -0.338031 2.367161 -0.422894
v -0.505093 2.272110 -0.474316
v -0.394787 2.602256 0.406893
v -0.546287 2.502761 0.363526
v -0.514820 2.397966 0.039033
v -0.237555 2.628079 0.386034
v -0.181016 2.610647 0.215445
v -0.171427 2.535739 0.057559
v -1.171495 1.831530 0.539309
v -1.112945 1.856530 0.315879
v -1.160112 1.916214 -0.016730
v -1.256672 1.771215 -0.099930
v -1.111309 1.711193 -0.399742
v -1.013832 2.004893 0.011717
v -0.835613 1.975402 -0.272423
v -0.965142 1.855562 -0.371585
v -0.651291 2.285908 -0.602840
v -0.908727 2.091796 -0.624003
v -0.805669 1.941740 -0.912715
v -0.510671 2.162781 -0.889683
v -0.210459 2.462428 -0.613319
v -0.497667 2.321336 -0.652085
v -0.417001 2.179647 -0.952103
v -0.088294 2.340157 -0.908936
v -1.071610 1.783829 -0.674459
v -1.266056 1.540267 -0.762611
v -1.075116 1.454442 -1.032809
v -0.853947 1.730833 -0.932553
v -0.319096 1.385175 -1.071440
v -0.594082 1.216024 -1.066037
v -0.511332 1.022392 -1.334482
v -0.196442 1.215090 -1.341649
v -0.199268 1.996768 -1.043100
v -0.479187 1.839410 -1.071521
v -0.396723 1.693194 -1.368732
v -0.076381 1.872485 -1.337330
v -1.079838 1.302841 0.695760
v -1.221272 1.175390 0.641488
v -1.174057 1.202675 0.428658
v -1.201730 3.659607 0.403296
v -0.593717 2.342435 0.824264
v -0.773716 2.256146 0.613694
v -0.408750 2.422668 0.615361
v -0.591788 2.338319 0.426190
v -0.720620 2.227881 -0.295156
v -0.554453 2.462521 0.196937
v -0.343408 2.478632 0.017246
v -1.182988 1.826760 0.414228
v -1.208172 1.735600 -0.274310
v -0.921571 2.017764 -0.129371
v -1.347022 3.086246 -1.717383
v -0.800288 2.215063 -0.597804
v -0.882400 2.017694 -0.776028
v -0.573650 2.249553 -0.751280
v -0.656318 2.053266 -0.933150
v -0.729856 3.469438 -1.658691
v -0.369647 2.419968 -0.615010
v -0.481781 2.256644 -0.809776
v -0.137608 2.425097 -0.763939
v -0.249986 2.263236 -0.962239
v -1.708535 2.543500 -1.844918
v -1.197395 1.681067 -0.705823
v -1.191545 1.483716 -0.922052
v -0.960863 1.783886 -0.805173
v -0.958154 1.596835 -1.013117
v -0.958563 2.104691 -2.271691
v -0.473999 1.330338 -1.056355
v -0.577847 1.121598 -1.207771
v -0.248213 1.323514 -1.214747
v -0.352586 1.115707 -1.369924
v -0.793045 2.941277 -2.107332
v -0.355984 1.945819 -1.040125
v -0.462894 1.770925 -1.227454
v -0.127432 1.958939 -1.193973
v -0.234687 1.785349 -1.384875
v -1.232536 1.168284 0.522753
v -1.041682 1.342300 0.586887
v 0.114119 3.251471 0.653568
v 0.125131 3.076969 0.471939
v -0.080651 3.144503 0.465842
v 0.059793 3.895096 0.353976
v -0.060928 3.222239 0.687699
v 0.002566 3.899430 0.354741
v -0.155998 2.451207 0.793683
v 0.164171 2.445125 0.793658
v 0.184745 2.443553 0.452457
v -0.176712 2.450229 0.452479
v 0.025398 3.918421 0.403297
v 0.004474 2.467836 0.824264
v 0.205982 2.460266 0.615343
v -0.195346 2.467480 0.613634
v 0.004316 2.463228 0.426190
vn 0.3266 0.3790 -0.8659
vn 0.3376 0.6389 -0.6913
vn 0.5816 0.4498 -0.6778
vn 0.4641 0.7573 -0.4595
vn 0.5902 -0.3966 -0.7032
vn 0.5788 -0.6824 -0.4464
vn 0.3427 -0.5348 -0.7724
vn 0.9918 0.0908 -0.0903
vn 0.8806 -0.2240 -0.4176
vn 0.8584 0.3342 -0.3893
vn 0.8964 -0.4337 -0.0916
vn 0.6426 -0.7492 -0.1604
vn 0.6869 0.6731 -0.2740
vn 0.7926 0.6097 -0.0056
vn 0.6363 0.6975 0.3295
vn 0.9140 0.3295 0.2368
vn 0.9370 -0.2198 0.2715
vn 0.7155 -0.6759 0.1767
vn 0.4056 0.3935 0.8250
vn -0.3119 0.3517 0.8826
vn -0.1240 0.3903 0.9123
vn 0.4244 -0.1956 0.8841
vn 0.0173 0.1845 0.9827
vn 0.0093 -0.7596 0.6503
vn 0.3201 -0.7049 0.6330
vn 0.5779 -0.6027 0.5502
vn 0.7503 -0.1429 0.6454
vn -0.0020 -0.8726 -0.4885
vn 0.0149 -0.6113 -0.7913
vn 0.3150 -0.8381 -0.4453
vn 0.4032 -0.8753 0.2670
vn 0.3388 -0.9368 -0.0868
vn 0.1098 0.9498 -0.2930
vn 0.0155 0.9869 0.1607
vn 0.4520 0.8920 0.0023
vn -0.0020 0.7292 -0.6843
vn 0.3333 0.8508 0.4063
vn 0.0160 0.6635 0.7480
vn 0.3104 0.5986 0.7384
vn -0.3837 0.6298 -0.6754
vn -0.0052 0.4039 -0.9148
vn 0.0060 -0.0828 -0.9965
vn -0.3265 -0.0630 -0.9431
vn -0.4269 0.3499 -0.8339
vn -0.6434 -0.1047 -0.7583
vn -0.7460 0.3450 -0.5696
vn -0.9455 0.2687 -0.1841
vn -0.8834 -0.2125 -0.4177
vn -0.9704 -0.2310 -0.0697
vn -0.5443 -0.4874 -0.6828
vn -0.6106 -0.6906 -0.3876
vn -0.5824 0.6622 0.4715
vn -0.9179 0.3285 0.2227
vn -0.7403 0.3871 0.5497
vn -0.6421 0.7326 0.2259
vn -0.8469 0.5317 -0.0062
vn -0.4268 -0.1969 0.8826
vn 0.1334 0.4108 0.9019
vn -0.4089 0.3928 0.8237
vn -0.3203 -0.7064 0.6312
vn -0.3430 0.6600 0.6684
vn 0.1585 0.1959 0.9677
vn -0.3293 0.9397 -0.0925
vn -0.2971 0.8592 -0.4165
vn -0.3210 0.8887 0.3273
vn -0.6750 0.7210 -0.1565
vn -0.5702 0.7059 -0.4201
vn 0.1172 0.9120 0.3931
vn -0.3035 0.7570 0.5787
vn 0.4449 0.6691 0.5952
vn 0.5805 0.2252 0.7825
vn 0.2011 -0.0876 0.9757
vn 0.0186 -0.0048 0.9998
vn 0.8012 0.5645 -0.1986
vn -0.3806 0.5311 0.7570
vn 0.6979 -0.0733 0.7124
vn -0.1063 0.9556 -0.2748
vn -0.4402 0.1941 -0.8767
vn -0.8378 0.5439 0.0480
vn 0.0227 0.0384 -0.9990
vn -0.6089 0.4072 -0.6808
vn -0.5436 0.4533 0.7064
vn -0.4340 0.5377 0.7229
vn 0.2767 0.3267 0.9037
vn -0.1658 0.6228 0.7646
vn 0.8873 -0.0173 0.4608
vn 0.5943 -0.3559 -0.7213
vn 0.9535 -0.2855 -0.0970
vn 0.6077 -0.3528 -0.7115
vn 0.6399 -0.0775 -0.7646
vn 0.4882 0.8393 0.2392
vn -0.5012 0.6354 -0.5875
vn -0.8579 0.4956 0.1358
vn 0.7611 0.1777 0.6239
vn 0.2000 0.3074 0.9303
vn 0.8534 0.0224 0.5207
vn -0.7752 0.1115 -0.6218
vn -0.9250 0.3710 0.0824
vn -0.5274 0.5328 0.6618
vn 0.6902 0.1335 -0.7112
vn 0.6475 -0.2631 -0.7152
vn 0.2235 0.9385 0.2632
vn -0.5309 0.4611 0.7110
vn -0.1818 0.5504 0.8149
vn -0.1453 0.3504 0.9253
vn 0.7905 -0.1929 0.5813
vn 0.2817 0.9594 -0.0114
vn 0.3295 -0.2440 -0.9121
vn -0.5931 0.4188 -0.6876
vn -0.6999 0.4170 -0.5798
vn -0.7232 0.6378 0.2649
vn 0.7438 -0.2694 0.6117
vn 0.6432 0.3144 -0.6981
vn 0.5682 0.1864 0.8015
vn 0.9466 -0.0488 0.3187
vn -0.1133 0.6025 0.7900
vn -0.1299 0.5240 0.8417
vn 0.5440 0.3266 -0.7729
vn 0.0343 0.9848 -0.1705
vn 0.9514 -0.1951 0.2384
vn 0.3183 -0.3550 -0.8790
vn -0.7185 0.5774 0.3879
vn 0.7262 0.2260 -0.6492
vn -0.0495 0.8596 0.5085
vn 0.9072 0.0149 0.4203
vn -0.7948 0.2331 -0.5603
vn -0.3377 -0.3480 -0.8745
vn -0.7834 0.2602 -0.5645
vn 0.3948 -0.6489 -0.6504
vn 0.8653 -0.4972 -0.0629
vn 0.3972 -0.6336 -0.6639
vn -0.7044 0.7069 0.0638
vn -0.2086 0.8042 0.5565
vn 0.6638 0.4066 -0.6277
vn -0.1922 0.7903 0.5817
vn 0.8974 0.1394 0.4187
vn -0.8331 0.1346 -0.5365
vn -0.2855 -0.3274 -0.9007
vn -0.8269 0.1639 -0.5380
vn 0.4917 -0.5115 -0.7047
vn 0.9379 -0.3297 -0.1084
vn 0.4905 -0.4949 -0.7173
vn -0.8171 0.5624 0.1267
vn -0.3395 0.7038 0.6241
vn 0.1284 0.8231 0.5532
vn 0.1010 0.7649 0.6362
vn 0.9508 -0.1275 0.2822
vn 0.7086 0.6989 -0.0971
vn 0.6737 0.3155 0.6683
vn 0.9264 -0.2784 0.2535
vn -0.8253 0.4326 -0.3631
vn -0.5656 -0.1730 -0.8064
vn -0.8010 0.4760 -0.3630
vn 0.3353 -0.3208 -0.8858
vn -0.5083 0.8191 0.2660
vn -0.3067 0.8736 0.3779
vn -0.2979 0.8439 0.4461
vn 0.8544 0.2670 0.4458
vn 0.3608 0.6418 0.6767
vn 0.8776 0.1094 0.4668
vn -0.8092 0.0477 -0.5856
vn -0.2762 -0.4924 -0.8254
vn -0.7986 0.0944 -0.5945
vn 0.6198 -0.3143 -0.7191
vn 0.4294 0.8966 -0.1085
vn -0.7888 0.6140 -0.0268
vn 0.4300 0.9027 0.0157
vn -0.1597 0.7864 0.5967
vn 0.9168 0.1083 0.3843
vn 0.8849 0.0725 0.4600
vn 0.3869 0.5030 0.7729
vn -0.8307 0.1703 -0.5300
vn -0.2802 -0.3450 -0.8958
vn -0.8119 0.1743 -0.5572
vn 0.6094 -0.1765 -0.7729
vn 0.3925 0.9197 -0.0119
vn -0.0496 0.4803 0.8757
vn 0.8202 -0.3424 0.4583
vn 0.6995 -0.4475 -0.5572
vn 0.2199 -0.0506 -0.9742
vn -0.6195 0.4771 -0.6234
vn -0.6140 0.7391 0.2772
vn 0.7040 -0.3934 0.5913
vn -0.5710 0.5906 -0.5703
vn 0.6902 0.2207 -0.6892
vn -0.1330 0.4160 0.8996
vn -0.6261 0.0171 0.7796
vn -0.0612 0.1698 0.9836
vn 0.5360 0.4480 0.7155
vn 0.5235 0.5305 0.6667
vn -0.3941 -0.2214 -0.8920
vn -0.0151 0.0420 -0.9990
vn -0.7014 -0.2107 -0.6809
vn -0.4188 0.7633 0.4919
vn -0.7886 0.1730 -0.5900
vn -0.9540 -0.2955 0.0511
vn 0.4221 0.7162 -0.5557
vn -0.6980 -0.1334 0.7036
vn 0.3741 0.6431 0.6682
vn -0.4389 0.8777 0.1923
vn -0.8063 0.1117 0.5809
vn 0.5222 0.5978 -0.6083
vn 0.7681 0.1600 -0.6200
vn -0.6685 -0.0506 -0.7420
vn 0.7525 0.1833 -0.6325
vn 0.1516 -0.1738 -0.9730
vn -0.5925 -0.3464 -0.7273
vn 0.4550 0.5497 0.7006
vn 0.8708 0.4719 0.1375
vn -0.9616 -0.2653 -0.0704
vn -0.8801 -0.0409 0.4731
vn 0.5612 0.4955 -0.6630
vn 0.5192 0.5110 0.6851
vn 0.7735 0.0968 -0.6264
vn -0.7196 0.1066 -0.6862
vn -0.6472 -0.2519 -0.7195
vn -0.1858 0.9404 0.2847
vn -0.7816 0.1890 0.5945
vn -0.9872 -0.1506 -0.0519
vn -0.8501 0.0536 0.5238
vn 0.6741 0.4628 -0.5756
vn -0.2240 -0.1631 -0.9608
vn -0.2015 -0.2470 -0.9478
vn -0.0495 0.9928 -0.1094
vn -0.7627 -0.0652 0.6434
vn 0.1532 0.4138 0.8974
vn -0.7897 0.4196 -0.4475
vn -0.8427 -0.4724 -0.2583
vn -0.7398 -0.2763 0.6135
vn -0.9308 -0.0061 0.3654
vn -0.5691 0.1865 0.8008
vn 0.1292 0.6005 0.7891
vn 0.0392 0.9728 -0.2283
vn 0.8742 0.3345 -0.3519
vn -0.6213 0.3614 -0.6952
vn 0.8574 0.3571 -0.3706
vn 0.4379 -0.0622 -0.8969
vn -0.0254 -0.3220 -0.9464
vn -0.8525 -0.3820 -0.3567
vn -0.9525 -0.1858 0.2412
vn 0.0935 0.8285 0.5521
vn -0.4550 0.4936 0.7411
vn 0.2359 0.7955 0.5581
vn -0.3799 -0.6586 -0.6495
vn 0.3338 -0.3540 -0.8737
vn -0.4156 -0.6269 -0.6589
vn -0.9249 0.0585 0.3757
vn -0.8935 -0.0042 0.4491
vn 0.5238 0.5223 -0.6729
vn 0.7969 0.2425 -0.5534
vn -0.6285 0.7763 -0.0480
vn -0.8789 -0.4729 -0.0635
vn 0.2262 0.7477 0.6244
vn -0.3721 0.5037 0.7796
vn 0.3655 0.6896 0.6252
vn -0.4630 -0.5187 -0.7187
vn 0.2836 -0.3320 -0.8997
vn -0.5081 -0.4850 -0.7118
vn -0.9074 0.1909 0.3744
vn -0.8885 0.1187 0.4432
vn -0.4779 0.8782 0.0165
vn 0.6226 0.4741 -0.6225
vn -0.9476 -0.3001 -0.1093
vn 0.2835 -0.5235 -0.8035
vn 0.5728 -0.1649 -0.8030
vn -0.0949 -0.6082 -0.7881
vn -0.6941 0.7184 -0.0451
vn -0.9591 -0.1371 0.2477
vn -0.1228 0.7971 0.5912
vn -0.3572 -0.2703 -0.8941
vn -0.6987 -0.6466 -0.3061
vn 0.5221 0.6421 -0.5613
vn -0.9259 -0.2693 0.2649
vn 0.1822 0.8778 0.4431
vn -0.3906 0.6236 0.6772
vn 0.3213 0.8321 0.4520
vn -0.4530 -0.6946 -0.5588
vn 0.2816 -0.4900 -0.8250
vn -0.4857 -0.6612 -0.5717
vn -0.9077 0.1926 0.3729
vn -0.8805 0.1376 0.4536
vn 0.5571 0.3824 -0.7372
vn 0.8050 0.0945 -0.5857
vn -0.5535 0.8210 -0.1398
vn -0.9204 -0.3909 0.0032
vn -0.8373 0.2365 0.4930
vn -0.3560 0.5204 0.7762
vn 0.3192 0.7405 0.5914
vn 0.3251 0.7945 0.5129
vn -0.4937 -0.5557 -0.6689
vn 0.2836 -0.3441 -0.8951
vn -0.4919 -0.5368 -0.6855
vn -0.5319 0.8468 0.0050
vn 0.5813 0.4867 -0.6520
vn -0.7534 -0.2509 0.6079
vn -0.6721 -0.3546 0.6500
vn 0.1355 0.4042 0.9046
vn 0.1715 0.5816 0.7952
vn 0.5939 0.5357 -0.6002
vn -0.2238 -0.2087 -0.9520
vn -0.2781 -0.3431 -0.8972
vn -0.8496 0.5016 -0.1631
vn -0.7806 -0.5797 -0.2337
vn 0.0398 0.8948 -0.4448
vn -0.0478 0.8693 0.4919
vn -0.5571 0.2860 0.7797
vn 0.7013 0.2522 0.6667
vn -0.6364 0.4969 -0.5901
vn -0.4502 -0.0295 -0.8924
vn -0.9880 0.1460 0.0512
vn 0.6772 0.1725 0.7153
vn 0.0182 0.1796 0.9836
vn 0.0044 0.0444 -0.9990
vn -0.7239 0.1133 -0.6806
vn 0.6902 0.4635 -0.5557
vn -0.6874 0.1814 0.7033
vn 0.3314 -0.0492 -0.9422
vn 0.6328 0.5979 0.4920
vn 0.6406 0.0520 -0.7661
vn -0.1826 0.1567 0.9706
vn -0.3976 0.0582 0.9157
vn -0.6090 0.4542 0.6502
vn 0.7323 0.4011 0.5503
vn 0.0077 -0.9535 0.3012
vn 0.0037 -0.9963 -0.0854
vn -0.3024 -0.5608 -0.7707
vn -0.6745 -0.7351 -0.0689
vn -0.9425 -0.2246 0.2476
vn -0.7523 -0.1422 0.6433
vn -0.5681 -0.6141 0.5479
vn -0.6435 -0.7257 0.2434
vn 0.3023 0.3539 0.8851
vn -0.3261 -0.8326 -0.4478
vn -0.3344 -0.9019 0.2734
vn -0.3470 -0.9337 -0.0882
vn 0.5126 -0.2286 -0.8277
vn 0.6951 -0.2238 -0.6832
vn 0.0742 0.1524 0.9855
vn -0.1560 -0.1707 -0.9729
vn 0.9430 -0.3294 0.0470
vn 0.6892 -0.1529 0.7083
vn -0.7876 0.1956 -0.5844
vn -0.7472 0.2027 -0.6329
vn -0.1056 -0.1523 -0.9827
vn 0.6474 -0.2559 -0.7179
vn 0.9821 -0.1812 -0.0516
vn -0.6246 0.4792 -0.6166
vn -0.7203 0.1182 -0.6835
vn -0.4247 -0.0732 -0.9024
vn 0.3720 -0.3656 -0.8532
vn 0.8402 -0.4742 -0.2632
vn -0.8785 0.3259 -0.3493
vn -0.8579 0.3566 -0.3700
vn 0.8582 -0.3902 -0.3334
vn 0.4492 0.4847 0.7505
vn -0.1040 0.7781 -0.6194
vn 0.8867 -0.0486 0.4597
vn 0.3679 0.4915 0.7893
vn -0.2515 0.7967 -0.5495
vn 0.1274 -0.6394 -0.7583
vn 0.1188 -0.6205 -0.7751
vn 0.8892 0.0703 0.4521
vn -0.4867 0.6684 -0.5625
vn 0.7127 -0.6432 -0.2800
vn 0.4921 -0.6715 -0.5539
vn 0.4844 -0.6586 -0.5759
vn -0.5136 0.3354 -0.7898
vn 0.9208 -0.3901 0.0040
vn 0.4742 -0.5563 -0.6824
vn 0.4871 -0.5349 -0.6904
vn -0.3311 0.7343 0.5926
vn 0.9271 -0.3664 -0.0786
vn -0.5514 0.4684 -0.6903
vn -0.7953 0.5984 0.0969
vn 0.4880 0.2276 -0.8426
vn 0.6118 0.3918 -0.6872
vn 0.8529 0.5197 0.0498
vn -0.2713 0.3370 0.9015
vn -0.6169 -0.3362 -0.7116
vn 0.1008 -0.1547 -0.9828
vn -0.1945 0.3127 0.9297
vn 0.5523 0.4361 0.7105
vn -0.6555 -0.2338 -0.7181
vn 0.7239 0.0937 -0.6835
vn 0.9377 0.3378 0.0816
vn 0.7384 0.6390 0.2156
vn 0.1299 0.5240 0.8417
vn 0.7184 0.5775 0.3878
vn 0.7877 0.2423 -0.5664
vn -0.3389 -0.3461 -0.8749
vn 0.7214 0.6894 0.0653
vn -0.5337 -0.2694 -0.8016
vn 0.8486 0.1475 -0.5081
vn 0.8282 0.1428 -0.5420
vn 0.8325 0.5388 0.1293
vn -0.5580 -0.0987 -0.8239
vn -0.6767 0.2975 0.6735
vn 0.8125 0.4758 -0.3368
vn 0.7983 0.4758 -0.3691
vn 0.5124 0.8159 0.2680
vn 0.7960 0.0946 -0.5979
vn -0.0827 0.7543 0.6513
vn 0.7840 0.6202 -0.0267
vn -0.5726 -0.3142 -0.7573
vn 0.8233 0.1534 -0.5466
vn 0.8087 0.1707 -0.5630
vn -0.8862 0.0608 0.4594
vn 0.8074 0.5822 0.0961
vn -0.9345 -0.3473 -0.0774
vn -0.5736 -0.1595 -0.8035
vn 0.5379 -0.0058 -0.8430
vn 0.7208 0.0890 -0.6874
vn 0.6479 0.7259 0.2308
vn 0.9937 0.1001 0.0495
vt 0.078116 0.515259
vt 0.046866 0.516235
vt 0.046866 0.516235
vt 0.046866 0.516235
vt 0.046866 0.516235
vt 0.046866 0.516235
vt 0.046866 0.516235
vt 0.046866 0.516235
vt 0.046866 0.516235
vt 0.046866 0.516235
vt 0.046866 0.516235
s 1
usemtl Atlas.001
f 219/3/187 187/3/188 197/3/189
f 187/3/188 217/3/190 197/3/189
f 191/3/191 208/3/192 189/3/193
f 192/3/194 195/3/195 193/3/196
f 194/3/197 215/3/198 195/3/195
f 195/3/195 192/3/194 194/3/197
f 195/3/195 208/3/192 191/3/191
f 217/3/190 220/3/199 197/3/189
f 196/3/200 226/3/201 221/3/202
f 199/3/203 222/3/204 194/3/197
f 203/3/205 202/3/206 206/3/207
f 206/3/207 204/3/208 203/3/205
f 245/3/209 271/3/210 209/3/211
f 209/3/211 204/3/208 245/3/209
f 204/3/208 206/3/207 245/3/209
f 204/3/208 209/3/211 211/3/212
f 204/3/208 211/3/212 201/3/213
f 269/3/214 266/3/215 207/3/216
f 207/3/216 189/3/193 208/3/192
f 210/3/217 216/3/218 215/3/198
f 215/3/198 222/3/204 210/3/217
f 212/3/219 272/3/220 213/3/221
f 187/3/188 264/3/222 217/3/190
f 213/3/221 220/3/199 217/3/190
f 217/3/190 212/3/219 213/3/221
f 272/3/220 214/3/223 213/3/221
f 214/3/223 272/3/220 247/3/224
f 214/3/223 205/3/225 226/3/201
f 228/3/226 264/3/222 227/3/227
f 227/3/227 265/3/228 229/3/229
f 229/3/229 231/3/230 227/3/227
f 267/3/231 234/3/232 231/3/230
f 231/3/230 229/3/229 267/3/231
f 233/3/233 236/3/234 235/3/235
f 236/3/234 233/3/233 234/3/232
f 234/3/232 267/3/231 236/3/234
f 236/3/234 232/3/236 250/3/237
f 278/3/238 239/3/239 241/3/240
f 239/3/239 258/3/241 237/3/242
f 246/3/243 276/3/244 244/3/245
f 246/3/243 252/3/246 245/3/209
f 248/3/247 277/3/248 247/3/224
f 255/3/249 272/3/220 212/3/219
f 212/3/219 256/3/250 255/3/249
f 256/3/250 212/3/219 264/3/222
f 257/3/251 272/3/220 255/3/249
f 278/3/238 257/3/251 258/3/241
f 238/3/252 261/3/253 234/3/232
f 256/3/250 228/3/226 261/3/253
f 274/3/254 218/3/255 262/3/256
f 275/3/257 262/3/256 263/3/258
f 277/3/248 263/3/258 268/3/259
f 285/4/260 286/4/261 280/4/262
f 281/4/263 282/4/264 283/4/265
f 282/4/264 403/4/266 351/4/267
f 286/4/261 283/4/265 348/4/268
f 352/4/269 353/4/270 354/4/271
f 354/4/271 353/4/270 292/4/272
f 288/4/273 404/4/274 355/4/275
f 290/4/276 292/4/272 288/4/273
f 287/5/277 291/6/278 354/4/271
f 287/5/277 292/4/272 290/4/276
f 356/4/279 352/4/269 354/4/271
f 293/4/280 359/4/281 360/4/282
f 295/4/283 363/4/284 299/4/285
f 296/5/286 293/4/280 294/4/287
f 296/5/286 297/4/288 293/4/280
f 299/4/285 363/4/284 362/4/289
f 304/4/290 365/4/291 300/4/292
f 305/4/293 304/4/290 300/4/292
f 301/4/294 367/4/295 302/4/296
f 305/4/293 302/4/296 408/4/297
f 300/4/292 365/4/291 366/4/298
f 303/4/299 305/4/293 300/4/292
f 304/4/290 408/4/297 365/4/291
f 368/4/300 307/4/301 306/4/302
f 306/4/302 371/4/303 368/4/300
f 310/7/304 311/4/305 307/4/301
f 307/4/301 368/4/300 369/4/306
f 310/7/304 307/4/301 308/4/307
f 306/4/302 410/4/308 371/4/303
f 316/4/309 317/4/310 313/4/311
f 315/4/312 412/4/313 379/4/314
f 312/4/315 374/4/316 378/4/317
f 317/4/310 377/4/318 375/4/319
f 322/8/320 323/4/321 319/4/322
f 321/4/323 414/4/324 385/4/325
f 318/4/326 380/4/327 384/4/328
f 323/4/321 383/4/329 381/4/330
f 328/4/331 386/4/332 324/4/333
f 415/4/334 328/4/331 324/4/333
f 324/4/333 416/4/335 387/4/336
f 326/4/337 419/4/338 389/4/339
f 327/7/340 415/4/334 324/4/333
f 328/4/331 418/4/341 386/4/332
f 336/4/342 390/4/343 330/4/344
f 330/4/344 420/4/345 391/4/346
f 332/4/347 423/4/348 393/4/349
f 333/9/350 334/5/351 330/4/344
f 336/4/342 422/4/352 390/4/343
f 424/4/353 341/4/354 337/4/355
f 395/4/356 337/4/355 341/4/354
f 341/4/354 425/4/357 395/4/356
f 339/4/358 428/4/359 397/4/360
f 340/4/361 424/4/353 337/4/355
f 347/4/362 346/4/363 343/4/364
f 429/8/365 400/4/366 344/4/367
f 347/4/362 344/4/367 430/4/368
f 399/4/369 343/4/364 346/4/363
f 344/4/367 400/4/366 401/4/370
f 345/6/371 429/8/365 344/4/367
f 345/6/371 347/4/362 343/4/364
f 346/4/363 430/4/368 398/4/372
f 431/4/373 549/4/374 501/4/375
f 501/4/375 435/4/376 431/4/373
f 432/4/377 552/4/378 503/4/379
f 548/4/380 431/4/373 435/4/376
f 434/4/381 432/4/377 550/4/382
f 436/10/383 548/4/380 435/4/376
f 431/4/373 550/4/382 502/4/384
f 443/4/385 440/4/386 438/4/387
f 444/4/388 443/4/385 441/4/389
f 441/4/389 442/7/390 444/4/388
f 441/4/389 509/4/391 510/4/392
f 442/7/390 441/4/389 439/4/393
f 444/4/388 440/4/386 443/4/385
f 505/4/394 508/4/395 443/4/385
f 438/4/387 553/4/396 506/4/397
f 451/6/398 445/4/399 449/4/400
f 449/4/400 450/8/401 451/6/398
f 450/8/401 449/4/400 446/4/402
f 448/4/403 447/4/404 445/4/399
f 448/4/403 445/4/399 451/6/398
f 448/4/403 450/8/401 447/4/404
f 447/4/404 554/4/405 512/4/406
f 455/4/407 518/4/408 454/4/409
f 458/7/410 453/4/411 452/4/412
f 457/4/413 454/4/409 556/4/414
f 453/4/411 556/4/414 517/4/415
f 460/4/416 519/4/417 459/4/418
f 464/4/419 459/4/418 462/4/420
f 462/4/420 463/4/421 464/4/419
f 462/4/420 523/4/422 524/4/423
f 463/4/421 462/4/420 461/4/424
f 460/4/416 459/4/418 464/4/419
f 463/4/421 557/4/425 460/4/416
f 460/4/416 557/4/425 520/4/426
f 469/4/427 560/4/428 525/4/429
f 466/4/430 563/4/431 527/4/432
f 465/4/433 526/4/434 469/4/427
f 470/4/435 467/4/436 466/4/430
f 559/4/437 465/4/433 469/4/427
f 470/4/435 559/4/437 469/4/427
f 465/4/433 561/4/438 526/4/434
f 475/4/439 565/4/440 529/4/441
f 472/4/442 568/4/443 531/4/444
f 471/4/445 530/4/446 475/4/439
f 564/9/447 471/4/445 475/4/439
f 476/8/448 564/9/447 475/4/439
f 471/4/445 566/4/449 530/4/446
f 478/4/450 573/4/451 535/4/452
f 569/4/453 479/4/454 477/4/455
f 481/8/456 478/4/450 571/4/457
f 569/4/453 477/4/455 482/6/458
f 569/4/453 481/8/456 479/4/454
f 479/4/454 571/4/457 534/4/459
f 487/4/460 575/4/461 537/4/462
f 484/4/463 578/4/464 539/4/465
f 483/4/466 538/4/467 487/4/460
f 488/11/468 485/4/469 484/4/463
f 574/4/470 483/4/466 487/4/460
f 488/11/468 574/4/470 487/4/460
f 483/4/466 576/4/471 538/4/467
f 489/4/472 580/4/473 541/4/474
f 541/4/474 493/4/475 489/4/472
f 490/4/476 583/4/477 543/4/478
f 579/4/479 489/4/472 493/4/475
f 494/4/480 579/4/479 493/4/475
f 495/4/481 546/4/482 545/4/483
f 545/4/483 499/4/484 495/4/481
f 497/4/485 547/8/486 496/4/487
f 498/4/488 495/4/481 499/4/484
f 498/4/488 496/4/487 584/4/489
f 500/4/490 498/4/488 499/4/484
f 495/4/481 584/4/489 546/4/482
f 596/4/491 590/4/492 586/4/493
f 591/6/494 588/4/495 599/4/496
f 593/4/497 586/4/493 590/4/492
f 590/4/492 597/4/498 593/4/497
f 588/4/495 600/4/499 595/4/500
f 589/4/501 596/4/491 586/4/493
f 590/4/492 599/4/496 592/4/502
f 187/3/188 227/3/227 264/3/222
f 187/3/188 219/3/187 227/3/227
f 188/3/503 266/3/215 265/3/228
f 197/3/189 188/3/503 219/3/187
f 188/3/503 191/3/191 189/3/193
f 198/3/504 221/3/202 226/3/201
f 193/3/196 195/3/195 190/3/505
f 190/3/505 197/3/189 193/3/196
f 194/3/197 222/3/204 215/3/198
f 195/3/195 215/3/198 208/3/192
f 191/3/191 190/3/505 195/3/195
f 196/3/200 192/3/194 193/3/196
f 196/3/200 193/3/196 220/3/199
f 196/3/200 221/3/202 192/3/194
f 221/3/202 201/3/213 199/3/203
f 194/3/197 192/3/194 199/3/203
f 199/3/203 211/3/212 222/3/204
f 201/3/213 203/3/205 204/3/208
f 202/3/206 225/3/506 224/3/507
f 202/3/206 224/3/507 223/3/508
f 268/3/259 205/3/225 247/3/224
f 198/3/504 203/3/205 200/3/509
f 202/3/206 205/3/225 225/3/506
f 216/3/218 270/3/510 273/3/511
f 205/3/225 198/3/504 226/3/201
f 206/3/207 202/3/206 223/3/508
f 206/3/207 223/3/508 218/3/255
f 207/3/216 266/3/215 189/3/193
f 270/3/510 209/3/211 271/3/210
f 215/3/198 207/3/216 208/3/192
f 211/3/212 209/3/211 210/3/217
f 210/3/217 222/3/204 211/3/212
f 217/3/190 264/3/222 212/3/219
f 213/3/221 196/3/200 220/3/199
f 214/3/223 247/3/224 205/3/225
f 226/3/201 196/3/200 213/3/221
f 213/3/221 214/3/223 226/3/201
f 197/3/189 220/3/199 193/3/196
f 221/3/202 199/3/203 192/3/194
f 207/3/216 273/3/511 269/3/214
f 245/3/209 218/3/255 274/3/254
f 224/3/507 263/3/258 218/3/255
f 218/3/255 223/3/508 224/3/507
f 224/3/507 268/3/259 263/3/258
f 265/3/228 230/3/512 229/3/229
f 231/3/230 234/3/232 228/3/226
f 227/3/227 231/3/230 228/3/226
f 229/3/229 232/3/236 267/3/231
f 250/3/237 235/3/235 236/3/234
f 259/3/513 240/3/514 235/3/235
f 236/3/234 267/3/231 232/3/236
f 237/3/242 238/3/252 233/3/233
f 258/3/241 238/3/252 237/3/242
f 242/3/515 239/3/239 240/3/514
f 254/3/516 240/3/514 253/3/517
f 242/3/515 244/3/245 241/3/240
f 263/3/258 277/3/248 243/3/518
f 243/3/518 275/3/257 263/3/258
f 244/3/245 276/3/244 243/3/518
f 278/3/238 244/3/245 248/3/247
f 252/3/246 271/3/210 245/3/209
f 245/3/209 276/3/244 246/3/243
f 246/3/243 254/3/516 252/3/246
f 246/3/243 242/3/515 254/3/516
f 247/3/224 277/3/248 268/3/259
f 244/3/245 277/3/248 248/3/247
f 275/3/257 276/3/244 262/3/256
f 269/3/214 230/3/512 266/3/215
f 249/3/519 232/3/236 230/3/512
f 273/3/511 251/3/520 260/3/521
f 270/3/510 252/3/246 251/3/520
f 260/3/521 253/3/517 259/3/513
f 251/3/520 254/3/516 253/3/517
f 261/3/253 255/3/249 256/3/250
f 256/3/250 264/3/222 228/3/226
f 255/3/249 258/3/241 257/3/251
f 257/3/251 247/3/224 272/3/220
f 257/3/251 248/3/247 247/3/224
f 278/3/238 248/3/247 257/3/251
f 235/3/235 239/3/239 233/3/233
f 261/3/253 228/3/226 234/3/232
f 234/3/232 233/3/233 238/3/252
f 260/3/521 250/3/237 249/3/519
f 239/3/239 237/3/242 233/3/233
f 273/3/511 249/3/519 269/3/214
f 403/4/266 279/4/522 350/4/523
f 263/3/258 262/3/256 218/3/255
f 262/3/256 276/3/244 245/3/209
f 245/3/209 274/3/254 262/3/256
f 258/3/241 239/3/239 278/3/238
f 286/4/261 348/4/268 402/4/524
f 402/4/524 280/4/262 286/4/261
f 283/4/265 286/4/261 281/4/263
f 358/4/525 288/4/273 355/4/275
f 281/4/263 285/4/260 282/4/264
f 282/4/264 351/4/267 283/4/265
f 285/4/260 279/4/522 282/4/264
f 284/4/526 350/4/523 279/4/522
f 286/4/261 285/4/260 281/4/263
f 285/4/260 284/4/526 279/4/522
f 285/4/260 280/4/262 284/4/526
f 280/4/262 349/4/527 284/4/526
f 354/4/271 292/4/272 287/5/277
f 356/4/279 289/4/528 357/4/529
f 291/6/278 289/4/528 354/4/271
f 289/4/528 291/6/278 290/4/276
f 289/4/528 358/4/525 357/4/529
f 359/4/281 299/4/285 362/4/289
f 290/4/276 288/4/273 289/4/528
f 288/4/273 292/4/272 404/4/274
f 291/6/278 287/5/277 290/4/276
f 406/4/530 294/4/287 361/4/531
f 405/4/532 294/4/287 293/4/280
f 298/7/533 295/4/283 299/4/285
f 295/4/283 298/7/533 296/5/286
f 295/4/283 406/4/530 364/4/534
f 295/4/283 364/4/534 363/4/284
f 296/5/286 294/4/287 295/4/283
f 373/4/535 308/4/307 370/4/536
f 297/4/288 299/4/285 293/4/280
f 297/4/288 298/7/533 299/4/285
f 298/7/533 297/4/288 296/5/286
f 293/4/280 360/4/282 405/4/532
f 408/4/297 304/4/290 305/4/293
f 305/4/293 303/4/299 302/4/296
f 302/4/296 367/4/295 408/4/297
f 303/4/299 301/4/294 302/4/296
f 303/4/299 407/4/537 301/4/294
f 303/4/299 300/4/292 407/4/537
f 300/4/292 366/4/298 407/4/537
f 410/4/308 309/8/538 372/4/539
f 311/4/305 309/8/538 306/4/302
f 309/8/538 311/4/305 310/7/304
f 309/8/538 373/4/535 372/4/539
f 409/4/540 308/4/307 307/4/301
f 310/7/304 308/4/307 309/8/538
f 412/4/313 312/4/315 378/4/317
f 306/4/302 307/4/301 311/4/305
f 307/4/301 369/4/306 409/4/540
f 317/4/310 375/4/319 411/4/541
f 411/4/541 313/4/311 317/4/310
f 315/4/312 317/4/310 314/4/542
f 414/4/324 318/4/326 384/4/328
f 314/4/542 316/4/309 315/4/312
f 315/4/312 379/4/314 377/4/318
f 377/4/318 317/4/310 315/4/312
f 316/4/309 312/4/315 315/4/312
f 312/4/315 313/4/311 374/4/316
f 317/4/310 316/4/309 314/4/542
f 316/4/309 313/4/311 312/4/315
f 313/4/311 376/4/543 374/4/316
f 323/4/321 381/4/330 413/4/544
f 413/4/544 319/4/322 323/4/321
f 321/4/323 323/4/321 320/9/545
f 419/4/338 325/4/546 388/4/547
f 320/9/545 322/8/320 321/4/323
f 321/4/323 385/4/325 383/4/329
f 383/4/329 323/4/321 321/4/323
f 322/8/320 318/4/326 321/4/323
f 318/4/326 319/4/322 380/4/327
f 323/4/321 322/8/320 320/9/545
f 322/8/320 319/4/322 318/4/326
f 319/4/322 382/4/548 380/4/327
f 324/4/333 386/4/332 416/4/335
f 418/4/341 326/4/337 389/4/339
f 326/4/337 328/4/331 329/12/549
f 329/12/549 327/7/340 326/4/337
f 417/4/550 325/4/546 324/4/333
f 327/7/340 325/4/546 326/4/337
f 423/4/348 331/4/551 392/4/552
f 329/12/549 415/4/334 327/7/340
f 327/7/340 324/4/333 325/4/546
f 415/4/334 329/12/549 328/4/331
f 324/4/333 387/4/336 417/4/550
f 330/4/344 390/4/343 420/4/345
f 422/4/352 332/4/347 393/4/349
f 332/4/347 336/4/342 335/7/553
f 335/7/553 333/9/350 332/4/347
f 421/4/554 331/4/551 330/4/344
f 333/9/350 331/4/551 332/4/347
f 428/4/359 338/4/555 396/4/556
f 335/7/553 334/5/351 333/9/350
f 334/5/351 336/4/342 330/4/344
f 333/9/350 330/4/344 331/4/551
f 334/5/351 335/7/553 336/4/342
f 330/4/344 391/4/346 421/4/554
f 341/4/354 394/4/557 425/4/357
f 426/4/558 338/4/555 337/4/355
f 339/4/358 341/4/354 342/8/559
f 342/8/559 340/4/361 339/4/358
f 339/4/358 397/4/360 427/4/560
f 340/4/361 338/4/555 339/4/358
f 427/4/560 341/4/354 339/4/358
f 342/8/559 424/4/353 340/4/361
f 340/4/361 337/4/355 338/4/555
f 424/4/353 342/8/559 341/4/354
f 552/4/378 433/4/561 504/4/562
f 337/4/355 395/4/356 426/4/558
f 346/4/363 398/4/372 399/4/369
f 430/4/368 346/4/363 347/4/362
f 347/4/362 345/6/371 344/4/367
f 344/4/367 401/4/370 430/4/368
f 219/3/187 265/3/228 227/3/227
f 345/6/371 343/4/364 429/8/365
f 343/4/364 399/4/369 429/8/365
f 436/10/383 435/4/376 551/4/563
f 436/10/383 551/4/563 433/4/561
f 431/4/373 502/4/384 549/4/374
f 436/10/383 433/4/561 432/4/377
f 510/4/392 439/4/393 441/4/389
f 551/4/563 504/4/562 433/4/561
f 434/4/381 436/10/383 432/4/377
f 432/4/377 503/4/379 550/4/382
f 550/4/382 431/4/373 434/4/381
f 434/4/381 548/4/380 436/10/383
f 548/4/380 434/4/381 431/4/373
f 435/4/376 501/4/375 551/4/563
f 437/4/564 443/4/385 438/4/387
f 437/4/564 505/4/394 443/4/385
f 508/4/395 441/4/389 443/4/385
f 438/4/387 506/4/397 437/4/564
f 553/4/396 439/4/393 507/4/565
f 555/4/566 446/4/402 449/4/400
f 442/7/390 440/4/386 444/4/388
f 442/7/390 439/4/393 438/4/387
f 440/4/386 442/7/390 438/4/387
f 445/4/399 447/4/404 511/4/567
f 511/4/567 514/4/568 445/4/399
f 554/4/405 446/4/402 513/4/569
f 447/4/404 512/4/406 511/4/567
f 516/4/570 555/4/566 449/4/400
f 449/4/400 445/4/399 515/4/571
f 515/4/571 516/4/570 449/4/400
f 524/4/423 461/4/424 462/4/420
f 450/8/401 448/4/403 451/6/398
f 450/8/401 446/4/402 447/4/404
f 445/4/399 514/4/568 515/4/571
f 452/4/412 453/4/411 517/4/415
f 453/4/411 458/7/410 457/4/413
f 458/7/410 452/4/412 456/4/572
f 458/7/410 456/4/572 455/4/407
f 458/7/410 455/4/407 454/4/409
f 457/4/413 458/7/410 454/4/409
f 454/4/409 518/4/408 556/4/414
f 556/4/414 453/4/411 457/4/413
f 459/4/418 519/4/417 522/4/573
f 460/4/416 464/4/419 463/4/421
f 558/4/574 462/4/420 459/4/418
f 460/4/416 520/4/426 519/4/417
f 563/4/431 467/4/436 528/4/575
f 461/4/424 521/4/576 557/4/425
f 463/4/421 461/4/424 557/4/425
f 459/4/418 522/4/573 558/4/574
f 470/4/435 469/4/427 467/4/436
f 469/4/427 526/4/434 560/4/428
f 562/4/577 467/4/436 469/4/427
f 561/4/438 466/4/430 527/4/432
f 468/13/578 470/4/435 466/4/430
f 568/4/443 473/4/579 532/4/580
f 466/4/430 465/4/433 468/13/578
f 468/13/578 559/4/437 470/4/435
f 559/4/437 468/13/578 465/4/433
f 469/4/427 525/4/429 562/4/577
f 476/8/448 475/4/439 473/4/579
f 475/4/439 530/4/446 565/4/440
f 476/8/448 473/4/579 472/4/442
f 567/4/581 473/4/579 475/4/439
f 566/4/449 472/4/442 531/4/444
f 474/9/582 476/8/448 472/4/442
f 570/4/583 477/4/455 479/4/454
f 472/4/442 471/4/445 474/9/582
f 474/9/582 564/9/447 476/8/448
f 564/9/447 474/9/582 471/4/445
f 475/4/439 529/4/441 567/4/581
f 573/4/451 480/4/584 536/4/585
f 482/6/458 477/4/455 480/4/584
f 479/4/454 534/4/459 570/4/583
f 482/6/458 480/4/584 478/4/450
f 572/4/586 480/4/584 477/4/455
f 578/4/464 485/4/469 540/4/587
f 481/8/456 482/6/458 478/4/450
f 478/4/450 535/4/452 571/4/457
f 571/4/457 479/4/454 481/8/456
f 481/8/456 569/4/453 482/6/458
f 477/4/455 533/4/588 572/4/586
f 488/11/468 487/4/460 485/4/469
f 487/4/460 538/4/467 575/4/461
f 577/4/589 485/4/469 487/4/460
f 576/4/471 484/4/463 539/4/465
f 486/7/590 488/11/468 484/4/463
f 583/4/477 491/4/591 544/4/592
f 484/4/463 483/4/466 486/7/590
f 486/7/590 574/4/470 488/11/468
f 574/4/470 486/7/590 483/4/466
f 487/4/460 537/4/462 577/4/589
f 494/4/480 493/4/475 491/4/591
f 489/4/472 542/4/593 580/4/473
f 494/4/480 491/4/591 490/4/476
f 582/4/594 491/4/591 493/4/475
f 581/4/595 489/4/472 490/4/476
f 492/8/596 494/4/480 490/4/476
f 490/4/476 543/4/478 581/4/595
f 490/4/476 489/4/472 492/8/596
f 492/8/596 579/4/479 494/4/480
f 579/4/479 492/8/596 489/4/472
f 493/4/475 541/4/474 582/4/594
f 600/4/499 587/4/597 594/4/598
f 500/4/490 499/4/484 585/4/599
f 500/4/490 585/4/599 497/4/485
f 500/4/490 497/4/485 496/4/487
f 498/4/488 500/4/490 496/4/487
f 496/4/487 547/8/486 584/4/489
f 584/4/489 495/4/481 498/4/488
f 499/4/484 545/4/483 585/4/599
f 590/4/492 592/4/502 597/4/498
f 599/4/496 590/4/492 591/6/494
f 591/6/494 589/4/501 588/4/495
f 588/4/495 595/4/500 599/4/496
f 589/4/501 587/4/597 588/4/495
f 598/7/600 594/4/598 587/4/597
f 591/6/494 596/4/491 589/4/501
f 589/4/501 598/7/600 587/4/597
f 589/4/501 586/4/493 598/7/600
f 596/4/491 591/6/494 590/4/492
f 586/4/493 593/4/497 598/7/600
f 188/3/503 189/3/193 266/3/215
f 197/3/189 190/3/505 188/3/503
f 188/3/503 190/3/505 191/3/191
f 198/3/504 200/3/509 221/3/202
f 221/3/202 200/3/509 201/3/213
f 199/3/203 201/3/213 211/3/212
f 201/3/213 200/3/509 203/3/205
f 268/3/259 225/3/506 205/3/225
f 198/3/504 205/3/225 203/3/205
f 202/3/206 203/3/205 205/3/225
f 216/3/218 210/3/217 270/3/510
f 270/3/510 210/3/217 209/3/211
f 215/3/198 216/3/218 207/3/216
f 207/3/216 216/3/218 273/3/511
f 245/3/209 206/3/207 218/3/255
f 224/3/507 225/3/506 268/3/259
f 265/3/228 266/3/215 230/3/512
f 229/3/229 230/3/512 232/3/236
f 250/3/237 259/3/513 235/3/235
f 259/3/513 253/3/517 240/3/514
f 242/3/515 241/3/240 239/3/239
f 254/3/516 242/3/515 240/3/514
f 242/3/515 246/3/243 244/3/245
f 278/3/238 241/3/240 244/3/245
f 244/3/245 243/3/518 277/3/248
f 275/3/257 243/3/518 276/3/244
f 269/3/214 249/3/519 230/3/512
f 249/3/519 250/3/237 232/3/236
f 273/3/511 270/3/510 251/3/520
f 270/3/510 271/3/210 252/3/246
f 260/3/521 251/3/520 253/3/517
f 251/3/520 252/3/246 254/3/516
f 261/3/253 238/3/252 255/3/249
f 255/3/249 238/3/252 258/3/241
f 235/3/235 240/3/514 239/3/239
f 260/3/521 259/3/513 250/3/237
f 273/3/511 260/3/521 249/3/519
f 403/4/266 282/4/264 279/4/522
f 402/4/524 349/4/527 280/4/262
f 358/4/525 289/4/528 288/4/273
f 356/4/279 354/4/271 289/4/528
f 359/4/281 293/4/280 299/4/285
f 406/4/530 295/4/283 294/4/287
f 405/4/532 361/4/531 294/4/287
f 373/4/535 309/8/538 308/4/307
f 410/4/308 306/4/302 309/8/538
f 409/4/540 370/4/536 308/4/307
f 412/4/313 315/4/312 312/4/315
f 411/4/541 376/4/543 313/4/311
f 414/4/324 321/4/323 318/4/326
f 413/4/544 382/4/548 319/4/322
f 419/4/338 326/4/337 325/4/546
f 418/4/341 328/4/331 326/4/337
f 417/4/550 388/4/547 325/4/546
f 423/4/348 332/4/347 331/4/551
f 422/4/352 336/4/342 332/4/347
f 421/4/554 392/4/552 331/4/551
f 428/4/359 339/4/358 338/4/555
f 426/4/558 396/4/556 338/4/555
f 427/4/560 394/4/557 341/4/354
f 552/4/378 432/4/377 433/4/561
f 219/3/187 188/3/503 265/3/228
f 510/4/392 507/4/565 439/4/393
f 508/4/395 509/4/391 441/4/389
f 553/4/396 438/4/387 439/4/393
f 555/4/566 513/4/569 446/4/402
f 554/4/405 447/4/404 446/4/402
f 524/4/423 521/4/576 461/4/424
f 558/4/574 523/4/422 462/4/420
f 563/4/431 466/4/430 467/4/436
f 562/4/577 528/4/575 467/4/436
f 561/4/438 465/4/433 466/4/430
f 568/4/443 472/4/442 473/4/579
f 567/4/581 532/4/580 473/4/579
f 566/4/449 471/4/445 472/4/442
f 570/4/583 533/4/588 477/4/455
f 573/4/451 478/4/450 480/4/584
f 572/4/586 536/4/585 480/4/584
f 578/4/464 484/4/463 485/4/469
f 577/4/589 540/4/587 485/4/469
f 576/4/471 483/4/466 484/4/463
f 583/4/477 490/4/476 491/4/591
f 582/4/594 544/4/592 491/4/591
f 581/4/595 542/4/593 489/4/472
f 600/4/499 588/4/495 587/4/597
